<?xml version="1.0" encoding="utf-8"?>
<!-- Generator: Adobe Illustrator 16.0.0, SVG Export Plug-In . SVG Version: 6.00 Build 0)  -->
<!DOCTYPE svg PUBLIC "-//W3C//DTD SVG 1.1//EN" "http://www.w3.org/Graphics/SVG/1.1/DTD/svg11.dtd">
<svg version="1.1" id="Capa_1" xmlns="http://www.w3.org/2000/svg" xmlns:xlink="http://www.w3.org/1999/xlink" x="0px" y="0px"
	 width="376.187px" height="75.016px" viewBox="0 0 376.187 75.016" enable-background="new 0 0 376.187 75.016"
	 xml:space="preserve">
<rect x="49.188" y="58.646" fill="#FFFFFF" width="152.602" height="3.465"/>
<rect x="49.188" y="63.97" fill="#FFFFFF" width="152.602" height="3.469"/>
<path fill="#FFFFFF" d="M370.478,8.501V4.619h1.638c0.328,0,0.578,0.033,0.747,0.102c0.17,0.068,0.309,0.193,0.408,0.368
	c0.103,0.179,0.153,0.372,0.153,0.584c0,0.275-0.087,0.512-0.252,0.697c-0.17,0.191-0.427,0.311-0.783,0.36
	c0.128,0.066,0.229,0.13,0.295,0.193c0.141,0.142,0.273,0.312,0.401,0.517l0.641,1.061h-0.61l-0.488-0.807
	c-0.142-0.235-0.26-0.414-0.354-0.537c-0.092-0.127-0.174-0.214-0.25-0.262c-0.071-0.052-0.141-0.087-0.219-0.101
	c-0.052-0.015-0.146-0.02-0.273-0.02h-0.561v1.726H370.478z M370.971,6.325h1.048c0.217,0,0.396-0.021,0.521-0.07
	c0.123-0.047,0.22-0.125,0.285-0.23c0.066-0.108,0.097-0.225,0.097-0.352c0-0.182-0.063-0.332-0.188-0.451
	c-0.128-0.117-0.328-0.178-0.601-0.178h-1.162V6.325z"/>
<path fill="#FFFFFF" d="M371.797,11.177c-2.427,0-4.4-2.071-4.4-4.619c0-2.547,1.973-4.621,4.4-4.621c2.42,0,4.39,2.074,4.39,4.621
	C376.187,9.105,374.217,11.177,371.797,11.177 M371.797,2.585c-2.069,0-3.75,1.781-3.75,3.973c0,2.189,1.681,3.968,3.75,3.968
	c2.062,0,3.74-1.778,3.74-3.968C375.537,4.366,373.859,2.585,371.797,2.585"/>
<path fill="#FFFFFF" d="M250.902,28.904c0,6.844-2.273,12.587-6.808,17.23c-4.529,4.639-10.262,6.96-17.178,6.96
	c-6.967,0-12.712-2.296-17.248-6.896c-4.534-4.6-6.801-10.361-6.801-17.295c0-6.886,2.267-12.626,6.801-17.229
	c4.536-4.592,10.281-6.894,17.248-6.894c6.916,0,12.649,2.302,17.178,6.894C248.629,16.278,250.902,22.019,250.902,28.904
	 M237.798,28.904c0-3.162-0.99-5.877-2.972-8.139c-2.111-2.401-4.772-3.604-7.974-3.604c-2.995,0-5.559,1.143-7.689,3.436
	c-2.133,2.287-3.2,5.06-3.2,8.307c0,3.245,1.058,6.007,3.167,8.278c2.108,2.265,4.661,3.405,7.658,3.405
	c2.95,0,5.484-1.046,7.595-3.141C236.662,35.225,237.798,32.376,237.798,28.904"/>
<polygon fill="#FFFFFF" points="87.614,41.448 80.919,52.102 49.189,52.102 49.189,5.65 82.432,5.65 89.122,16.297 64.061,16.297 
	64.061,23.614 78.24,23.614 78.24,33.86 64.061,33.86 64.061,41.448 "/>
<polygon fill="#FFFFFF" points="130.919,52.1 114.949,52.1 107.158,37.793 99.372,52.1 83.402,52.1 99.372,27.477 85,5.65 
	100.039,5.65 107.158,17.888 114.216,5.65 129.253,5.65 115.015,27.477 "/>
<path fill="#FFFFFF" d="M132.598,5.648h19.373c4.97,0,8.95,1.454,11.948,4.357c2.992,2.905,4.491,6.732,4.491,11.48
	c0,4.699-1.296,8.443-3.893,11.213c-2.599,2.775-6.046,4.156-10.352,4.156h-8.582v15.245h-12.985 M155.367,21.486
	c0-1.64-0.398-2.884-1.202-3.729c-0.928-0.97-2.479-1.46-4.659-1.46h-3.923v10.709h4.194c2.128,0,3.634-0.553,4.525-1.658
	C155.011,24.458,155.367,23.173,155.367,21.486"/>
<polygon fill="#FFFFFF" points="202.368,41.187 202.368,52.1 171.012,52.1 171.012,5.647 183.996,5.647 183.996,41.187 "/>
<path fill="#FFFFFF" d="M292.77,52.102h-16.481l-9.608-16.439v16.439h-12.921V5.649h19.378c5.325,0,9.268,1.239,11.846,3.726
	c2.395,2.308,3.591,5.656,3.591,10.046c0,4.925-1.687,8.516-5.054,10.779c-1.115,0.761-2.797,1.399-5.058,1.935L292.77,52.102z
	 M275.795,20.75c0-1.551-0.495-2.767-1.494-3.662c-0.999-0.884-2.427-1.326-4.298-1.326h-3.323v10.783h3.596
	c1.774,0,3.139-0.524,4.089-1.565C275.315,23.937,275.795,22.531,275.795,20.75"/>
<polygon fill="#FFFFFF" points="328.704,41.448 328.704,52.102 295.373,52.102 295.373,5.65 328.572,5.65 328.704,16.294 
	310.205,16.294 310.205,23.614 324.378,23.614 324.378,33.86 310.205,33.86 310.205,41.448 "/>
<path fill="#FFFFFF" d="M370.311,52.102h-16.479l-9.605-16.439v16.439h-12.918V5.649h19.375c5.321,0,9.271,1.239,11.844,3.726
	c2.392,2.308,3.598,5.656,3.598,10.046c0,4.925-1.689,8.516-5.064,10.779c-1.107,0.761-2.797,1.399-5.057,1.935L370.311,52.102z
	 M353.342,20.75c0-1.551-0.5-2.767-1.494-3.662c-1.002-0.884-2.432-1.326-4.298-1.326h-3.323v10.783h3.594
	c1.774,0,3.136-0.524,4.091-1.565C352.868,23.937,353.342,22.531,353.342,20.75"/>
<polygon fill="#FFFFFF" points="0.001,0.013 40.901,54.128 40.901,0.013 "/>
<polygon fill="#FFFFFF" points="0,0.013 40.9,54.13 40.9,0.013 "/>
<g>
	<defs>
		<polygon id="SVGID_62_" points="0,0.013 40.901,54.13 40.901,0.013 		"/>
	</defs>
	<clipPath id="SVGID_2_">
		<use xlink:href="#SVGID_62_"  overflow="visible"/>
	</clipPath>
	<path clip-path="url(#SVGID_2_)" fill="#FFFFFF" d="M44.434,27.069c0,13.246-10.739,23.981-23.982,23.981
		c-13.247,0-23.983-10.735-23.983-23.981S7.205,3.087,20.452,3.087C33.695,3.087,44.434,13.823,44.434,27.069"/>
	<path clip-path="url(#SVGID_2_)" fill="#FFFFFF" d="M44.005,27.069c0,13.011-10.545,23.554-23.553,23.554
		c-13.009,0-23.554-10.543-23.554-23.554c0-13.008,10.545-23.554,23.554-23.554C33.46,3.516,44.005,14.062,44.005,27.069"/>
	<path clip-path="url(#SVGID_2_)" fill="#FFFFFF" d="M43.574,27.069c0,12.771-10.352,23.125-23.125,23.125
		c-12.77,0-23.122-10.354-23.122-23.125S7.679,3.945,20.449,3.945C33.222,3.945,43.574,14.299,43.574,27.069"/>
	<path clip-path="url(#SVGID_2_)" fill="#FFFFFF" d="M43.146,27.069c0,12.534-10.162,22.695-22.693,22.695
		c-12.535,0-22.696-10.161-22.696-22.695c0-12.532,10.161-22.693,22.696-22.693C32.983,4.376,43.146,14.537,43.146,27.069"/>
	<path clip-path="url(#SVGID_2_)" fill="#FFFFFF" d="M42.716,27.069c0,12.296-9.968,22.265-22.265,22.265
		c-12.298,0-22.264-9.969-22.264-22.265S8.153,4.805,20.451,4.805C32.749,4.805,42.716,14.773,42.716,27.069"/>
	<path clip-path="url(#SVGID_2_)" fill="#FFFFFF" d="M42.286,27.069c0,12.061-9.775,21.836-21.836,21.836
		c-12.058,0-21.835-9.775-21.835-21.836c0-12.059,9.777-21.836,21.835-21.836C32.511,5.233,42.286,15.011,42.286,27.069"/>
	<path clip-path="url(#SVGID_2_)" fill="#FFFFFF" d="M41.856,27.069c0,11.822-9.584,21.406-21.404,21.406
		c-11.823,0-21.407-9.584-21.407-21.406S8.629,5.665,20.453,5.665C32.272,5.665,41.856,15.247,41.856,27.069"/>
	<path clip-path="url(#SVGID_2_)" fill="#FFFFFF" d="M41.427,27.069c0,11.587-9.391,20.976-20.975,20.976
		c-11.585,0-20.978-9.389-20.978-20.976c0-11.585,9.393-20.977,20.978-20.977C32.036,6.093,41.427,15.484,41.427,27.069"/>
	<path clip-path="url(#SVGID_2_)" fill="#FFFFFF" d="M40.999,27.069c0,11.347-9.2,20.547-20.547,20.547
		c-11.349,0-20.546-9.2-20.546-20.547S9.103,6.522,20.452,6.522C31.798,6.522,40.999,15.723,40.999,27.069"/>
	<path clip-path="url(#SVGID_2_)" fill="#FFFFFF" d="M40.568,27.069c0,11.111-9.006,20.117-20.118,20.117
		c-11.108,0-20.117-9.006-20.117-20.117c0-11.108,9.009-20.117,20.117-20.117C31.562,6.952,40.568,15.961,40.568,27.069"/>
	<path clip-path="url(#SVGID_2_)" fill="#FFFFFF" d="M40.139,27.069c0,10.873-8.813,19.688-19.687,19.688
		c-10.875,0-19.688-8.814-19.688-19.688S9.577,7.382,20.452,7.382C31.326,7.382,40.139,16.196,40.139,27.069"/>
	<path clip-path="url(#SVGID_2_)" fill="#FFFFFF" d="M39.709,27.069c0,10.638-8.623,19.258-19.257,19.258
		c-10.638,0-19.26-8.62-19.26-19.258c0-10.635,8.622-19.258,19.26-19.258C31.086,7.812,39.709,16.435,39.709,27.069"/>
	<path clip-path="url(#SVGID_2_)" fill="#FFFFFF" d="M39.279,27.069c0,10.398-8.429,18.829-18.829,18.829
		c-10.399,0-18.828-8.431-18.828-18.829c0-10.399,8.429-18.828,18.828-18.828C30.85,8.241,39.279,16.67,39.279,27.069"/>
	<path clip-path="url(#SVGID_2_)" fill="#FFFFFF" d="M38.85,27.069c0,10.161-8.238,18.398-18.4,18.398
		c-10.161,0-18.397-8.237-18.397-18.398S10.289,8.67,20.45,8.67C30.612,8.67,38.85,16.908,38.85,27.069"/>
	<path clip-path="url(#SVGID_2_)" fill="#FFFFFF" d="M38.421,27.069c0,9.926-8.045,17.969-17.969,17.969
		c-9.926,0-17.97-8.043-17.97-17.969c0-9.923,8.044-17.969,17.97-17.969C30.376,9.101,38.421,17.146,38.421,27.069"/>
	<path clip-path="url(#SVGID_2_)" fill="#FFFFFF" d="M37.992,27.069c0,9.688-7.854,17.54-17.54,17.54
		c-9.688,0-17.542-7.853-17.542-17.54c0-9.687,7.854-17.539,17.542-17.539C30.138,9.53,37.992,17.383,37.992,27.069"/>
	<path clip-path="url(#SVGID_2_)" fill="#FFFFFF" d="M37.562,27.069c0,9.449-7.659,17.11-17.111,17.11
		c-9.45,0-17.111-7.661-17.111-17.11S11,9.959,20.451,9.959C29.902,9.959,37.562,17.62,37.562,27.069"/>
	<path clip-path="url(#SVGID_2_)" fill="#FFFFFF" d="M37.132,27.069c0,9.214-7.468,16.682-16.682,16.682
		c-9.212,0-16.679-7.468-16.679-16.682c0-9.212,7.467-16.682,16.679-16.682C29.665,10.388,37.132,17.857,37.132,27.069"/>
	<path clip-path="url(#SVGID_2_)" fill="#FFFFFF" d="M36.703,27.069c0,8.976-7.277,16.251-16.25,16.251
		C11.474,43.32,4.2,36.045,4.2,27.069c0-8.977,7.274-16.251,16.253-16.251C29.426,10.818,36.703,18.093,36.703,27.069"/>
	<path clip-path="url(#SVGID_2_)" fill="#FFFFFF" d="M36.272,27.069c0,8.738-7.083,15.821-15.822,15.821
		c-8.738,0-15.821-7.083-15.821-15.821s7.083-15.821,15.821-15.821C29.189,11.248,36.272,18.331,36.272,27.069"/>
	<path clip-path="url(#SVGID_2_)" fill="#FFFFFF" d="M35.843,27.069c0,8.502-6.89,15.393-15.393,15.393
		c-8.5,0-15.39-6.891-15.39-15.393c0-8.5,6.89-15.394,15.39-15.394C28.953,11.676,35.843,18.569,35.843,27.069"/>
	<path clip-path="url(#SVGID_2_)" fill="#FFFFFF" d="M35.414,27.069c0,8.265-6.699,14.964-14.964,14.964
		c-8.262,0-14.961-6.699-14.961-14.964c0-8.262,6.699-14.964,14.961-14.964C28.715,12.105,35.414,18.808,35.414,27.069"/>
	<path clip-path="url(#SVGID_2_)" fill="#FFFFFF" d="M34.985,27.069c0,8.026-6.506,14.532-14.533,14.532
		c-8.028,0-14.535-6.506-14.535-14.532s6.507-14.532,14.535-14.532C28.479,12.537,34.985,19.043,34.985,27.069"/>
	<path clip-path="url(#SVGID_2_)" fill="#FFFFFF" d="M34.555,27.069c0,7.791-6.315,14.104-14.104,14.104
		c-7.791,0-14.104-6.313-14.104-14.104c0-7.788,6.313-14.104,14.104-14.104C28.24,12.965,34.555,19.281,34.555,27.069"/>
	<path clip-path="url(#SVGID_2_)" fill="#FFFFFF" d="M34.125,27.069c0,7.553-6.122,13.675-13.675,13.675
		c-7.553,0-13.673-6.122-13.673-13.675s6.12-13.675,13.673-13.675C28.003,13.395,34.125,19.517,34.125,27.069"/>
	<path clip-path="url(#SVGID_2_)" fill="#FFFFFF" d="M33.696,27.069c0,7.313-5.932,13.246-13.246,13.246
		c-7.315,0-13.244-5.933-13.244-13.246c0-7.314,5.929-13.243,13.244-13.243C27.764,13.826,33.696,19.755,33.696,27.069"/>
	<path clip-path="url(#SVGID_2_)" fill="#FFFFFF" d="M33.267,27.069c0,7.079-5.738,12.813-12.815,12.813
		c-7.079,0-12.817-5.734-12.817-12.813c0-7.076,5.738-12.814,12.817-12.814C27.529,14.255,33.267,19.993,33.267,27.069"/>
	<path clip-path="url(#SVGID_2_)" fill="#FFFFFF" d="M32.837,27.069c0,6.841-5.545,12.386-12.386,12.386
		c-6.841,0-12.386-5.545-12.386-12.386s5.545-12.386,12.386-12.386C27.292,14.684,32.837,20.229,32.837,27.069"/>
	<path clip-path="url(#SVGID_2_)" fill="#FFFFFF" d="M32.408,27.069c0,6.603-5.352,11.957-11.957,11.957
		c-6.603,0-11.955-5.354-11.955-11.957c0-6.604,5.352-11.957,11.955-11.957C27.056,15.112,32.408,20.466,32.408,27.069"/>
	<path clip-path="url(#SVGID_2_)" fill="#FFFFFF" d="M31.978,27.069c0,6.367-5.161,11.528-11.528,11.528
		c-6.365,0-11.526-5.161-11.526-11.528c0-6.365,5.161-11.525,11.526-11.525C26.817,15.544,31.978,20.704,31.978,27.069"/>
	<path clip-path="url(#SVGID_2_)" fill="#FFFFFF" d="M31.548,27.069c0,6.129-4.967,11.097-11.097,11.097
		c-6.129,0-11.097-4.968-11.097-11.097s4.968-11.097,11.097-11.097C26.581,15.973,31.548,20.94,31.548,27.069"/>
	<path clip-path="url(#SVGID_2_)" fill="#FFFFFF" d="M31.119,27.069c0,5.892-4.776,10.668-10.668,10.668
		c-5.891,0-10.668-4.776-10.668-10.668c0-5.893,4.777-10.668,10.668-10.668C26.343,16.401,31.119,21.177,31.119,27.069"/>
	<path clip-path="url(#SVGID_2_)" fill="#FFFFFF" d="M30.69,27.069c0,5.655-4.583,10.239-10.239,10.239
		c-5.654,0-10.237-4.584-10.237-10.239c0-5.653,4.583-10.239,10.237-10.239C26.107,16.83,30.69,21.416,30.69,27.069"/>
	<path clip-path="url(#SVGID_2_)" fill="#FFFFFF" d="M30.26,27.069c0,5.418-4.393,9.811-9.81,9.811
		c-5.416,0-9.808-4.393-9.808-9.811s4.392-9.808,9.808-9.808C25.867,17.262,30.26,21.651,30.26,27.069"/>
	<path clip-path="url(#SVGID_2_)" fill="#FFFFFF" d="M29.83,27.069c0,5.18-4.199,9.379-9.379,9.379s-9.379-4.199-9.379-9.379
		s4.199-9.379,9.379-9.379S29.83,21.89,29.83,27.069"/>
	<path clip-path="url(#SVGID_2_)" fill="#FFFFFF" d="M29.401,27.069c0,4.944-4.006,8.95-8.95,8.95c-4.944,0-8.95-4.006-8.95-8.95
		c0-4.941,4.006-8.95,8.95-8.95C25.395,18.119,29.401,22.128,29.401,27.069"/>
	<path clip-path="url(#SVGID_2_)" fill="#FFFFFF" d="M28.972,27.069c0,4.706-3.815,8.521-8.521,8.521s-8.519-3.814-8.519-8.521
		s3.813-8.52,8.519-8.52S28.972,22.363,28.972,27.069"/>
	<path clip-path="url(#SVGID_2_)" fill="#FFFFFF" d="M28.735,27.069c0,4.574-3.709,8.285-8.283,8.285
		c-4.577,0-8.283-3.711-8.283-8.285s3.706-8.283,8.283-8.283C25.026,18.786,28.735,22.495,28.735,27.069"/>
	<path clip-path="url(#SVGID_2_)" fill="#FFFFFF" d="M28.498,27.069c0,4.444-3.603,8.048-8.047,8.048
		c-4.445,0-8.048-3.604-8.048-8.048s3.603-8.048,8.048-8.048C24.895,19.021,28.498,22.625,28.498,27.069"/>
	<path clip-path="url(#SVGID_2_)" fill="#FFFFFF" d="M28.262,27.069c0,4.313-3.497,7.81-7.81,7.81c-4.314,0-7.811-3.496-7.811-7.81
		c0-4.313,3.497-7.811,7.811-7.811C24.765,19.259,28.262,22.757,28.262,27.069"/>
	<path clip-path="url(#SVGID_2_)" fill="#FFFFFF" d="M28.025,27.069c0,4.183-3.391,7.574-7.574,7.574
		c-4.183,0-7.574-3.392-7.574-7.574s3.391-7.574,7.574-7.574C24.634,19.495,28.025,22.887,28.025,27.069"/>
	<path clip-path="url(#SVGID_2_)" fill="#FFFFFF" d="M27.788,27.069c0,4.054-3.285,7.338-7.336,7.338
		c-4.053,0-7.338-3.284-7.338-7.338c0-4.051,3.285-7.336,7.338-7.336C24.502,19.733,27.788,23.019,27.788,27.069"/>
	<path clip-path="url(#SVGID_2_)" fill="#FFFFFF" d="M27.552,27.069c0,3.921-3.179,7.101-7.1,7.101s-7.1-3.18-7.1-7.101
		s3.179-7.102,7.1-7.102S27.552,23.148,27.552,27.069"/>
	<path clip-path="url(#SVGID_2_)" fill="#FFFFFF" d="M27.315,27.069c0,3.792-3.073,6.864-6.865,6.864
		c-3.789,0-6.862-3.072-6.862-6.864c0-3.789,3.073-6.864,6.862-6.864C24.242,20.205,27.315,23.28,27.315,27.069"/>
	<path clip-path="url(#SVGID_2_)" fill="#FFFFFF" d="M27.078,27.069c0,3.66-2.967,6.629-6.626,6.629
		c-3.66,0-6.627-2.969-6.627-6.629c0-3.659,2.967-6.627,6.627-6.627C24.111,20.442,27.078,23.41,27.078,27.069"/>
	<path clip-path="url(#SVGID_2_)" fill="#FFFFFF" d="M26.842,27.069c0,3.53-2.861,6.391-6.391,6.391
		c-3.527,0-6.391-2.86-6.391-6.391s2.864-6.389,6.391-6.389C23.981,20.681,26.842,23.539,26.842,27.069"/>
	<path clip-path="url(#SVGID_2_)" fill="#FFFFFF" d="M26.605,27.069c0,3.397-2.755,6.153-6.153,6.153
		c-3.4,0-6.155-2.756-6.155-6.153c0-3.398,2.755-6.153,6.155-6.153C23.85,20.916,26.605,23.671,26.605,27.069"/>
	<path clip-path="url(#SVGID_2_)" fill="#FFFFFF" d="M26.368,27.069c0,3.269-2.648,5.917-5.917,5.917
		c-3.266,0-5.915-2.648-5.915-5.917c0-3.27,2.649-5.917,5.915-5.917C23.72,21.152,26.368,23.8,26.368,27.069"/>
	<path clip-path="url(#SVGID_2_)" fill="#FFFFFF" d="M26.131,27.069c0,3.139-2.543,5.682-5.679,5.682
		c-3.139,0-5.682-2.543-5.682-5.682c0-3.137,2.543-5.679,5.682-5.679C23.588,21.391,26.131,23.933,26.131,27.069"/>
	<path clip-path="url(#SVGID_2_)" fill="#FFFFFF" d="M25.895,27.069c0,3.007-2.437,5.443-5.444,5.443
		c-3.007,0-5.443-2.437-5.443-5.443c0-3.005,2.436-5.443,5.443-5.443C23.458,21.626,25.895,24.064,25.895,27.069"/>
	<path clip-path="url(#SVGID_2_)" fill="#FFFFFF" d="M25.658,27.069c0,2.877-2.331,5.208-5.206,5.208
		c-2.877,0-5.208-2.331-5.208-5.208c0-2.875,2.331-5.205,5.208-5.205C23.327,21.864,25.658,24.194,25.658,27.069"/>
	<path clip-path="url(#SVGID_2_)" fill="#FFFFFF" d="M25.421,27.069c0,2.745-2.225,4.97-4.97,4.97c-2.745,0-4.97-2.225-4.97-4.97
		s2.225-4.97,4.97-4.97C23.196,22.1,25.421,24.324,25.421,27.069"/>
	<path clip-path="url(#SVGID_2_)" fill="#FFFFFF" d="M25.185,27.069c0,2.613-2.119,4.734-4.734,4.734
		c-2.614,0-4.735-2.121-4.735-4.734s2.121-4.731,4.735-4.731C23.066,22.338,25.185,24.456,25.185,27.069"/>
	<path clip-path="url(#SVGID_2_)" fill="#FFFFFF" d="M24.948,27.069c0,2.482-2.012,4.499-4.496,4.499s-4.497-2.017-4.497-4.499
		c0-2.483,2.013-4.496,4.497-4.496S24.948,24.586,24.948,27.069"/>
	<path clip-path="url(#SVGID_2_)" fill="#FFFFFF" d="M24.711,27.069c0,2.354-1.906,4.261-4.261,4.261
		c-2.351,0-4.26-1.907-4.26-4.261c0-2.353,1.909-4.261,4.26-4.261C22.805,22.809,24.711,24.717,24.711,27.069"/>
	<path clip-path="url(#SVGID_2_)" fill="#FFFFFF" d="M24.475,27.069c0,2.223-1.803,4.025-4.025,4.025
		c-2.22,0-4.022-1.803-4.022-4.025c0-2.222,1.802-4.022,4.022-4.022C22.672,23.047,24.475,24.848,24.475,27.069"/>
	<path clip-path="url(#SVGID_2_)" fill="#FFFFFF" d="M24.238,27.069c0,2.093-1.696,3.787-3.787,3.787
		c-2.092,0-3.787-1.694-3.787-3.787c0-2.09,1.695-3.787,3.787-3.787C22.542,23.282,24.238,24.979,24.238,27.069"/>
	<path clip-path="url(#SVGID_2_)" fill="#FFFFFF" d="M24.001,27.069c0,1.961-1.588,3.552-3.549,3.552s-3.551-1.591-3.551-3.552
		s1.59-3.549,3.551-3.549S24.001,25.108,24.001,27.069"/>
	<path clip-path="url(#SVGID_2_)" fill="#FFFFFF" d="M23.765,27.069c0,1.831-1.485,3.313-3.313,3.313
		c-1.832,0-3.316-1.481-3.316-3.313c0-1.828,1.484-3.313,3.316-3.313C22.28,23.756,23.765,25.241,23.765,27.069"/>
	<path clip-path="url(#SVGID_2_)" fill="#FFFFFF" d="M23.528,27.069c0,1.699-1.376,3.078-3.078,3.078
		c-1.698,0-3.075-1.379-3.075-3.078s1.377-3.077,3.075-3.077C22.152,23.992,23.528,25.37,23.528,27.069"/>
	<path clip-path="url(#SVGID_2_)" fill="#FFFFFF" d="M23.291,27.069c0,1.569-1.272,2.842-2.84,2.842
		c-1.569,0-2.839-1.272-2.839-2.842s1.27-2.84,2.839-2.84C22.019,24.229,23.291,25.5,23.291,27.069"/>
	<path clip-path="url(#SVGID_2_)" fill="#FFFFFF" d="M23.054,27.069c0,1.437-1.167,2.604-2.602,2.604
		c-1.44,0-2.604-1.167-2.604-2.604c0-1.438,1.164-2.603,2.604-2.603C21.887,24.467,23.054,25.632,23.054,27.069"/>
	<path clip-path="url(#SVGID_2_)" fill="#FFFFFF" d="M22.818,27.069c0,1.308-1.061,2.366-2.366,2.366
		c-1.308,0-2.368-1.059-2.368-2.366s1.06-2.366,2.368-2.366C21.757,24.703,22.818,25.762,22.818,27.069"/>
	<path clip-path="url(#SVGID_2_)" fill="#FFFFFF" d="M22.581,27.069c0,1.179-0.954,2.13-2.13,2.13c-1.176,0-2.131-0.951-2.131-2.13
		c0-1.176,0.955-2.13,2.131-2.13C21.627,24.939,22.581,25.894,22.581,27.069"/>
	<path clip-path="url(#SVGID_2_)" fill="#FFFFFF" d="M22.344,27.069c0,1.046-0.846,1.895-1.893,1.895
		c-1.046,0-1.894-0.849-1.894-1.895c0-1.044,0.848-1.894,1.894-1.894C21.498,25.176,22.344,26.025,22.344,27.069"/>
	<path clip-path="url(#SVGID_2_)" fill="#FFFFFF" d="M22.108,27.069c0,0.917-0.743,1.656-1.657,1.656
		c-0.914,0-1.656-0.739-1.656-1.656c0-0.914,0.742-1.656,1.656-1.656C21.365,25.413,22.108,26.155,22.108,27.069"/>
	<path clip-path="url(#SVGID_2_)" fill="#FFFFFF" d="M21.871,27.069c0,0.785-0.636,1.421-1.421,1.421s-1.418-0.636-1.418-1.421
		c0-0.784,0.633-1.421,1.418-1.421S21.871,26.285,21.871,27.069"/>
	<path clip-path="url(#SVGID_2_)" fill="#FFFFFF" d="M21.634,27.069c0,0.652-0.53,1.183-1.183,1.183
		c-0.653,0-1.183-0.53-1.183-1.183s0.53-1.183,1.183-1.183C21.104,25.887,21.634,26.417,21.634,27.069"/>
	<path clip-path="url(#SVGID_2_)" fill="#FFFFFF" d="M21.398,27.069c0,0.522-0.424,0.947-0.947,0.947
		c-0.523,0-0.948-0.425-0.948-0.947c0-0.523,0.425-0.945,0.948-0.945C20.974,26.124,21.398,26.546,21.398,27.069"/>
	<path clip-path="url(#SVGID_2_)" fill="#FFFFFF" d="M21.161,27.069c0,0.394-0.318,0.712-0.709,0.712
		c-0.394,0-0.712-0.318-0.712-0.712c0-0.393,0.318-0.709,0.712-0.709C20.843,26.36,21.161,26.677,21.161,27.069"/>
	<path clip-path="url(#SVGID_2_)" fill="#FFFFFF" d="M20.924,27.069c0,0.262-0.212,0.474-0.474,0.474
		c-0.261,0-0.473-0.212-0.473-0.474s0.212-0.474,0.473-0.474C20.712,26.596,20.924,26.808,20.924,27.069"/>
	<path clip-path="url(#SVGID_2_)" fill="#FFFFFF" d="M20.688,27.069c0,0.132-0.106,0.238-0.238,0.238
		c-0.13,0-0.236-0.106-0.236-0.238c0-0.13,0.106-0.235,0.236-0.235C20.582,26.834,20.688,26.939,20.688,27.069"/>
</g>
<polygon fill="#FFFFFF" points="0.001,0.013 0.274,0.376 0.274,0.013 "/>
<polygon fill="#FFFFFF" points="0.274,0.013 0.274,0.375 0.547,0.736 0.547,0.013 "/>
<polygon fill="#FFFFFF" points="0.548,0.013 0.548,0.735 0.821,1.099 0.821,0.013 "/>
<polygon fill="#FFFFFF" points="0.822,0.012 0.822,1.099 1.095,1.459 1.095,0.012 "/>
<polygon fill="#FFFFFF" points="1.095,0.012 1.095,1.461 1.371,1.823 1.371,0.012 "/>
<polygon fill="#FFFFFF" points="1.371,0.012 1.371,1.823 1.642,2.185 1.642,0.012 "/>
<polygon fill="#FFFFFF" points="1.643,0.012 1.643,2.185 1.916,2.545 1.916,0.012 "/>
<polygon fill="#FFFFFF" points="1.916,0.012 1.916,2.547 2.189,2.906 2.189,0.012 "/>
<polygon fill="#FFFFFF" points="2.19,0.011 2.19,2.906 2.463,3.271 2.463,0.011 "/>
<polygon fill="#FFFFFF" points="2.463,0.011 2.463,3.27 2.738,3.635 2.738,0.011 "/>
<polygon fill="#FFFFFF" points="2.739,0.011 2.739,3.635 3.012,3.995 3.012,0.011 "/>
<polygon fill="#FFFFFF" points="3.013,0.011 3.013,3.995 3.284,4.355 3.284,0.011 "/>
<polygon fill="#FFFFFF" points="3.284,0.01 3.284,4.355 3.557,4.716 3.557,0.01 "/>
<polygon fill="#FFFFFF" points="3.558,0.01 3.558,4.716 3.833,5.081 3.833,0.01 "/>
<polygon fill="#FFFFFF" points="3.833,0.01 3.833,5.081 4.106,5.443 4.106,0.01 "/>
<polygon fill="#FFFFFF" points="4.107,0.01 4.107,5.443 4.38,5.804 4.38,0.01 "/>
<polygon fill="#FFFFFF" points="4.38,0.009 4.38,5.807 4.653,6.167 4.653,0.009 "/>
<polygon fill="#FFFFFF" points="4.654,0.009 4.654,6.167 4.925,6.527 4.925,0.009 "/>
<polygon fill="#FFFFFF" points="4.926,0.009 4.926,6.527 5.201,6.89 5.201,0.009 "/>
<polygon fill="#FFFFFF" points="5.201,0.009 5.201,6.893 5.474,7.253 5.474,0.009 "/>
<polygon fill="#FFFFFF" points="5.475,0.009 5.475,7.253 5.748,7.614 5.748,0.009 "/>
<polygon fill="#FFFFFF" points="5.749,0.008 5.749,7.615 6.021,7.976 6.021,0.008 "/>
<polygon fill="#FFFFFF" points="6.022,0.008 6.022,7.976 6.295,8.338 6.295,0.008 "/>
<polygon fill="#FFFFFF" points="6.296,0.008 6.296,8.338 6.569,8.701 6.569,0.008 "/>
<polygon fill="#FFFFFF" points="6.569,0.008 6.569,8.701 6.842,9.062 6.842,0.008 "/>
<polygon fill="#FFFFFF" points="6.843,0.007 6.843,9.062 7.116,9.424 7.116,0.007 "/>
<polygon fill="#FFFFFF" points="7.117,0.007 7.117,9.424 7.39,9.787 7.39,0.007 "/>
<polygon fill="#FFFFFF" points="7.39,0.007 7.39,9.786 7.663,10.146 7.663,0.007 "/>
<polygon fill="#FFFFFF" points="7.664,0.007 7.664,10.146 7.937,10.51 7.937,0.007 "/>
<polygon fill="#FFFFFF" points="7.938,0.007 7.938,10.51 8.21,10.872 8.21,0.007 "/>
<polygon fill="#FFFFFF" points="8.211,0.007 8.211,10.872 8.484,11.232 8.484,0.007 "/>
<polygon fill="#FFFFFF" points="8.484,0.006 8.484,11.232 8.757,11.596 8.757,0.006 "/>
<polygon fill="#FFFFFF" points="8.758,0.006 8.758,11.596 9.031,11.956 9.031,0.006 "/>
<polygon fill="#FFFFFF" points="9.032,0.006 9.032,11.958 9.305,12.317 9.305,0.006 "/>
<polygon fill="#FFFFFF" points="9.305,0.006 9.305,12.317 9.581,12.684 9.581,0.006 "/>
<polygon fill="#FFFFFF" points="9.581,0.005 9.581,12.684 9.852,13.041 9.852,0.005 "/>
<polygon fill="#FFFFFF" points="9.853,0.005 9.853,13.044 10.125,13.404 10.125,0.005 "/>
<polygon fill="#FFFFFF" points="10.126,0.005 10.126,13.404 10.399,13.767 10.399,0.005 "/>
<polygon fill="#FFFFFF" points="10.399,0.005 10.399,13.767 10.672,14.127 10.672,0.005 "/>
<polygon fill="#FFFFFF" points="10.673,0.004 10.673,14.127 10.948,14.492 10.948,0.004 "/>
<polygon fill="#FFFFFF" points="10.949,0.004 10.949,14.492 11.222,14.854 11.222,0.004 "/>
<polygon fill="#FFFFFF" points="11.223,0.004 11.223,14.854 11.494,15.213 11.494,0.004 "/>
<polygon fill="#FFFFFF" points="11.494,0.004 11.494,15.213 11.767,15.575 11.767,0.004 "/>
<polygon fill="#FFFFFF" points="11.768,0.004 11.768,15.575 12.043,15.94 12.043,0.004 "/>
<polygon fill="#FFFFFF" points="12.043,0.003 12.043,15.939 12.316,16.301 12.316,0.003 "/>
<polygon fill="#FFFFFF" points="12.317,0.003 12.317,16.303 12.59,16.664 12.59,0.003 "/>
<polygon fill="#FFFFFF" points="12.59,0.003 12.59,16.663 12.863,17.025 12.863,0.003 "/>
<polygon fill="#FFFFFF" points="12.864,0.003 12.864,17.025 13.135,17.385 13.135,0.003 "/>
<polygon fill="#FFFFFF" points="13.136,0.002 13.136,17.384 13.411,17.749 13.411,0.002 "/>
<polygon fill="#FFFFFF" points="13.411,0.002 13.411,17.749 13.684,18.112 13.684,0.002 "/>
<polygon fill="#FFFFFF" points="13.685,0.002 13.685,18.111 13.958,18.473 13.958,0.002 "/>
<polygon fill="#FFFFFF" points="13.958,0.002 13.958,18.472 14.231,18.835 14.231,0.002 "/>
<polygon fill="#FFFFFF" points="14.232,0.001 14.232,18.835 14.505,19.197 14.505,0.001 "/>
<polygon fill="#FFFFFF" points="14.505,0.001 14.505,19.197 14.522,19.219 14.778,19.219 14.778,0.001 "/>
<rect x="14.779" y="0.001" fill="#FFFFFF" width="0.273" height="19.218"/>
<polygon fill="#FFFFFF" points="16.17,0 15.053,0 15.053,19.22 23.346,19.22 16.433,0 "/>
<polygon fill="#FFFFFF" points="8.864,19.833 42.623,69.351 42.623,19.833 "/>
<polygon fill="#FFFFFF" points="20.142,42.468 20.142,42.468 43.349,74.942 43.401,74.897 43.401,42.475 43.393,42.468 "/>
<polygon fill="#FFFFFF" points="20.141,42.469 20.558,43.053 20.558,42.469 "/>
<polygon fill="#FFFFFF" points="20.559,42.469 20.559,43.053 20.974,43.635 20.974,42.469 "/>
<polygon fill="#FFFFFF" points="20.974,42.469 20.974,43.635 21.391,44.219 21.391,42.469 "/>
<polygon fill="#FFFFFF" points="21.392,42.469 21.392,44.219 21.807,44.801 21.807,42.469 "/>
<polygon fill="#FFFFFF" points="21.808,42.469 21.808,44.801 22.223,45.384 22.223,42.469 "/>
<polygon fill="#FFFFFF" points="22.224,42.469 22.224,45.384 22.641,45.968 22.641,42.469 "/>
<polygon fill="#FFFFFF" points="22.641,42.469 22.641,45.968 23.056,46.55 23.056,42.469 "/>
<polygon fill="#FFFFFF" points="23.057,42.469 23.057,46.55 23.474,47.134 23.474,42.469 "/>
<polygon fill="#FFFFFF" points="23.475,42.469 23.475,47.134 23.89,47.716 23.89,42.469 "/>
<polygon fill="#FFFFFF" points="23.891,42.469 23.891,47.716 24.306,48.296 24.306,42.469 "/>
<polygon fill="#FFFFFF" points="24.306,42.469 24.306,48.296 24.723,48.881 24.723,42.469 "/>
<polygon fill="#FFFFFF" points="24.724,42.469 24.724,48.881 25.139,49.463 25.139,42.469 "/>
<polygon fill="#FFFFFF" points="25.14,42.469 25.14,49.463 25.557,50.047 25.557,42.469 "/>
<polygon fill="#FFFFFF" points="25.558,42.469 25.558,50.047 25.973,50.629 25.973,42.469 "/>
<polygon fill="#FFFFFF" points="25.973,42.469 25.973,50.629 26.388,51.211 26.388,42.469 "/>
<polygon fill="#FFFFFF" points="26.389,42.469 26.389,51.211 26.806,51.795 26.806,42.469 "/>
<polygon fill="#FFFFFF" points="26.807,42.469 26.807,51.795 27.222,52.378 27.222,42.469 "/>
<polygon fill="#FFFFFF" points="27.222,42.469 27.222,52.378 27.639,52.962 27.639,42.469 "/>
<polygon fill="#FFFFFF" points="27.64,42.469 27.64,52.962 28.055,53.544 28.055,42.469 "/>
<polygon fill="#FFFFFF" points="28.056,42.469 28.056,53.544 28.471,54.126 28.471,42.469 "/>
<polygon fill="#FFFFFF" points="28.472,42.469 28.472,54.126 28.889,54.71 28.889,42.469 "/>
<polygon fill="#FFFFFF" points="28.889,42.469 28.889,54.71 29.304,55.293 29.304,42.469 "/>
<polygon fill="#FFFFFF" points="29.305,42.469 29.305,55.293 29.722,55.877 29.722,42.469 "/>
<polygon fill="#FFFFFF" points="29.723,42.469 29.723,55.877 30.138,56.459 30.138,42.469 "/>
<polygon fill="#FFFFFF" points="30.139,42.469 30.139,56.459 30.554,57.039 30.554,42.469 "/>
<polygon fill="#FFFFFF" points="30.554,42.469 30.554,57.039 30.971,57.625 30.971,42.469 "/>
<polygon fill="#FFFFFF" points="30.972,42.469 30.972,57.625 31.387,58.205 31.387,42.469 "/>
<polygon fill="#FFFFFF" points="31.388,42.469 31.388,58.205 31.805,58.79 31.805,42.469 "/>
<polygon fill="#FFFFFF" points="31.806,42.469 31.806,58.79 32.221,59.372 32.221,42.848 32.091,42.469 "/>
<polygon fill="#FFFFFF" points="32.221,59.372 32.636,59.954 32.636,44.043 32.221,42.846 "/>
<polygon fill="#FFFFFF" points="32.637,59.954 33.054,60.538 33.054,45.244 32.637,44.043 "/>
<polygon fill="#FFFFFF" points="33.055,60.538 33.47,61.121 33.47,46.441 33.055,45.245 "/>
<polygon fill="#FFFFFF" points="33.47,61.12 33.887,61.705 33.887,47.643 33.47,46.441 "/>
<polygon fill="#FFFFFF" points="33.888,61.705 34.303,62.287 34.303,48.841 33.888,47.643 "/>
<polygon fill="#FFFFFF" points="34.304,62.287 34.719,62.869 34.719,50.035 34.304,48.84 "/>
<polygon fill="#FFFFFF" points="34.72,62.868 35.137,63.453 35.137,51.239 34.72,50.037 "/>
<polygon fill="#FFFFFF" points="35.137,63.453 43.399,75.014 35.137,51.239 "/>
<polygon fill="#FFFFFF" points="20.14,42.468 43.4,75.016 32.09,42.468 "/>
<g>
	<defs>
		<polygon id="SVGID_64_" points="20.139,42.468 43.4,75.016 32.088,42.468 		"/>
	</defs>
	<clipPath id="SVGID_4_">
		<use xlink:href="#SVGID_64_"  overflow="visible"/>
	</clipPath>
	<path clip-path="url(#SVGID_4_)" fill="#FFFFFF" d="M43.399,75.016V42.468V75.016z"/>
</g>
<polygon fill="#FFFFFF" points="8.864,19.832 9.272,20.429 9.272,19.832 "/>
<polygon fill="#FFFFFF" points="9.271,19.832 9.271,20.429 9.682,21.029 9.682,19.832 "/>
<polygon fill="#FFFFFF" points="9.681,19.832 9.681,21.029 10.088,21.628 10.088,19.832 "/>
<polygon fill="#FFFFFF" points="10.088,19.832 10.088,21.628 10.498,22.228 10.498,19.832 "/>
<polygon fill="#FFFFFF" points="10.497,19.832 10.497,22.228 10.905,22.825 10.905,19.832 "/>
<polygon fill="#FFFFFF" points="10.904,19.832 10.904,22.825 11.314,23.426 11.314,19.832 "/>
<polygon fill="#FFFFFF" points="11.313,19.832 11.313,23.426 11.722,24.021 11.722,19.832 "/>
<polygon fill="#FFFFFF" points="11.721,19.832 11.721,24.021 12.131,24.623 12.131,19.832 "/>
<polygon fill="#FFFFFF" points="12.13,19.832 12.13,24.623 12.538,25.222 12.538,19.832 "/>
<polygon fill="#FFFFFF" points="12.538,19.832 12.538,25.222 12.946,25.817 12.946,19.832 "/>
<polygon fill="#FFFFFF" points="12.945,19.832 12.945,25.817 13.355,26.419 13.355,19.832 "/>
<polygon fill="#FFFFFF" points="13.354,19.832 13.354,26.419 13.764,27.019 13.764,19.832 "/>
<polygon fill="#FFFFFF" points="13.763,19.832 13.763,27.019 14.171,27.616 14.171,19.832 "/>
<polygon fill="#FFFFFF" points="14.17,19.832 14.17,27.616 14.579,28.215 14.579,19.832 "/>
<polygon fill="#FFFFFF" points="14.578,19.832 14.578,28.215 14.988,28.812 14.988,19.832 "/>
<polygon fill="#FFFFFF" points="14.987,19.832 14.987,28.812 15.395,29.411 15.395,19.832 "/>
<polygon fill="#FFFFFF" points="15.394,19.832 15.394,29.411 15.804,30.013 15.804,19.832 "/>
<polygon fill="#FFFFFF" points="15.804,19.832 15.804,30.013 16.212,30.608 16.212,19.832 "/>
<polygon fill="#FFFFFF" points="16.211,19.832 16.211,30.608 16.621,31.21 16.621,19.832 "/>
<polygon fill="#FFFFFF" points="16.62,19.832 16.62,31.21 17.028,31.808 17.028,19.832 "/>
<polygon fill="#FFFFFF" points="17.027,19.832 17.027,31.808 17.436,32.404 17.436,19.832 "/>
<polygon fill="#FFFFFF" points="17.435,19.832 17.435,32.404 17.845,33.005 17.845,19.832 "/>
<polygon fill="#FFFFFF" points="17.844,19.832 17.844,33.005 18.254,33.605 18.254,19.832 "/>
<polygon fill="#FFFFFF" points="18.253,19.832 18.253,33.605 18.661,34.202 18.661,19.832 "/>
<polygon fill="#FFFFFF" points="18.66,19.832 18.66,34.202 19.068,34.801 19.068,19.832 "/>
<polygon fill="#FFFFFF" points="19.067,19.832 19.067,34.801 19.478,35.399 19.478,19.832 "/>
<polygon fill="#FFFFFF" points="19.477,19.832 19.477,35.399 19.885,35.998 19.885,19.832 "/>
<polygon fill="#FFFFFF" points="19.884,19.832 19.884,35.998 20.294,36.599 20.294,19.832 "/>
<polygon fill="#FFFFFF" points="20.293,19.832 20.293,36.599 20.702,37.195 20.702,19.832 "/>
<polygon fill="#FFFFFF" points="20.701,19.832 20.701,37.195 21.111,37.796 21.111,19.832 "/>
<polygon fill="#FFFFFF" points="21.11,19.832 21.11,37.796 21.518,38.393 21.518,19.832 "/>
<polygon fill="#FFFFFF" points="21.517,19.832 21.517,38.393 21.925,38.991 21.925,19.832 "/>
<polygon fill="#FFFFFF" points="21.924,19.832 21.924,38.991 22.334,39.592 22.334,19.832 "/>
<polygon fill="#FFFFFF" points="22.333,19.832 22.333,39.592 22.744,40.192 22.744,19.832 "/>
<polygon fill="#FFFFFF" points="22.743,19.832 22.743,40.192 23.151,40.789 23.151,19.832 "/>
<polygon fill="#FFFFFF" points="23.15,19.832 23.15,40.789 23.559,41.388 23.559,19.832 "/>
<polygon fill="#FFFFFF" points="23.558,19.832 23.558,41.388 23.898,41.887 31.655,41.887 23.564,19.832 "/>
<polygon fill="#FFFFFF" points="0.196,0.013 17.069,1.769 40.9,0.013 "/>
<polygon fill="#FFFFFF" points="0.196,0.013 17.069,1.768 40.9,0.013 "/>
<g>
	<defs>
		<polygon id="SVGID_66_" points="0.197,0.013 17.068,1.768 40.901,0.013 		"/>
	</defs>
	<clipPath id="SVGID_6_">
		<use xlink:href="#SVGID_66_"  overflow="visible"/>
	</clipPath>
	<path clip-path="url(#SVGID_6_)" fill="#FFFFFF" d="M34.961,0.89c0,6.382-6.452,11.552-14.413,11.552
		c-7.96,0-14.41-5.17-14.41-11.552c0-6.379,6.45-11.552,14.41-11.552C28.509-10.662,34.961-5.489,34.961,0.89"/>
	<path clip-path="url(#SVGID_6_)" fill="#FFFFFF" d="M27.754,0.89c0,3.189-3.226,5.775-7.206,5.775
		c-3.981,0-7.207-2.586-7.207-5.775c0-3.19,3.226-5.775,7.207-5.775C24.528-4.886,27.754-2.301,27.754,0.89"/>
</g>
<polygon fill="#FFFFFF" points="213.259,67.72 210.492,67.72 210.492,64.242 207.75,64.242 207.75,67.72 205.002,67.722 
	205.002,58.529 207.75,58.526 207.75,61.81 210.492,61.81 210.492,58.526 213.259,58.526 "/>
<path fill="#FFFFFF" d="M217.038,59.57c0,0.392-0.128,0.719-0.387,0.979c-0.259,0.259-0.568,0.389-0.94,0.389
	c-0.405,0-0.74-0.128-1.002-0.382c-0.264-0.257-0.395-0.573-0.395-0.95s0.131-0.699,0.395-0.976
	c0.262-0.271,0.587-0.407,0.971-0.407c0.38,0,0.7,0.125,0.964,0.384C216.91,58.861,217.038,59.18,217.038,59.57 M216.882,67.72
	h-2.528v-5.873l2.528-0.007V67.72z"/>
<path fill="#FFFFFF" d="M225.057,67.165c0,0.921-0.33,1.651-0.985,2.203c-0.705,0.579-1.711,0.867-3.017,0.867
	c-0.57,0-1.105-0.057-1.6-0.165c-0.497-0.108-0.966-0.29-1.418-0.548l0.933-1.66c0.243,0.177,0.521,0.318,0.86,0.419
	c0.337,0.1,0.681,0.146,1.039,0.146c0.62,0,1.082-0.102,1.367-0.299c0.283-0.203,0.427-0.486,0.427-0.847v-0.525
	c-0.186,0.266-0.445,0.477-0.771,0.64c-0.325,0.162-0.707,0.242-1.129,0.242c-0.872,0-1.574-0.293-2.116-0.882
	c-0.534-0.587-0.801-1.36-0.801-2.319c0-1.013,0.292-1.834,0.891-2.448c0.554-0.572,1.23-0.857,2.026-0.857
	c0.783,0,1.419,0.266,1.9,0.789v-0.624h2.394V67.165z M222.531,64.374c0-0.454-0.085-0.784-0.257-0.996
	c-0.17-0.2-0.417-0.307-0.738-0.307c-0.325,0-0.587,0.132-0.787,0.394c-0.197,0.263-0.299,0.62-0.299,1.054
	c0,0.447,0.12,0.784,0.368,1.001c0.205,0.182,0.459,0.278,0.749,0.278c0.351,0,0.608-0.139,0.763-0.412
	C222.465,65.161,222.531,64.824,222.531,64.374"/>
<path fill="#FFFFFF" d="M233.144,67.72h-2.531v-3.563c0-0.584-0.264-0.878-0.799-0.878c-0.288,0-0.506,0.083-0.669,0.248
	c-0.156,0.162-0.241,0.389-0.241,0.688v3.505h-2.528v-9.457h2.528v3.676c0.173-0.19,0.328-0.332,0.476-0.426
	c0.441-0.297,0.964-0.445,1.554-0.445c0.636,0,1.168,0.212,1.583,0.638c0.422,0.425,0.627,0.962,0.627,1.612V67.72z"/>
<path fill="#FFFFFF" d="M284.78,65.19l-4.098,0.12c0.047,0.118,0.091,0.205,0.127,0.267c0.106,0.198,0.238,0.335,0.394,0.415
	c0.223,0.113,0.984,0.612,1.899-0.083l1.435,0.797c-0.775,1.181-2.114,1.219-2.632,1.242c-0.521,0.016-1.167-0.123-1.61-0.363
	c-0.806-0.422-1.279-0.989-1.661-1.911c-0.219-0.523-0.229-2.002,0.111-2.691c0.412-0.822,0.822-1.277,1.562-1.654
	c0.643-0.317,2.168-0.281,2.663-0.009c0.667,0.365,1.155,0.862,1.466,1.531c0.23,0.48,0.351,1.014,0.381,1.596
	C284.801,64.693,284.791,64.945,284.78,65.19 M283.104,63.939c-0.049-0.437-0.294-0.759-0.719-0.989
	c-0.339-0.177-0.671-0.182-0.994-0.021c-0.325,0.165-0.552,0.391-0.681,0.679c-0.028,0.064-0.059,0.17-0.083,0.294
	c-0.006,0.015-0.014,0.048-0.023,0.108L283.104,63.939z"/>
<polygon fill="#FFFFFF" points="246.286,58.525 243.072,67.719 240.651,67.719 237.447,58.525 240.241,58.525 241.863,64.4 
	243.479,58.525 "/>
<path fill="#FFFFFF" d="M252.778,64.493c0,0.977-0.323,1.801-0.988,2.484c-0.669,0.681-1.522,1.017-2.563,1.017
	c-0.974,0-1.794-0.348-2.486-1.043c-0.677-0.69-1.021-1.503-1.021-2.437c0-0.954,0.349-1.774,1.056-2.458
	c0.695-0.688,1.527-1.027,2.472-1.027c0.966,0,1.796,0.339,2.493,1.027C252.432,62.74,252.778,63.554,252.778,64.493
	 M250.412,64.515c0-0.396-0.115-0.711-0.33-0.959c-0.221-0.242-0.497-0.367-0.834-0.367c-0.306,0-0.573,0.132-0.801,0.387
	c-0.224,0.264-0.342,0.577-0.342,0.951c0,0.401,0.101,0.718,0.316,0.955c0.21,0.237,0.481,0.355,0.806,0.355
	c0.368,0,0.657-0.12,0.865-0.367C250.301,65.227,250.412,64.908,250.412,64.515"/>
<polygon fill="#FFFFFF" points="256.327,67.72 253.803,67.72 253.803,58.223 256.327,58.234 "/>
<polygon fill="#FFFFFF" points="262.179,61.279 262.179,63.254 261.127,63.256 261.127,67.72 258.602,67.72 258.602,63.256 
	257.563,63.256 257.563,61.279 258.602,61.279 258.602,58.563 261.127,58.563 261.127,61.296 "/>
<path fill="#FFFFFF" d="M269.814,67.72h-2.406v-0.684c-0.198,0.273-0.464,0.483-0.794,0.629c-0.332,0.151-0.724,0.227-1.181,0.227
	c-0.947,0-1.682-0.342-2.201-1.029c-0.459-0.615-0.699-1.42-0.699-2.409c0-0.959,0.287-1.746,0.855-2.377
	c0.565-0.627,1.244-0.945,2.036-0.945c0.41,0,0.789,0.078,1.143,0.222c0.353,0.146,0.629,0.342,0.841,0.587v-0.644h2.406V67.72z
	 M267.262,64.421c0-0.427-0.087-0.752-0.266-0.988c-0.179-0.23-0.422-0.351-0.719-0.351c-0.325,0-0.596,0.12-0.808,0.351
	c-0.215,0.236-0.326,0.58-0.326,1.047c0,0.377,0.097,0.695,0.281,0.949c0.193,0.257,0.464,0.382,0.813,0.382
	C266.923,65.811,267.262,65.344,267.262,64.421"/>
<path fill="#FFFFFF" d="M278.038,67.165c0,0.921-0.328,1.651-0.983,2.203c-0.705,0.579-1.713,0.867-3.023,0.867
	c-0.571,0-1.101-0.057-1.598-0.165s-0.964-0.29-1.416-0.548l0.937-1.66c0.239,0.177,0.519,0.318,0.858,0.419
	c0.33,0.1,0.677,0.146,1.037,0.146c0.627,0,1.075-0.102,1.365-0.299c0.285-0.203,0.426-0.486,0.426-0.847v-0.525
	c-0.184,0.266-0.44,0.477-0.766,0.64c-0.334,0.162-0.709,0.242-1.129,0.242c-0.874,0-1.576-0.293-2.116-0.882
	c-0.534-0.587-0.81-1.36-0.81-2.319c0-1.013,0.301-1.834,0.898-2.448c0.551-0.572,1.232-0.857,2.028-0.857
	c0.783,0,1.412,0.266,1.895,0.789v-0.624h2.397V67.165z M275.514,64.374c0-0.454-0.09-0.784-0.259-0.996
	c-0.17-0.2-0.417-0.307-0.74-0.307c-0.325,0-0.587,0.132-0.787,0.394c-0.198,0.263-0.299,0.615-0.299,1.054
	c0,0.447,0.122,0.784,0.367,1.001c0.205,0.182,0.455,0.278,0.745,0.278c0.358,0,0.612-0.139,0.775-0.412
	C275.448,65.161,275.514,64.824,275.514,64.374"/>
<polygon fill="#FFFFFF" points="295.505,58.525 295.505,60.922 293.16,60.922 293.16,67.719 290.396,67.719 290.396,60.922 
	288.629,60.922 288.629,58.525 "/>
<path fill="#FFFFFF" d="M300.995,61.297l-0.735,2.392c-0.074-0.055-0.128-0.085-0.175-0.121c-0.155-0.074-0.327-0.112-0.513-0.112
	c-0.839,0-1.264,0.521-1.264,1.574v2.691h-2.526v-6.736h2.385v1.078c0.217-0.283,0.495-0.514,0.844-0.686
	c0.351-0.17,0.713-0.257,1.121-0.257c0.168,0,0.361,0.028,0.573,0.082C300.78,61.216,300.876,61.247,300.995,61.297"/>
<path fill="#FFFFFF" d="M308.297,67.721h-2.401v-0.686c-0.205,0.269-0.469,0.483-0.797,0.632c-0.329,0.15-0.721,0.224-1.18,0.224
	c-0.948,0-1.685-0.339-2.201-1.029c-0.465-0.615-0.695-1.419-0.695-2.409c0-0.956,0.285-1.746,0.848-2.375
	c0.568-0.629,1.244-0.947,2.036-0.947c0.41,0,0.796,0.078,1.14,0.222c0.359,0.148,0.639,0.342,0.849,0.586v-0.641h2.401V67.721z
	 M305.752,64.415c0-0.42-0.092-0.747-0.271-0.985c-0.181-0.229-0.422-0.347-0.719-0.347c-0.327,0-0.596,0.118-0.81,0.347
	c-0.217,0.238-0.323,0.582-0.323,1.05c0,0.375,0.097,0.696,0.283,0.948c0.191,0.257,0.464,0.38,0.81,0.38
	C305.408,65.808,305.752,65.344,305.752,64.415"/>
<path fill="#FFFFFF" d="M316.273,67.72h-2.529v-3.554c0-0.625-0.247-0.938-0.735-0.938c-0.247,0-0.455,0.073-0.62,0.21
	c-0.221,0.188-0.327,0.479-0.327,0.874v3.408h-2.56v-6.735h2.383v0.99c0.212-0.29,0.511-0.505,0.893-0.667
	c0.379-0.158,0.78-0.24,1.19-0.24c0.719,0,1.284,0.212,1.692,0.641c0.408,0.424,0.613,0.999,0.613,1.708V67.72z"/>
<path fill="#FFFFFF" d="M328.223,58.536l-0.492,1.898c-0.066-0.034-0.116-0.059-0.149-0.079c-0.12-0.052-0.238-0.078-0.346-0.078
	c-0.346,0-0.528,0.2-0.528,0.608v0.41h1.289l-0.012,1.958h-1.277v4.466h-2.528v-4.466h-1.16v-1.958h1.16v-0.703
	c0-0.631,0.192-1.156,0.582-1.578c0.431-0.485,1.044-0.727,1.823-0.727c0.391,0,0.839,0.055,1.334,0.175
	C328.002,58.478,328.1,58.503,328.223,58.536"/>
<path fill="#FFFFFF" d="M335.202,64.508c0,0.971-0.332,1.798-0.993,2.477c-0.667,0.684-1.515,1.027-2.565,1.027
	c-0.969,0-1.787-0.347-2.473-1.044c-0.685-0.695-1.032-1.506-1.032-2.435c0-0.959,0.354-1.779,1.056-2.465
	c0.704-0.686,1.527-1.027,2.479-1.027c0.964,0,1.793,0.342,2.484,1.027C334.853,62.754,335.202,63.564,335.202,64.508
	 M332.831,64.526c0-0.396-0.108-0.714-0.33-0.962c-0.224-0.237-0.492-0.36-0.827-0.36c-0.314,0-0.577,0.127-0.806,0.387
	c-0.233,0.259-0.344,0.572-0.344,0.942c0,0.408,0.106,0.726,0.321,0.959c0.207,0.238,0.475,0.358,0.799,0.358
	c0.372,0,0.657-0.122,0.871-0.37C332.727,65.235,332.831,64.92,332.831,64.526"/>
<path fill="#FFFFFF" d="M341.096,61.297l-0.738,2.392c-0.068-0.055-0.127-0.085-0.172-0.121c-0.155-0.074-0.327-0.112-0.513-0.112
	c-0.842,0-1.261,0.521-1.261,1.574v2.691h-2.531v-6.736h2.382v1.078c0.224-0.283,0.502-0.514,0.846-0.686
	c0.349-0.17,0.719-0.257,1.117-0.257c0.175,0,0.375,0.028,0.582,0.082C340.876,61.216,340.969,61.247,341.096,61.297"/>
<path fill="#FFFFFF" d="M352.017,67.72h-2.449v-3.71c0-0.577-0.221-0.855-0.659-0.855c-0.229,0-0.42,0.06-0.566,0.18
	c-0.177,0.159-0.264,0.394-0.264,0.712v3.674h-2.462v-3.625c0-0.327-0.059-0.563-0.187-0.716c-0.134-0.156-0.311-0.225-0.551-0.225
	c-0.236,0-0.42,0.068-0.547,0.212c-0.122,0.145-0.186,0.383-0.186,0.72v3.634h-2.467v-6.735h2.467v1.046
	c0.198-0.288,0.467-0.511,0.801-0.681c0.33-0.17,0.681-0.255,1.037-0.255c0.424,0,0.797,0.113,1.124,0.345
	c0.26,0.178,0.507,0.442,0.738,0.787c0.195-0.332,0.478-0.609,0.862-0.815c0.38-0.211,0.797-0.316,1.242-0.316
	c0.622,0,1.124,0.203,1.504,0.605c0.375,0.406,0.563,0.953,0.563,1.65V67.72z"/>
<path fill="#FFFFFF" d="M364.752,61.297l-0.735,2.394c-0.071-0.057-0.125-0.087-0.165-0.123c-0.163-0.074-0.335-0.112-0.517-0.112
	c-0.848,0-1.27,0.521-1.27,1.574v2.691h-2.528v-6.736h2.387v1.078c0.219-0.283,0.502-0.514,0.853-0.686
	c0.342-0.17,0.714-0.257,1.115-0.257c0.172,0,0.365,0.028,0.572,0.082C364.537,61.216,364.631,61.247,364.752,61.297"/>
<path fill="#FFFFFF" d="M370.286,65.702c0,0.622-0.231,1.144-0.688,1.553c-0.535,0.483-1.272,0.729-2.227,0.729
	c-0.714,0-1.407-0.113-2.076-0.325c-0.219-0.078-0.488-0.188-0.806-0.347l0.566-1.748c0.219,0.153,0.403,0.267,0.544,0.347
	c0.434,0.229,0.851,0.344,1.24,0.344c0.544,0,0.817-0.165,0.817-0.504c0-0.21-0.497-0.458-1.477-0.747
	c-0.983-0.283-1.478-0.872-1.478-1.747c0-0.569,0.243-1.075,0.731-1.503c0.542-0.48,1.265-0.724,2.167-0.724
	c0.599,0,1.181,0.095,1.754,0.288c0.182,0.059,0.41,0.162,0.686,0.289l-0.542,1.609c-0.219-0.134-0.398-0.232-0.542-0.289
	c-0.427-0.193-0.792-0.295-1.086-0.295c-0.427,0-0.635,0.163-0.635,0.492c0,0.236,0.253,0.43,0.781,0.58
	c0.772,0.224,1.263,0.4,1.463,0.525C370.017,64.559,370.286,65.055,370.286,65.702"/>
<path fill="#FFFFFF" d="M359.009,65.023l-4.101,0.115c0.048,0.12,0.092,0.207,0.123,0.267c0.113,0.2,0.242,0.332,0.397,0.417
	c0.219,0.112,0.985,0.617,1.897-0.085l1.435,0.8c-0.763,1.18-2.107,1.222-2.632,1.236c-0.521,0.017-1.159-0.116-1.609-0.358
	c-0.807-0.427-1.273-0.987-1.66-1.911c-0.221-0.521-0.231-2.003,0.114-2.688c0.405-0.825,0.819-1.282,1.562-1.657
	c0.643-0.322,2.163-0.282,2.665-0.01c0.655,0.366,1.15,0.86,1.464,1.53c0.226,0.48,0.355,1.013,0.37,1.593
	C359.03,64.525,359.021,64.778,359.009,65.023 M357.333,63.767c-0.056-0.434-0.294-0.759-0.726-0.984
	c-0.33-0.182-0.669-0.188-0.989-0.021c-0.326,0.16-0.556,0.382-0.679,0.669c-0.031,0.073-0.059,0.172-0.085,0.297
	c-0.004,0.019-0.016,0.052-0.021,0.111L357.333,63.767z"/>
<path fill="#FFFFFF" d="M322.619,65.708c0,0.622-0.229,1.143-0.686,1.556c-0.53,0.479-1.272,0.721-2.224,0.721
	c-0.719,0-1.409-0.108-2.081-0.325c-0.219-0.068-0.488-0.187-0.801-0.342l0.563-1.756c0.217,0.158,0.4,0.276,0.542,0.352
	c0.438,0.232,0.851,0.347,1.242,0.347c0.544,0,0.82-0.165,0.82-0.51c0-0.202-0.498-0.452-1.485-0.739
	c-0.978-0.288-1.473-0.872-1.473-1.751c0-0.568,0.246-1.073,0.726-1.499c0.542-0.488,1.268-0.726,2.17-0.726
	c0.602,0,1.184,0.094,1.754,0.29c0.183,0.059,0.41,0.156,0.685,0.287l-0.539,1.609c-0.222-0.134-0.401-0.233-0.542-0.29
	c-0.429-0.192-0.79-0.294-1.089-0.294c-0.419,0-0.634,0.165-0.634,0.492c0,0.238,0.26,0.425,0.782,0.575
	c0.773,0.23,1.266,0.405,1.464,0.53C322.353,64.567,322.619,65.06,322.619,65.708"/>
<g>
	<defs>
		<rect id="SVGID_140_" x="574.706" y="-4883.276" width="1920" height="5337.103"/>
	</defs>
	<clipPath id="SVGID_7_">
		<use xlink:href="#SVGID_140_"  overflow="visible"/>
	</clipPath>
</g>
<g>
	<defs>
		<rect id="SVGID_142_" x="574.706" y="-4883.276" width="1920" height="5337.103"/>
	</defs>
	<clipPath id="SVGID_8_">
		<use xlink:href="#SVGID_142_"  overflow="visible"/>
	</clipPath>
</g>
<g>
	<defs>
		<rect id="SVGID_150_" x="574.706" y="-4883.276" width="1920" height="5337.103"/>
	</defs>
	<clipPath id="SVGID_9_">
		<use xlink:href="#SVGID_150_"  overflow="visible"/>
	</clipPath>
	<g clip-path="url(#SVGID_9_)">
		<defs>
			<rect id="SVGID_152_" x="-1267.794" y="-572.276" width="851" height="384"/>
		</defs>
		<clipPath id="SVGID_11_">
			<use xlink:href="#SVGID_152_"  overflow="visible"/>
		</clipPath>
		<g clip-path="url(#SVGID_11_)">
			<defs>
				<rect id="SVGID_154_" x="-1578.294" y="-1620.276" width="2640.407" height="1760.272"/>
			</defs>
			<clipPath id="SVGID_13_">
				<use xlink:href="#SVGID_154_"  overflow="visible"/>
			</clipPath>
			<g clip-path="url(#SVGID_13_)">
				<defs>
					<rect id="SVGID_156_" x="-1578.294" y="-1620.275" width="2640.407" height="1760.271"/>
				</defs>
				<clipPath id="SVGID_15_">
					<use xlink:href="#SVGID_156_"  overflow="visible"/>
				</clipPath>
			</g>
		</g>
	</g>
</g>
</svg>
