<?xml version="1.0" encoding="UTF-8" standalone="no"?><svg id="svg2" xmlns="http://www.w3.org/2000/svg" xml:space="preserve" height="170.72" width="400" version="1.0" viewBox="0 0 242.5 242.5"><path id="red" d="m509.83 1191.1c-36.91 37.9-82.56 56.3-137.93 56.3-53.43 0-99.08-19.4-136.97-58.2-37.88-37-56.34-82.6-56.34-136 0-54.43 18.46-100.09 56.34-137 37.89-38.86 83.54-58.28 136.97-58.28v-62.17c-70.91 0-131.14 25.25-181.65 75.77-50.51 51.48-75.77 111.71-75.77 181.68 0 70.9 25.26 131.1 75.77 182.6 50.51 50.5 110.74 75.8 181.65 75.8s131.13-25.3 181.65-75.8c51.48-51.5 76.73-111.7 76.73-182.6h-64.11c0 53.4-18.45 100-56.34 137.9" fill-rule="evenodd" transform="matrix(.30371 0 0 -.30371 -172.25 424.29)" fill="#ed1c24"/><path id="Holcim" d="m87.528 142.79v-16.27h7.649v40.43h-7.649v-17.48h-16.999v17.48h-8.014v-40.43h8.014v16.27h16.999m35.092 9.23c0 6.19-2.19 9.22-6.44 9.22-4.49 0-6.8-3.03-6.8-9.22 0-5.95 2.31-8.99 6.8-8.99 4.25 0 6.44 3.04 6.44 8.99zm8.01-0.49c0-9.83-4.61-14.81-13.96-14.81-4.49 0-8.14 1.45-10.93 4.49s-4.25 6.8-4.25 11.54c0 9.95 4.62 14.93 13.97 14.93 4.49 0 8.13-1.46 10.92-4.49 2.8-3.04 4.25-6.92 4.25-11.66m6.32 15.42h7.52v-43.71h-7.52v43.71zm13.72-13.72c0-11.05 5.1-16.51 15.42-16.51l6.07 0.73c-0.12 2.3-0.36 4.61-0.73 6.8l-5.34-0.98c-4.98 0-7.41 3.04-7.41 9.23 0 5.71 2.43 8.5 7.16 8.5 2.07-0.36 4.01-0.73 5.83-1.33l0.49 6.55c-2.67 0.97-5.34 1.46-8.02 1.46-8.98 0-13.47-4.86-13.47-14.45m31.45-19.67c-3.16 0-4.74-1.58-4.74-4.73 0-3.28 1.58-4.86 4.74-4.86 3.15 0 4.73 1.58 4.73 4.86 0 3.15-1.58 4.73-4.73 4.73zm-3.77 4.25h7.53v29.14h-7.53v-29.14m41.41 14.94v14.2h-7.65v-18.7c0-3.52-1.22-5.22-3.53-5.22-1.82 0-3.4 0.85-4.73 2.67-1.33 2.07-2.06 4.37-2.06 7.05v14.2h-7.65v-29.14h7.16l-0.24 4.98c1.82-4.01 5.1-6.07 9.71-6.07 4.49 0 7.29 2.06 8.26 6.07 2.06-4.01 5.22-6.07 9.71-6.07 5.95 0 8.99 3.28 8.99 9.83v20.4h-7.65v-18.7c0-3.52-1.22-5.22-3.52-5.22-1.7 0-3.16 0.85-4.5 2.67-1.58 1.82-2.3 4.25-2.3 7.05" fill-rule="evenodd" transform="matrix(2.4297 0 0 2.4297 -172.25 -164.9)" fill="#918f90"/><path id="black" d="m34.345 106.36l-22.706-23.068-7.7708 7.528 22.949 22.95 7.528-7.41m15.178-15.54l-22.949-22.949-7.528 7.771 22.949 22.949 7.528-7.771" fill-rule="evenodd" transform="matrix(2.4297 0 0 2.4297 -172.25 -164.9)" fill="#231f20"/></svg>
