<?xml version="1.0" encoding="utf-8"?>
<!-- Generator: Adobe Illustrator 16.0.0, SVG Export Plug-In . SVG Version: 6.00 Build 0)  -->
<!DOCTYPE svg PUBLIC "-//W3C//DTD SVG 1.1//EN" "http://www.w3.org/Graphics/SVG/1.1/DTD/svg11.dtd">
<svg version="1.1" id="Capa_1" xmlns="http://www.w3.org/2000/svg" xmlns:xlink="http://www.w3.org/1999/xlink" x="0px" y="0px"
	 width="131.506px" height="131.506px" viewBox="0 0 131.506 131.506" enable-background="new 0 0 131.506 131.506"
	 xml:space="preserve">
<g>
	<defs>
		<rect id="SVGID_1_" x="-489.862" y="-1057.378" width="1920" height="5337.1"/>
	</defs>
	<clipPath id="SVGID_2_">
		<use xlink:href="#SVGID_1_"  overflow="visible"/>
	</clipPath>
	<g clip-path="url(#SVGID_2_)">
		<defs>
			<rect id="SVGID_34_" x="-489.862" y="-1057.381" width="1920" height="5337.103"/>
		</defs>
		<clipPath id="SVGID_4_">
			<use xlink:href="#SVGID_34_"  overflow="visible"/>
		</clipPath>
	</g>
	<g clip-path="url(#SVGID_2_)">
		<defs>
			<rect id="SVGID_38_" x="-489.862" y="-1057.381" width="1920" height="5337.103"/>
		</defs>
		<clipPath id="SVGID_6_">
			<use xlink:href="#SVGID_38_"  overflow="visible"/>
		</clipPath>
	</g>
	<g clip-path="url(#SVGID_2_)">
		<defs>
			<rect id="SVGID_48_" x="-489.862" y="-1057.381" width="1920" height="5337.103"/>
		</defs>
		<clipPath id="SVGID_8_">
			<use xlink:href="#SVGID_48_"  overflow="visible"/>
		</clipPath>
	</g>
	<g clip-path="url(#SVGID_2_)">
		<defs>
			<rect id="SVGID_52_" x="-489.862" y="-1057.381" width="1920" height="5337.103"/>
		</defs>
		<clipPath id="SVGID_9_">
			<use xlink:href="#SVGID_52_"  overflow="visible"/>
		</clipPath>
	</g>
	<g clip-path="url(#SVGID_2_)">
		<defs>
			<rect id="SVGID_56_" x="-489.862" y="-1057.381" width="1920" height="5337.103"/>
		</defs>
		<clipPath id="SVGID_10_">
			<use xlink:href="#SVGID_56_"  overflow="visible"/>
		</clipPath>
	</g>
	<g clip-path="url(#SVGID_2_)">
		<defs>
			<rect id="SVGID_58_" x="-489.862" y="-1057.381" width="1920" height="5337.103"/>
		</defs>
		<clipPath id="SVGID_11_">
			<use xlink:href="#SVGID_58_"  overflow="visible"/>
		</clipPath>
	</g>
	<g clip-path="url(#SVGID_2_)">
		<defs>
			<rect id="SVGID_60_" x="-489.862" y="-1057.381" width="1920" height="5337.103"/>
		</defs>
		<clipPath id="SVGID_13_">
			<use xlink:href="#SVGID_60_"  overflow="visible"/>
		</clipPath>
		<path clip-path="url(#SVGID_13_)" fill="#05AEF1" d="M55.479,26.455c-1.418,0-2.568,1.151-2.568,2.568
			c0,1.418,1.15,2.569,2.568,2.569s2.568-1.151,2.568-2.569C58.047,27.606,56.897,26.455,55.479,26.455"/>
		<path clip-path="url(#SVGID_13_)" fill="#05AEF1" d="M115.325,110.958H29.024c-0.02,0-0.041,0.002-0.061,0.003
			c-0.037,0-0.073,0.002-0.109,0.005c-0.044,0.002-0.088,0.006-0.132,0.012c-0.036,0.004-0.07,0.008-0.104,0.014
			c-0.045,0.007-0.088,0.016-0.132,0.025c-0.035,0.007-0.07,0.015-0.104,0.024c-0.042,0.01-0.083,0.023-0.124,0.036
			c-0.036,0.012-0.072,0.022-0.107,0.035c-0.009,0.003-0.019,0.006-0.028,0.009l-20.548,7.706c-1.003,0.375-1.667,1.334-1.667,2.404
			c0,1.07,0.664,2.029,1.667,2.405l20.548,7.706c0.007,0.002,0.014,0.004,0.021,0.006c0.027,0.01,0.055,0.018,0.082,0.027
			c0.058,0.019,0.118,0.037,0.178,0.051c0.03,0.008,0.059,0.015,0.09,0.021c0.061,0.014,0.123,0.023,0.185,0.032
			c0.027,0.004,0.054,0.008,0.081,0.011c0.087,0.009,0.175,0.015,0.263,0.015c0.001,0,0.002,0.001,0.003,0.001h0.003h86.296
			c2.743,0,5.322-1.07,7.263-3.011s3.011-4.521,3.011-7.264C125.599,115.566,120.99,110.958,115.325,110.958 M28.47,125.986
			l-12.679-4.755l12.679-4.754c1.18,1.287,1.839,2.961,1.839,4.754S29.65,124.699,28.47,125.986 M105.051,126.369H34.319
			c0.732-1.58,1.126-3.322,1.126-5.137c0-1.813-0.394-3.555-1.126-5.137h70.732V126.369z M118.956,124.863
			c-0.971,0.971-2.26,1.505-3.631,1.505h-5.138v-10.274h5.138c2.832,0,5.136,2.305,5.136,5.137
			C120.461,122.603,119.927,123.893,118.956,124.863"/>
		<path clip-path="url(#SVGID_13_)" fill="#05AEF1" d="M107.271,36.764l-9.456-1.575c-0.689-2.393-1.645-4.696-2.856-6.881
			l5.576-7.809c0.729-1.021,0.614-2.421-0.274-3.308l-7.264-7.264c-0.888-0.888-2.287-1.004-3.309-0.275l-7.807,5.577
			c-2.181-1.207-4.478-2.162-6.863-2.851l-1.59-10.204C73.233,0.923,72.155,0,70.89,0H60.616c-1.266,0-2.343,0.923-2.538,2.173
			l-1.59,10.205c-2.385,0.688-4.682,1.644-6.862,2.851l-7.808-5.577c-1.022-0.729-2.421-0.613-3.309,0.275l-7.264,7.264
			c-0.887,0.887-1.003,2.287-0.274,3.308l5.576,7.809c-1.21,2.185-2.167,4.489-2.856,6.881l-9.455,1.575
			c-1.239,0.207-2.147,1.278-2.147,2.534v10.273c0,1.419,1.15,2.569,2.568,2.569h21.182c0.004,0,0.009,0.001,0.014,0.001
			c0.004,0,0.007-0.001,0.01-0.001h28.776c0.002,0,0.004,0.001,0.006,0.001s0.004-0.001,0.006-0.001h10.992
			c0.003,0,0.007,0.001,0.01,0.001c0.005,0,0.01-0.001,0.015-0.001h21.18c1.419,0,2.569-1.15,2.569-2.569V39.298
			C109.417,38.042,108.509,36.971,107.271,36.764 M73.015,47.003H58.491c-0.29-0.82-0.443-1.688-0.443-2.568
			c0-4.249,3.456-7.705,7.705-7.705s7.705,3.456,7.705,7.705C73.458,45.315,73.305,46.183,73.015,47.003 M104.28,47.003H88.724
			c0.095-0.852,0.145-1.708,0.145-2.568c0-6.315-2.637-12.432-7.235-16.785c-4.661-4.412-10.758-6.648-17.172-6.296
			c-1.417,0.077-2.502,1.288-2.424,2.705c0.077,1.416,1.282,2.501,2.705,2.423c4.989-0.273,9.734,1.466,13.359,4.898
			c3.631,3.437,5.63,8.073,5.63,13.055c0,0.862-0.063,1.72-0.185,2.568h-5.213c0.172-0.842,0.261-1.702,0.261-2.568
			c0-7.081-5.761-12.843-12.842-12.843s-12.842,5.762-12.842,12.843c0,0.866,0.089,1.726,0.261,2.568h-5.213
			c-0.122-0.848-0.185-1.706-0.185-2.568c0-2.989,0.752-5.95,2.174-8.564c0.678-1.246,0.217-2.806-1.029-3.483
			c-1.245-0.678-2.805-0.218-3.483,1.028c-1.831,3.365-2.799,7.175-2.799,11.019c0,0.86,0.05,1.716,0.145,2.568H27.226v-5.529
			l8.952-1.492c1.024-0.17,1.845-0.941,2.08-1.952c0.699-3.006,1.886-5.865,3.528-8.5c0.549-0.881,0.514-2.006-0.089-2.851
			l-5.281-7.394l4.187-4.187l7.394,5.28c0.845,0.604,1.97,0.639,2.851,0.09c2.635-1.643,5.495-2.83,8.5-3.528
			c1.021-0.238,1.795-1.072,1.957-2.107l1.511-9.696h5.875l1.51,9.696c0.162,1.035,0.936,1.869,1.957,2.107
			c3.005,0.699,5.865,1.885,8.5,3.528c0.881,0.549,2.006,0.514,2.851-0.09l7.394-5.28l4.187,4.187l-5.28,7.394
			c-0.604,0.845-0.639,1.97-0.09,2.851c1.643,2.635,2.83,5.494,3.528,8.5c0.236,1.011,1.056,1.782,2.08,1.952l8.952,1.492V47.003z"
			/>
		<path clip-path="url(#SVGID_13_)" fill="#05AEF1" d="M18.75,58.048H8.477c-1.418,0-2.568,1.149-2.568,2.568
			c0,1.418,1.15,2.569,2.568,2.569H18.75c1.418,0,2.568-1.151,2.568-2.569C21.318,59.197,20.168,58.048,18.75,58.048"/>
		<path clip-path="url(#SVGID_13_)" fill="#05AEF1" d="M39.298,58.048H29.024c-1.418,0-2.568,1.149-2.568,2.568
			c0,1.418,1.15,2.569,2.568,2.569h10.274c1.418,0,2.568-1.151,2.568-2.569C41.866,59.197,40.716,58.048,39.298,58.048"/>
		<path clip-path="url(#SVGID_13_)" fill="#05AEF1" d="M60.616,58.048H50.342c-1.418,0-2.568,1.149-2.568,2.568
			c0,1.418,1.15,2.569,2.568,2.569h10.274c1.419,0,2.569-1.151,2.569-2.569C63.185,59.197,62.035,58.048,60.616,58.048"/>
		<path clip-path="url(#SVGID_13_)" fill="#05AEF1" d="M81.164,58.048H70.89c-1.418,0-2.568,1.149-2.568,2.568
			c0,1.418,1.15,2.569,2.568,2.569h10.274c1.418,0,2.568-1.151,2.568-2.569C83.732,59.197,82.582,58.048,81.164,58.048"/>
		<path clip-path="url(#SVGID_13_)" fill="#05AEF1" d="M101.712,58.048H91.438c-1.418,0-2.568,1.149-2.568,2.568
			c0,1.418,1.15,2.569,2.568,2.569h10.274c1.418,0,2.568-1.151,2.568-2.569C104.28,59.197,103.13,58.048,101.712,58.048"/>
		<path clip-path="url(#SVGID_13_)" fill="#05AEF1" d="M123.03,58.048h-10.273c-1.419,0-2.569,1.149-2.569,2.568
			c0,1.418,1.15,2.569,2.569,2.569h10.273c1.419,0,2.569-1.151,2.569-2.569C125.599,59.197,124.449,58.048,123.03,58.048"/>
		<path clip-path="url(#SVGID_13_)" fill="#05AEF1" d="M128.937,69.092H17.98c-4.8,0-9.316,1.869-12.715,5.265
			C1.87,77.756,0,82.271,0,87.071c0,9.913,8.066,17.979,17.98,17.979h110.957c1.419,0,2.569-1.15,2.569-2.569V71.66
			C131.506,70.242,130.356,69.092,128.937,69.092 M126.369,99.913h-5.908v-2.568c0-1.418-1.15-2.569-2.568-2.569
			c-1.419,0-2.568,1.151-2.568,2.569v2.568h-5.138v-2.568c0-1.418-1.15-2.569-2.568-2.569s-2.568,1.151-2.568,2.569v2.568h-5.137
			v-2.568c0-1.418-1.15-2.569-2.569-2.569c-1.418,0-2.568,1.151-2.568,2.569v2.568h-5.908v-2.568c0-1.418-1.149-2.569-2.568-2.569
			s-2.569,1.151-2.569,2.569v2.568h-5.136v-2.568c0-1.418-1.15-2.569-2.569-2.569c-1.419,0-2.569,1.151-2.569,2.569v2.568h-5.136
			v-2.568c0-1.418-1.15-2.569-2.569-2.569c-1.418,0-2.568,1.151-2.568,2.569v2.568h-5.137v-2.568c0-1.418-1.15-2.569-2.569-2.569
			c-1.418,0-2.568,1.151-2.568,2.569v2.568h-5.137v-2.568c0-1.418-1.15-2.569-2.569-2.569c-1.418,0-2.568,1.151-2.568,2.569v2.568
			h-5.908v-2.568c0-1.418-1.15-2.569-2.568-2.569s-2.568,1.151-2.568,2.569v2.568H17.98c-7.082,0-12.842-5.761-12.842-12.842
			c0-3.429,1.335-6.655,3.759-9.081c2.428-2.426,5.654-3.762,9.083-3.762h108.389V99.913z"/>
		<path clip-path="url(#SVGID_13_)" fill="#05AEF1" d="M17.98,79.366c-4.249,0-7.706,3.457-7.706,7.706
			c0,4.248,3.457,7.705,7.706,7.705s7.705-3.457,7.705-7.705C25.685,82.823,22.229,79.366,17.98,79.366 M17.98,89.64
			c-1.417,0-2.568-1.152-2.568-2.568s1.151-2.569,2.568-2.569c1.416,0,2.568,1.153,2.568,2.569S19.396,89.64,17.98,89.64"/>
	</g>
	<g clip-path="url(#SVGID_2_)">
		<defs>
			<rect id="SVGID_62_" x="-489.862" y="-1057.381" width="1920" height="5337.103"/>
		</defs>
		<clipPath id="SVGID_15_">
			<use xlink:href="#SVGID_62_"  overflow="visible"/>
		</clipPath>
	</g>
	<g clip-path="url(#SVGID_2_)">
		<defs>
			<rect id="SVGID_64_" x="-489.862" y="-1057.381" width="1920" height="5337.103"/>
		</defs>
		<clipPath id="SVGID_17_">
			<use xlink:href="#SVGID_64_"  overflow="visible"/>
		</clipPath>
	</g>
	<g clip-path="url(#SVGID_2_)">
		<defs>
			<rect id="SVGID_68_" x="-489.862" y="-1057.381" width="1920" height="5337.103"/>
		</defs>
		<clipPath id="SVGID_18_">
			<use xlink:href="#SVGID_68_"  overflow="visible"/>
		</clipPath>
	</g>
	<g clip-path="url(#SVGID_2_)">
		<defs>
			<rect id="SVGID_72_" x="-489.862" y="-1057.381" width="1920" height="5337.103"/>
		</defs>
		<clipPath id="SVGID_19_">
			<use xlink:href="#SVGID_72_"  overflow="visible"/>
		</clipPath>
	</g>
	<g clip-path="url(#SVGID_2_)">
		<defs>
			<rect id="SVGID_76_" x="-489.862" y="-1057.381" width="1920" height="5337.103"/>
		</defs>
		<clipPath id="SVGID_20_">
			<use xlink:href="#SVGID_76_"  overflow="visible"/>
		</clipPath>
	</g>
	<g clip-path="url(#SVGID_2_)">
		<defs>
			<rect id="SVGID_78_" x="-489.862" y="-1057.381" width="1920" height="5337.103"/>
		</defs>
		<clipPath id="SVGID_22_">
			<use xlink:href="#SVGID_78_"  overflow="visible"/>
		</clipPath>
	</g>
	<g clip-path="url(#SVGID_2_)">
		<defs>
			<rect id="SVGID_80_" x="-489.862" y="-1057.381" width="1920" height="5337.103"/>
		</defs>
		<clipPath id="SVGID_24_">
			<use xlink:href="#SVGID_80_"  overflow="visible"/>
		</clipPath>
	</g>
	<g clip-path="url(#SVGID_2_)">
		<defs>
			<rect id="SVGID_86_" x="-489.862" y="-1057.381" width="1920" height="5337.103"/>
		</defs>
		<clipPath id="SVGID_26_">
			<use xlink:href="#SVGID_86_"  overflow="visible"/>
		</clipPath>
	</g>
	<g clip-path="url(#SVGID_2_)">
		<defs>
			<rect id="SVGID_92_" x="-489.862" y="-1057.381" width="1920" height="5337.103"/>
		</defs>
		<clipPath id="SVGID_27_">
			<use xlink:href="#SVGID_92_"  overflow="visible"/>
		</clipPath>
	</g>
	<g clip-path="url(#SVGID_2_)">
		<defs>
			<rect id="SVGID_94_" x="-489.862" y="-1057.381" width="1920" height="5337.103"/>
		</defs>
		<clipPath id="SVGID_28_">
			<use xlink:href="#SVGID_94_"  overflow="visible"/>
		</clipPath>
	</g>
	<g clip-path="url(#SVGID_2_)">
		<defs>
			<rect id="SVGID_108_" x="-489.862" y="-1057.381" width="1920" height="5337.103"/>
		</defs>
		<clipPath id="SVGID_29_">
			<use xlink:href="#SVGID_108_"  overflow="visible"/>
		</clipPath>
	</g>
	<g clip-path="url(#SVGID_2_)">
		<defs>
			<rect id="SVGID_110_" x="-489.862" y="-1057.381" width="1920" height="5337.103"/>
		</defs>
		<clipPath id="SVGID_31_">
			<use xlink:href="#SVGID_110_"  overflow="visible"/>
		</clipPath>
	</g>
	<g clip-path="url(#SVGID_2_)">
		<defs>
			<rect id="SVGID_112_" x="-489.862" y="-1057.381" width="1920" height="5337.103"/>
		</defs>
		<clipPath id="SVGID_33_">
			<use xlink:href="#SVGID_112_"  overflow="visible"/>
		</clipPath>
	</g>
	<g clip-path="url(#SVGID_2_)">
		<defs>
			<rect id="SVGID_122_" x="-489.862" y="-1057.381" width="1920" height="5337.103"/>
		</defs>
		<clipPath id="SVGID_35_">
			<use xlink:href="#SVGID_122_"  overflow="visible"/>
		</clipPath>
	</g>
	<g clip-path="url(#SVGID_2_)">
		<defs>
			<rect id="SVGID_124_" x="-489.862" y="-1057.381" width="1920" height="5337.103"/>
		</defs>
		<clipPath id="SVGID_37_">
			<use xlink:href="#SVGID_124_"  overflow="visible"/>
		</clipPath>
	</g>
	<g clip-path="url(#SVGID_2_)">
		<defs>
			<rect id="SVGID_126_" x="-489.862" y="-1057.381" width="1920" height="5337.103"/>
		</defs>
		<clipPath id="SVGID_39_">
			<use xlink:href="#SVGID_126_"  overflow="visible"/>
		</clipPath>
	</g>
	<g clip-path="url(#SVGID_2_)">
		<defs>
			<rect id="SVGID_128_" x="-489.862" y="-1057.381" width="1920" height="5337.103"/>
		</defs>
		<clipPath id="SVGID_41_">
			<use xlink:href="#SVGID_128_"  overflow="visible"/>
		</clipPath>
	</g>
	<g clip-path="url(#SVGID_2_)">
		<defs>
			<rect id="SVGID_130_" x="-489.862" y="-1057.381" width="1920" height="5337.103"/>
		</defs>
		<clipPath id="SVGID_43_">
			<use xlink:href="#SVGID_130_"  overflow="visible"/>
		</clipPath>
	</g>
	<g clip-path="url(#SVGID_2_)">
		<defs>
			<rect id="SVGID_132_" x="-489.862" y="-1057.381" width="1920" height="5337.103"/>
		</defs>
		<clipPath id="SVGID_45_">
			<use xlink:href="#SVGID_132_"  overflow="visible"/>
		</clipPath>
	</g>
	<g clip-path="url(#SVGID_2_)">
		<defs>
			<rect id="SVGID_150_" x="-489.862" y="-1057.381" width="1920" height="5337.103"/>
		</defs>
		<clipPath id="SVGID_47_">
			<use xlink:href="#SVGID_150_"  overflow="visible"/>
		</clipPath>
	</g>
	<g clip-path="url(#SVGID_2_)">
		<defs>
			<rect id="SVGID_152_" x="-489.862" y="-1057.381" width="1920" height="5337.103"/>
		</defs>
		<clipPath id="SVGID_49_">
			<use xlink:href="#SVGID_152_"  overflow="visible"/>
		</clipPath>
	</g>
	<g clip-path="url(#SVGID_2_)">
		<defs>
			<rect id="SVGID_160_" x="-489.862" y="-1057.381" width="1920" height="5337.103"/>
		</defs>
		<clipPath id="SVGID_51_">
			<use xlink:href="#SVGID_160_"  overflow="visible"/>
		</clipPath>
	</g>
</g>
</svg>
