<?xml version="1.0" encoding="utf-8"?>
<!-- Generator: Adobe Illustrator 16.0.0, SVG Export Plug-In . SVG Version: 6.00 Build 0)  -->
<!DOCTYPE svg PUBLIC "-//W3C//DTD SVG 1.1//EN" "http://www.w3.org/Graphics/SVG/1.1/DTD/svg11.dtd">
<svg version="1.1" id="Capa_1" xmlns="http://www.w3.org/2000/svg" xmlns:xlink="http://www.w3.org/1999/xlink" x="0px" y="0px"
	 width="192.469px" height="109.445px" viewBox="0 0 192.469 109.445" enable-background="new 0 0 192.469 109.445"
	 xml:space="preserve">
<g>
	<defs>
		<rect id="SVGID_1_" x="-758.23" y="-1059.981" width="1920" height="5337.1"/>
	</defs>
	<clipPath id="SVGID_2_">
		<use xlink:href="#SVGID_1_"  overflow="visible"/>
	</clipPath>
	<g clip-path="url(#SVGID_2_)">
		<defs>
			<rect id="SVGID_34_" x="-758.23" y="-1059.984" width="1920" height="5337.103"/>
		</defs>
		<clipPath id="SVGID_4_">
			<use xlink:href="#SVGID_34_"  overflow="visible"/>
		</clipPath>
	</g>
	<g clip-path="url(#SVGID_2_)">
		<defs>
			<rect id="SVGID_38_" x="-758.23" y="-1059.984" width="1920" height="5337.103"/>
		</defs>
		<clipPath id="SVGID_6_">
			<use xlink:href="#SVGID_38_"  overflow="visible"/>
		</clipPath>
	</g>
	<g clip-path="url(#SVGID_2_)">
		<defs>
			<rect id="SVGID_48_" x="-758.23" y="-1059.984" width="1920" height="5337.103"/>
		</defs>
		<clipPath id="SVGID_8_">
			<use xlink:href="#SVGID_48_"  overflow="visible"/>
		</clipPath>
	</g>
	<g clip-path="url(#SVGID_2_)">
		<defs>
			<rect id="SVGID_52_" x="-758.23" y="-1059.984" width="1920" height="5337.103"/>
		</defs>
		<clipPath id="SVGID_9_">
			<use xlink:href="#SVGID_52_"  overflow="visible"/>
		</clipPath>
	</g>
	<g clip-path="url(#SVGID_2_)">
		<defs>
			<rect id="SVGID_56_" x="-758.23" y="-1059.984" width="1920" height="5337.103"/>
		</defs>
		<clipPath id="SVGID_10_">
			<use xlink:href="#SVGID_56_"  overflow="visible"/>
		</clipPath>
	</g>
	<g clip-path="url(#SVGID_2_)">
		<defs>
			<rect id="SVGID_58_" x="-758.23" y="-1059.984" width="1920" height="5337.103"/>
		</defs>
		<clipPath id="SVGID_11_">
			<use xlink:href="#SVGID_58_"  overflow="visible"/>
		</clipPath>
	</g>
	<g clip-path="url(#SVGID_2_)">
		<defs>
			<rect id="SVGID_60_" x="-758.23" y="-1059.984" width="1920" height="5337.103"/>
		</defs>
		<clipPath id="SVGID_13_">
			<use xlink:href="#SVGID_60_"  overflow="visible"/>
		</clipPath>
		<path clip-path="url(#SVGID_13_)" fill="#038B25" d="M23.795,34.587c0.539-2.063,0.76-4.096,1.586-5.843
			c2.39-5.059,6.475-7.694,12.15-7.694c24.97,0,91.793,0.109,116.761-0.068c7.315-0.053,13.458,4.924,14.062,12.683
			c0.02,0.252,0.078,0.502,0.145,0.922l-0.115,62.525c-0.736,6.112-3.909,10.229-9.871,12.228l-124.191,0.105
			c-4.042-1.254-7.172-3.522-8.906-7.399c-0.402-0.9-0.935-1.859-0.94-2.794L23.795,34.587z M75.326,26.252
			c-12.257,0-24.517,0.152-36.771-0.069c-5.474-0.1-9.224,3.402-9.172,9.171c0.182,20.007,0.18,40.018,0.006,60.026
			c-0.055,6.248,4.177,9.198,9.229,9.18c24.58-0.089,91.012-0.034,115.593-0.034c5.596-0.001,8.904-3.3,8.906-8.904
			c0.009-20.076,0.011-40.151,0.004-60.226c-0.003-6.114-3.049-9.14-9.171-9.142C141.692,26.249,87.583,26.252,75.326,26.252"/>
		<path clip-path="url(#SVGID_13_)" fill="#038B25" d="M171.679,65.637c0-9.703-0.001-19.407,0.002-29.11
			c0-0.621-0.207-1.411,0.093-1.828c0.592-0.827,1.412-1.9,2.251-2.01c0.706-0.092,1.715,0.922,2.312,1.669
			c0.351,0.439,0.204,1.313,0.204,1.992c0.012,19.531,0.015,39.062,0.011,58.595c0,0.678,0.016,1.392-0.178,2.027
			c-0.37,1.212-1.344,2.019-2.535,1.614c-0.833-0.284-1.5-1.229-2.077-2.002c-0.244-0.326-0.08-0.966-0.08-1.463
			C171.679,85.293,171.679,75.465,171.679,65.637"/>
		<path clip-path="url(#SVGID_13_)" fill="#038B25" d="M180.046,58.107c0-9.704-0.001-5.183,0.002-14.886
			c0-0.622-0.207-1.411,0.093-1.829c0.592-0.825,1.412-1.899,2.251-2.009c0.706-0.091,1.715,0.922,2.311,1.668
			c0.351,0.441,0.204,1.315,0.204,1.993c0.012,19.532,0.015,24.838,0.011,44.37c0,0.678,0.016,1.392-0.178,2.028
			c-0.37,1.212-1.344,2.019-2.535,1.613c-0.833-0.283-1.5-1.229-2.077-2.002c-0.244-0.325-0.08-0.966-0.08-1.463
			C180.046,77.762,180.046,67.935,180.046,58.107"/>
		<path clip-path="url(#SVGID_13_)" fill="#038B25" d="M187.577,50.576c0-9.703-0.001,12.391,0.002,2.687
			c0-0.622-0.206-1.412,0.093-1.829c0.592-0.825,1.413-1.899,2.251-2.009c0.706-0.092,1.716,0.922,2.312,1.669
			c0.351,0.439,0.204,1.313,0.204,1.992c0.012,19.531,0.015,7.265,0.011,26.797c0,0.678,0.016,1.392-0.178,2.028
			c-0.369,1.212-1.344,2.019-2.535,1.613c-0.833-0.283-1.5-1.229-2.077-2.002c-0.244-0.325-0.08-0.965-0.08-1.462
			C187.577,70.232,187.577,60.404,187.577,50.576"/>
		<path clip-path="url(#SVGID_13_)" fill="#038B25" d="M20.842,65.656c0,9.728,0.001,19.456-0.002,29.184
			c0,0.623,0.207,1.415-0.094,1.833c-0.593,0.827-1.415,1.904-2.256,2.013c-0.708,0.093-1.719-0.924-2.317-1.672
			c-0.352-0.441-0.204-1.317-0.205-1.998c-0.011-19.58-0.015-39.16-0.01-58.74c0-0.68-0.016-1.395,0.178-2.032
			c0.371-1.216,1.348-2.025,2.541-1.618c0.835,0.284,1.504,1.232,2.083,2.007c0.245,0.326,0.08,0.967,0.08,1.466
			C20.842,45.952,20.842,55.803,20.842,65.656"/>
		<path clip-path="url(#SVGID_13_)" fill="#038B25" d="M12.454,73.206c0,9.728,0.001,5.195-0.002,14.923
			c0,0.623,0.207,1.415-0.093,1.833c-0.594,0.827-1.416,1.904-2.257,2.014c-0.708,0.092-1.719-0.924-2.316-1.672
			c-0.353-0.442-0.205-1.318-0.206-1.998c-0.011-19.58-0.015-24.9-0.01-44.48c0-0.68-0.016-1.395,0.178-2.033
			c0.371-1.215,1.348-2.025,2.542-1.617c0.834,0.284,1.503,1.232,2.082,2.007c0.245,0.326,0.08,0.967,0.08,1.466
			C12.454,53.501,12.454,63.353,12.454,73.206"/>
		<path clip-path="url(#SVGID_13_)" fill="#038B25" d="M4.904,80.755c0,9.728,0.001-12.421-0.002-2.693
			c0,0.623,0.207,1.415-0.093,1.833C4.215,80.723,3.393,81.8,2.552,81.91c-0.707,0.092-1.719-0.924-2.316-1.673
			c-0.353-0.441-0.205-1.317-0.205-1.997C0.019,58.66,0.015,70.956,0.02,51.375c0.001-0.681-0.016-1.395,0.178-2.033
			c0.371-1.215,1.348-2.025,2.542-1.617c0.834,0.284,1.503,1.232,2.082,2.007c0.245,0.326,0.08,0.967,0.081,1.465
			C4.905,61.051,4.904,70.903,4.904,80.755"/>
		<path clip-path="url(#SVGID_13_)" fill="#038B25" d="M61.713,7.134c0-0.539-0.199-1.188,0.122-1.592
			c0.507-0.638,1.259-1.373,2.12-1.595c1.227-0.315,2.259,0.296,2.641,1.267c0.199,0.506,0.23,1.063,0.231,1.597
			c0.004,5.772-0.002,11.544,0,17.316h5.138c-0.001-1.9,0.001-3.801,0.001-5.7c0-4.077,0.045-8.154-0.015-12.23
			c-0.054-3.742-3.344-6.261-7.954-6.196c-4.408,0.063-7.46,2.634-7.475,6.404c-0.023,5.907-0.017,11.815-0.013,17.722h5.202
			C61.711,18.462,61.71,12.798,61.713,7.134"/>
		<path clip-path="url(#SVGID_13_)" fill="#038B25" d="M93.983,7.134c0-0.539-0.198-1.188,0.123-1.592
			c0.507-0.638,1.259-1.373,2.119-1.595c1.228-0.315,2.26,0.296,2.642,1.267c0.198,0.506,0.23,1.063,0.23,1.597
			c0.004,5.772-0.001,11.544,0,17.316h5.138c0-1.9,0.001-3.801,0.001-5.7c0-4.077,0.045-8.154-0.014-12.23
			c-0.055-3.742-3.345-6.261-7.955-6.196c-4.408,0.063-7.459,2.634-7.474,6.404c-0.024,5.907-0.018,11.815-0.014,17.722h5.202
			C93.981,18.462,93.98,12.798,93.983,7.134"/>
		<path clip-path="url(#SVGID_13_)" fill="#038B25" d="M123.671,7.134c0-0.539-0.198-1.188,0.123-1.592
			c0.507-0.638,1.259-1.373,2.119-1.595c1.228-0.315,2.26,0.296,2.642,1.267c0.198,0.506,0.229,1.063,0.229,1.597
			c0.005,5.772-0.001,11.544,0,17.316h5.138c0-1.9,0.001-3.801,0.001-5.7c0-4.077,0.045-8.154-0.014-12.23
			c-0.054-3.742-3.345-6.261-7.955-6.196c-4.407,0.063-7.459,2.634-7.474,6.404c-0.024,5.907-0.018,11.815-0.014,17.722h5.202
			C123.669,18.462,123.668,12.798,123.671,7.134"/>
	</g>
	<g clip-path="url(#SVGID_2_)">
		<defs>
			<rect id="SVGID_62_" x="-758.23" y="-1059.984" width="1920" height="5337.103"/>
		</defs>
		<clipPath id="SVGID_15_">
			<use xlink:href="#SVGID_62_"  overflow="visible"/>
		</clipPath>
	</g>
	<g clip-path="url(#SVGID_2_)">
		<defs>
			<rect id="SVGID_64_" x="-758.23" y="-1059.984" width="1920" height="5337.103"/>
		</defs>
		<clipPath id="SVGID_17_">
			<use xlink:href="#SVGID_64_"  overflow="visible"/>
		</clipPath>
	</g>
	<g clip-path="url(#SVGID_2_)">
		<defs>
			<rect id="SVGID_68_" x="-758.23" y="-1059.984" width="1920" height="5337.103"/>
		</defs>
		<clipPath id="SVGID_18_">
			<use xlink:href="#SVGID_68_"  overflow="visible"/>
		</clipPath>
	</g>
	<g clip-path="url(#SVGID_2_)">
		<defs>
			<rect id="SVGID_72_" x="-758.23" y="-1059.984" width="1920" height="5337.103"/>
		</defs>
		<clipPath id="SVGID_19_">
			<use xlink:href="#SVGID_72_"  overflow="visible"/>
		</clipPath>
	</g>
	<g clip-path="url(#SVGID_2_)">
		<defs>
			<rect id="SVGID_76_" x="-758.23" y="-1059.984" width="1920" height="5337.103"/>
		</defs>
		<clipPath id="SVGID_20_">
			<use xlink:href="#SVGID_76_"  overflow="visible"/>
		</clipPath>
	</g>
	<g clip-path="url(#SVGID_2_)">
		<defs>
			<rect id="SVGID_78_" x="-758.23" y="-1059.984" width="1920" height="5337.103"/>
		</defs>
		<clipPath id="SVGID_22_">
			<use xlink:href="#SVGID_78_"  overflow="visible"/>
		</clipPath>
	</g>
	<g clip-path="url(#SVGID_2_)">
		<defs>
			<rect id="SVGID_80_" x="-758.23" y="-1059.984" width="1920" height="5337.103"/>
		</defs>
		<clipPath id="SVGID_24_">
			<use xlink:href="#SVGID_80_"  overflow="visible"/>
		</clipPath>
	</g>
	<g clip-path="url(#SVGID_2_)">
		<defs>
			<rect id="SVGID_86_" x="-758.23" y="-1059.984" width="1920" height="5337.103"/>
		</defs>
		<clipPath id="SVGID_26_">
			<use xlink:href="#SVGID_86_"  overflow="visible"/>
		</clipPath>
	</g>
	<g clip-path="url(#SVGID_2_)">
		<defs>
			<rect id="SVGID_92_" x="-758.23" y="-1059.984" width="1920" height="5337.103"/>
		</defs>
		<clipPath id="SVGID_27_">
			<use xlink:href="#SVGID_92_"  overflow="visible"/>
		</clipPath>
	</g>
	<g clip-path="url(#SVGID_2_)">
		<defs>
			<rect id="SVGID_94_" x="-758.23" y="-1059.984" width="1920" height="5337.103"/>
		</defs>
		<clipPath id="SVGID_28_">
			<use xlink:href="#SVGID_94_"  overflow="visible"/>
		</clipPath>
	</g>
	<g clip-path="url(#SVGID_2_)">
		<defs>
			<rect id="SVGID_108_" x="-758.23" y="-1059.984" width="1920" height="5337.103"/>
		</defs>
		<clipPath id="SVGID_29_">
			<use xlink:href="#SVGID_108_"  overflow="visible"/>
		</clipPath>
	</g>
	<g clip-path="url(#SVGID_2_)">
		<defs>
			<rect id="SVGID_110_" x="-758.23" y="-1059.984" width="1920" height="5337.103"/>
		</defs>
		<clipPath id="SVGID_31_">
			<use xlink:href="#SVGID_110_"  overflow="visible"/>
		</clipPath>
	</g>
	<g clip-path="url(#SVGID_2_)">
		<defs>
			<rect id="SVGID_112_" x="-758.23" y="-1059.984" width="1920" height="5337.103"/>
		</defs>
		<clipPath id="SVGID_33_">
			<use xlink:href="#SVGID_112_"  overflow="visible"/>
		</clipPath>
	</g>
	<g clip-path="url(#SVGID_2_)">
		<defs>
			<rect id="SVGID_122_" x="-758.23" y="-1059.984" width="1920" height="5337.103"/>
		</defs>
		<clipPath id="SVGID_35_">
			<use xlink:href="#SVGID_122_"  overflow="visible"/>
		</clipPath>
	</g>
	<g clip-path="url(#SVGID_2_)">
		<defs>
			<rect id="SVGID_124_" x="-758.23" y="-1059.984" width="1920" height="5337.103"/>
		</defs>
		<clipPath id="SVGID_37_">
			<use xlink:href="#SVGID_124_"  overflow="visible"/>
		</clipPath>
	</g>
	<g clip-path="url(#SVGID_2_)">
		<defs>
			<rect id="SVGID_126_" x="-758.23" y="-1059.984" width="1920" height="5337.103"/>
		</defs>
		<clipPath id="SVGID_39_">
			<use xlink:href="#SVGID_126_"  overflow="visible"/>
		</clipPath>
	</g>
	<g clip-path="url(#SVGID_2_)">
		<defs>
			<rect id="SVGID_128_" x="-758.23" y="-1059.984" width="1920" height="5337.103"/>
		</defs>
		<clipPath id="SVGID_41_">
			<use xlink:href="#SVGID_128_"  overflow="visible"/>
		</clipPath>
	</g>
	<g clip-path="url(#SVGID_2_)">
		<defs>
			<rect id="SVGID_130_" x="-758.23" y="-1059.984" width="1920" height="5337.103"/>
		</defs>
		<clipPath id="SVGID_43_">
			<use xlink:href="#SVGID_130_"  overflow="visible"/>
		</clipPath>
	</g>
	<g clip-path="url(#SVGID_2_)">
		<defs>
			<rect id="SVGID_132_" x="-758.23" y="-1059.984" width="1920" height="5337.103"/>
		</defs>
		<clipPath id="SVGID_45_">
			<use xlink:href="#SVGID_132_"  overflow="visible"/>
		</clipPath>
	</g>
	<g clip-path="url(#SVGID_2_)">
		<defs>
			<rect id="SVGID_150_" x="-758.23" y="-1059.984" width="1920" height="5337.103"/>
		</defs>
		<clipPath id="SVGID_47_">
			<use xlink:href="#SVGID_150_"  overflow="visible"/>
		</clipPath>
	</g>
	<g clip-path="url(#SVGID_2_)">
		<defs>
			<rect id="SVGID_152_" x="-758.23" y="-1059.984" width="1920" height="5337.103"/>
		</defs>
		<clipPath id="SVGID_49_">
			<use xlink:href="#SVGID_152_"  overflow="visible"/>
		</clipPath>
	</g>
	<g clip-path="url(#SVGID_2_)">
		<defs>
			<rect id="SVGID_160_" x="-758.23" y="-1059.984" width="1920" height="5337.103"/>
		</defs>
		<clipPath id="SVGID_51_">
			<use xlink:href="#SVGID_160_"  overflow="visible"/>
		</clipPath>
	</g>
</g>
</svg>
