<?xml version="1.0" encoding="utf-8"?>
<!-- Generator: Adobe Illustrator 16.0.0, SVG Export Plug-In . SVG Version: 6.00 Build 0)  -->
<!DOCTYPE svg PUBLIC "-//W3C//DTD SVG 1.1//EN" "http://www.w3.org/Graphics/SVG/1.1/DTD/svg11.dtd">
<svg version="1.1" id="Capa_1" xmlns="http://www.w3.org/2000/svg" xmlns:xlink="http://www.w3.org/1999/xlink" x="0px" y="0px"
	 width="50.256px" height="75.678px" viewBox="0 0 50.256 75.678" enable-background="new 0 0 50.256 75.678" xml:space="preserve">
<g>
	<defs>
		<rect id="SVGID_32_" x="-1225.581" y="-2807.232" width="1920" height="5337.103"/>
	</defs>
	<clipPath id="SVGID_2_">
		<use xlink:href="#SVGID_32_"  overflow="visible"/>
	</clipPath>
</g>
<g>
	<defs>
		<rect id="SVGID_36_" x="-1225.581" y="-2807.232" width="1920" height="5337.103"/>
	</defs>
	<clipPath id="SVGID_4_">
		<use xlink:href="#SVGID_36_"  overflow="visible"/>
	</clipPath>
</g>
<g>
	<defs>
		<rect id="SVGID_46_" x="-1225.581" y="-2807.232" width="1920" height="5337.103"/>
	</defs>
	<clipPath id="SVGID_6_">
		<use xlink:href="#SVGID_46_"  overflow="visible"/>
	</clipPath>
</g>
<g>
	<defs>
		<rect id="SVGID_50_" x="-1225.581" y="-2807.232" width="1920" height="5337.103"/>
	</defs>
	<clipPath id="SVGID_7_">
		<use xlink:href="#SVGID_50_"  overflow="visible"/>
	</clipPath>
</g>
<g>
	<defs>
		<rect id="SVGID_54_" x="-1225.581" y="-2807.232" width="1920" height="5337.103"/>
	</defs>
	<clipPath id="SVGID_8_">
		<use xlink:href="#SVGID_54_"  overflow="visible"/>
	</clipPath>
</g>
<g>
	<defs>
		<rect id="SVGID_56_" x="-1225.581" y="-2807.232" width="1920" height="5337.103"/>
	</defs>
	<clipPath id="SVGID_9_">
		<use xlink:href="#SVGID_56_"  overflow="visible"/>
	</clipPath>
</g>
<g>
	<defs>
		<rect id="SVGID_58_" x="-1225.581" y="-2807.232" width="1920" height="5337.103"/>
	</defs>
	<clipPath id="SVGID_11_">
		<use xlink:href="#SVGID_58_"  overflow="visible"/>
	</clipPath>
</g>
<g>
	<defs>
		<rect id="SVGID_60_" x="-1225.581" y="-2807.232" width="1920" height="5337.103"/>
	</defs>
	<clipPath id="SVGID_13_">
		<use xlink:href="#SVGID_60_"  overflow="visible"/>
	</clipPath>
</g>
<g>
	<defs>
		<rect id="SVGID_62_" x="-1225.581" y="-2807.232" width="1920" height="5337.103"/>
	</defs>
	<clipPath id="SVGID_15_">
		<use xlink:href="#SVGID_62_"  overflow="visible"/>
	</clipPath>
</g>
<g>
	<defs>
		<rect id="SVGID_66_" x="-1225.581" y="-2807.232" width="1920" height="5337.103"/>
	</defs>
	<clipPath id="SVGID_16_">
		<use xlink:href="#SVGID_66_"  overflow="visible"/>
	</clipPath>
</g>
<g>
	<defs>
		<rect id="SVGID_70_" x="-1225.581" y="-2807.232" width="1920" height="5337.103"/>
	</defs>
	<clipPath id="SVGID_17_">
		<use xlink:href="#SVGID_70_"  overflow="visible"/>
	</clipPath>
</g>
<g>
	<defs>
		<rect id="SVGID_74_" x="-1225.581" y="-2807.232" width="1920" height="5337.103"/>
	</defs>
	<clipPath id="SVGID_18_">
		<use xlink:href="#SVGID_74_"  overflow="visible"/>
	</clipPath>
</g>
<g>
	<defs>
		<rect id="SVGID_76_" x="-1225.581" y="-2807.232" width="1920" height="5337.103"/>
	</defs>
	<clipPath id="SVGID_20_">
		<use xlink:href="#SVGID_76_"  overflow="visible"/>
	</clipPath>
</g>
<g>
	<defs>
		<rect id="SVGID_78_" x="-1225.581" y="-2807.232" width="1920" height="5337.103"/>
	</defs>
	<clipPath id="SVGID_22_">
		<use xlink:href="#SVGID_78_"  overflow="visible"/>
	</clipPath>
</g>
<g>
	<defs>
		<rect id="SVGID_84_" x="-1225.581" y="-2807.232" width="1920" height="5337.103"/>
	</defs>
	<clipPath id="SVGID_24_">
		<use xlink:href="#SVGID_84_"  overflow="visible"/>
	</clipPath>
</g>
<g>
	<defs>
		<rect id="SVGID_90_" x="-1225.581" y="-2807.232" width="1920" height="5337.103"/>
	</defs>
	<clipPath id="SVGID_25_">
		<use xlink:href="#SVGID_90_"  overflow="visible"/>
	</clipPath>
</g>
<g>
	<defs>
		<rect id="SVGID_92_" x="-1225.581" y="-2807.232" width="1920" height="5337.103"/>
	</defs>
	<clipPath id="SVGID_26_">
		<use xlink:href="#SVGID_92_"  overflow="visible"/>
	</clipPath>
</g>
<g>
	<defs>
		<rect id="SVGID_102_" x="-584.582" y="-492.232" width="641.001" height="318"/>
	</defs>
	<clipPath id="SVGID_27_">
		<use xlink:href="#SVGID_102_"  overflow="visible"/>
	</clipPath>
	<g clip-path="url(#SVGID_27_)">
		<defs>
			<rect id="SVGID_104_" x="-688.581" y="-1297.231" width="1023" height="1363.999"/>
		</defs>
		<clipPath id="SVGID_29_">
			<use xlink:href="#SVGID_104_"  overflow="visible"/>
		</clipPath>
	</g>
</g>
<g>
	<defs>
		<rect id="SVGID_106_" x="-1225.581" y="-2807.232" width="1920" height="5337.103"/>
	</defs>
	<clipPath id="SVGID_31_">
		<use xlink:href="#SVGID_106_"  overflow="visible"/>
	</clipPath>
</g>
<g>
	<defs>
		<rect id="SVGID_108_" x="-1225.581" y="-2807.232" width="1920" height="5337.103"/>
	</defs>
	<clipPath id="SVGID_33_">
		<use xlink:href="#SVGID_108_"  overflow="visible"/>
	</clipPath>
</g>
<g opacity="0.06">
	<g>
		<defs>
			<rect id="SVGID_110_" x="-1042.421" y="-215.179" width="1621.67" height="1185.62"/>
		</defs>
		<clipPath id="SVGID_35_">
			<use xlink:href="#SVGID_110_"  overflow="visible"/>
		</clipPath>
		<g clip-path="url(#SVGID_35_)">
			<defs>
				<rect id="SVGID_112_" x="-960.581" y="129.973" width="1466" height="341.592"/>
			</defs>
			<clipPath id="SVGID_37_">
				<use xlink:href="#SVGID_112_"  overflow="visible"/>
			</clipPath>
			<g clip-path="url(#SVGID_37_)">
				<defs>
					<rect id="SVGID_114_" x="-1042.421" y="-215.178" width="1621.674" height="1185.624"/>
				</defs>
				<clipPath id="SVGID_39_">
					<use xlink:href="#SVGID_114_"  overflow="visible"/>
				</clipPath>
			</g>
		</g>
	</g>
</g>
<path fill="#333333" d="M20.601,50.25c-0.135,0-0.272-0.02-0.407-0.061c-0.605-0.18-1.02-0.736-1.02-1.368V33.968h-6.905
	c-0.523,0-1.006-0.288-1.256-0.75c-0.249-0.46-0.225-1.022,0.063-1.46l14.84-22.655c0.347-0.528,0.998-0.767,1.604-0.586
	c0.605,0.18,1.02,0.737,1.02,1.368V24.72h6.904c0.524,0,1.007,0.288,1.256,0.749c0.25,0.462,0.226,1.022-0.062,1.462l-14.84,22.673
	C21.527,50.014,21.074,50.25,20.601,50.25 M14.912,31.111h5.688c0.79,0,1.429,0.641,1.429,1.428v11.493l10.771-16.456h-5.69
	c-0.789,0-1.428-0.64-1.428-1.429V14.67L14.912,31.111z"/>
<rect x="-1225.581" y="-2807.232" fill="none" width="1920" height="5337.103"/>
<g>
	<defs>
		<rect id="SVGID_118_" x="-1225.581" y="-2807.232" width="1920" height="5337.103"/>
	</defs>
	<clipPath id="SVGID_41_">
		<use xlink:href="#SVGID_118_"  overflow="visible"/>
	</clipPath>
	<path clip-path="url(#SVGID_41_)" fill="#333333" d="M31.585,60.359c2.71-3.968,5.107-7.3,7.257-10.286
		c7.6-10.562,11.414-15.862,11.414-24.946C50.256,11.271,38.983,0,25.128,0S0,11.271,0,25.127c0,9.049,3.82,14.365,11.431,24.959
		c2.143,2.979,4.53,6.303,7.23,10.258c-7.609,0.939-12.748,3.896-12.748,7.5c0,4.904,9.77,7.834,19.215,7.834
		s19.216-2.93,19.216-7.834C44.344,64.264,39.206,61.318,31.585,60.359 M13.832,48.359C6.365,37.967,2.957,33.224,2.957,25.127
		c0-12.225,9.945-22.17,22.171-22.17S47.3,12.902,47.3,25.127c0,8.131-3.629,13.173-10.857,23.219
		c-2.514,3.492-5.362,7.452-8.664,12.359c-0.887,1.319-1.774,2.659-2.65,4.004c-0.904-1.39-1.808-2.752-2.697-4.072
		C19.156,55.77,16.328,51.834,13.832,48.359 M37.159,70.859c-3.218,1.184-7.604,1.862-12.031,1.862
		c-4.429,0-8.813-0.679-12.031-1.862c-3.344-1.23-4.228-2.51-4.228-3.016c0-1.381,3.901-4.085,11.671-4.719
		c1.104,1.651,2.227,3.363,3.345,5.102c0.271,0.423,0.74,0.679,1.243,0.679s0.971-0.256,1.243-0.679
		c1.095-1.702,2.216-3.41,3.339-5.092c7.774,0.662,11.677,3.34,11.677,4.709C41.387,68.35,40.504,69.629,37.159,70.859"/>
</g>
<g>
	<defs>
		<rect id="SVGID_120_" x="-1225.581" y="-2807.232" width="1920" height="5337.103"/>
	</defs>
	<clipPath id="SVGID_43_">
		<use xlink:href="#SVGID_120_"  overflow="visible"/>
	</clipPath>
</g>
<g>
	<defs>
		<rect id="SVGID_122_" x="-1225.581" y="-2807.232" width="1920" height="5337.103"/>
	</defs>
	<clipPath id="SVGID_45_">
		<use xlink:href="#SVGID_122_"  overflow="visible"/>
	</clipPath>
</g>
<g>
	<defs>
		<rect id="SVGID_124_" x="-1225.581" y="-2807.232" width="1920" height="5337.103"/>
	</defs>
	<clipPath id="SVGID_47_">
		<use xlink:href="#SVGID_124_"  overflow="visible"/>
	</clipPath>
</g>
<g>
	<defs>
		<rect id="SVGID_126_" x="-1225.581" y="-2807.232" width="1920" height="5337.103"/>
	</defs>
	<clipPath id="SVGID_49_">
		<use xlink:href="#SVGID_126_"  overflow="visible"/>
	</clipPath>
</g>
<g>
	<defs>
		<rect id="SVGID_128_" x="-1225.581" y="-2807.232" width="1920" height="5337.103"/>
	</defs>
	<clipPath id="SVGID_51_">
		<use xlink:href="#SVGID_128_"  overflow="visible"/>
	</clipPath>
</g>
<g>
	<defs>
		<rect id="SVGID_146_" x="-1225.581" y="-2807.232" width="1920" height="5337.103"/>
	</defs>
	<clipPath id="SVGID_53_">
		<use xlink:href="#SVGID_146_"  overflow="visible"/>
	</clipPath>
</g>
<g>
	<defs>
		<rect id="SVGID_148_" x="-1225.581" y="-2807.232" width="1920" height="5337.103"/>
	</defs>
	<clipPath id="SVGID_55_">
		<use xlink:href="#SVGID_148_"  overflow="visible"/>
	</clipPath>
</g>
<g>
	<defs>
		<rect id="SVGID_156_" x="-1225.581" y="-2807.232" width="1920" height="5337.103"/>
	</defs>
	<clipPath id="SVGID_57_">
		<use xlink:href="#SVGID_156_"  overflow="visible"/>
	</clipPath>
</g>
<rect x="-1225.581" y="-2807.229" fill="none" width="1920" height="5337.1"/>
</svg>
