<?xml version="1.0" encoding="utf-8"?>
<!-- Generator: Adobe Illustrator 16.0.3, SVG Export Plug-In . SVG Version: 6.00 Build 0)  -->
<!DOCTYPE svg PUBLIC "-//W3C//DTD SVG 1.1//EN" "http://www.w3.org/Graphics/SVG/1.1/DTD/svg11.dtd">
<svg version="1.1" id="Capa_1" xmlns="http://www.w3.org/2000/svg" xmlns:xlink="http://www.w3.org/1999/xlink" x="0px" y="0px"
	 width="71.537px" height="72.324px" viewBox="0 0 71.537 72.324" enable-background="new 0 0 71.537 72.324" xml:space="preserve">
<g>
	<defs>
		<rect id="SVGID_1_" x="-1488.199" y="-688.282" width="1920" height="2211.39"/>
	</defs>
	<clipPath id="SVGID_2_">
		<use xlink:href="#SVGID_1_"  overflow="visible"/>
	</clipPath>
</g>
<g>
	<defs>
		<rect id="SVGID_5_" x="-1488.199" y="-688.282" width="1920" height="2211.39"/>
	</defs>
	<clipPath id="SVGID_4_">
		<use xlink:href="#SVGID_5_"  overflow="visible"/>
	</clipPath>
</g>
<g>
	<defs>
		<rect id="SVGID_15_" x="-1488.199" y="-688.282" width="1920" height="2211.39"/>
	</defs>
	<clipPath id="SVGID_6_">
		<use xlink:href="#SVGID_15_"  overflow="visible"/>
	</clipPath>
</g>
<g>
	<defs>
		<rect id="SVGID_19_" x="-1488.199" y="-688.282" width="1920" height="2211.39"/>
	</defs>
	<clipPath id="SVGID_8_">
		<use xlink:href="#SVGID_19_"  overflow="visible"/>
	</clipPath>
</g>
<g>
	<defs>
		<rect id="SVGID_23_" x="-1488.199" y="-688.282" width="1920" height="2211.39"/>
	</defs>
	<clipPath id="SVGID_10_">
		<use xlink:href="#SVGID_23_"  overflow="visible"/>
	</clipPath>
</g>
<g>
	<defs>
		<rect id="SVGID_25_" x="-1488.199" y="-688.282" width="1920" height="2211.39"/>
	</defs>
	<clipPath id="SVGID_12_">
		<use xlink:href="#SVGID_25_"  overflow="visible"/>
	</clipPath>
</g>
<g>
	<defs>
		<rect id="SVGID_27_" x="-1488.199" y="-688.282" width="1920" height="2211.39"/>
	</defs>
	<clipPath id="SVGID_14_">
		<use xlink:href="#SVGID_27_"  overflow="visible"/>
	</clipPath>
</g>
<g>
	<defs>
		<rect id="SVGID_29_" x="-1488.199" y="-688.282" width="1920" height="2211.39"/>
	</defs>
	<clipPath id="SVGID_16_">
		<use xlink:href="#SVGID_29_"  overflow="visible"/>
	</clipPath>
</g>
<g>
	<defs>
		<rect id="SVGID_31_" x="-1488.199" y="-688.282" width="1920" height="2211.39"/>
	</defs>
	<clipPath id="SVGID_18_">
		<use xlink:href="#SVGID_31_"  overflow="visible"/>
	</clipPath>
</g>
<g>
	<defs>
		<rect id="SVGID_35_" x="-1488.199" y="-688.282" width="1920" height="2211.39"/>
	</defs>
	<clipPath id="SVGID_20_">
		<use xlink:href="#SVGID_35_"  overflow="visible"/>
	</clipPath>
</g>
<g>
	<defs>
		<rect id="SVGID_39_" x="-1488.199" y="-688.282" width="1920" height="2211.39"/>
	</defs>
	<clipPath id="SVGID_22_">
		<use xlink:href="#SVGID_39_"  overflow="visible"/>
	</clipPath>
</g>
<g>
	<defs>
		<rect id="SVGID_43_" x="-1488.199" y="-688.282" width="1920" height="2211.39"/>
	</defs>
	<clipPath id="SVGID_24_">
		<use xlink:href="#SVGID_43_"  overflow="visible"/>
	</clipPath>
</g>
<g>
	<defs>
		<rect id="SVGID_45_" x="-1488.199" y="-688.282" width="1920" height="2211.39"/>
	</defs>
	<clipPath id="SVGID_26_">
		<use xlink:href="#SVGID_45_"  overflow="visible"/>
	</clipPath>
</g>
<g>
	<defs>
		<rect id="SVGID_47_" x="-1486.199" y="-361.277" width="1918" height="199.995"/>
	</defs>
	<clipPath id="SVGID_28_">
		<use xlink:href="#SVGID_47_"  overflow="visible"/>
	</clipPath>
	<g clip-path="url(#SVGID_28_)">
		<defs>
			<rect id="SVGID_49_" x="-1907.199" y="-833.282" width="2421" height="1614"/>
		</defs>
		<clipPath id="SVGID_30_">
			<use xlink:href="#SVGID_49_"  overflow="visible"/>
		</clipPath>
	
	</g>
</g>
<g>
	<defs>
		<rect id="SVGID_51_" x="-1108.699" y="-18.282" width="850.999" height="384"/>
	</defs>
	<clipPath id="SVGID_32_">
		<use xlink:href="#SVGID_51_"  overflow="visible"/>
	</clipPath>
	<g clip-path="url(#SVGID_32_)">
		<defs>
			<rect id="SVGID_53_" x="-1419.199" y="-1066.282" width="2640.407" height="1760.271"/>
		</defs>
		<clipPath id="SVGID_34_">
			<use xlink:href="#SVGID_53_"  overflow="visible"/>
		</clipPath>
	</g>
</g>
<path fill="#038B25" d="M63.437,0H8.102C3.635,0,0,3.634,0,8.101v56.122c0,4.467,3.635,8.101,8.102,8.101h55.335
	c4.467,0,8.101-3.634,8.101-8.101V8.101C71.537,3.634,67.903,0,63.437,0 M63.437,69.179H8.102c-2.733,0-4.957-2.224-4.957-4.956
	V8.101c0-2.733,2.224-4.956,4.957-4.956h55.335c2.733,0,4.956,2.223,4.956,4.956v56.122C68.393,66.955,66.17,69.179,63.437,69.179"
	/>
<path fill="#038B25" d="M27.121,51.456c-3.468,0-6.289,2.821-6.289,6.289c0,3.467,2.821,6.289,6.289,6.289
	c3.469,0,6.289-2.821,6.289-6.289C33.41,54.278,30.59,51.456,27.121,51.456 M27.121,60.889c-1.733,0-3.145-1.41-3.145-3.144
	s1.411-3.144,3.145-3.144c1.734,0,3.146,1.41,3.146,3.144S28.855,60.889,27.121,60.889"/>
<path fill="#038B25" d="M44.416,51.456c-3.468,0-6.289,2.821-6.289,6.289c0,3.467,2.821,6.289,6.289,6.289s6.289-2.821,6.289-6.289
	C50.705,54.278,47.884,51.456,44.416,51.456 M44.416,60.889c-1.734,0-3.145-1.41-3.145-3.144s1.41-3.144,3.145-3.144
	s3.145,1.41,3.145,3.144S46.15,60.889,44.416,60.889"/>
<path fill="#038B25" d="M15.123,31.122c0.414,0,0.818-0.167,1.11-0.461c0.294-0.292,0.462-0.698,0.462-1.111
	s-0.168-0.82-0.462-1.112c-0.291-0.293-0.696-0.461-1.11-0.461s-0.82,0.168-1.112,0.461c-0.292,0.292-0.459,0.699-0.459,1.112
	c0,0.415,0.167,0.819,0.459,1.111C14.305,30.955,14.709,31.122,15.123,31.122"/>
<path fill="#038B25" d="M46.735,23.247c0.217,0.104,0.446,0.152,0.671,0.152c0.588,0,1.154-0.333,1.421-0.899
	c0.373-0.786,0.038-1.724-0.746-2.095c-0.786-0.372-1.723-0.037-2.095,0.747C45.615,21.938,45.95,22.875,46.735,23.247"/>
<path fill="#038B25" d="M29.801,21.482c0.11,0,0.221-0.013,0.334-0.036c0.848-0.184,1.387-1.021,1.203-1.869
	c-0.182-0.849-1.019-1.389-1.868-1.204c-0.848,0.183-1.388,1.02-1.204,1.869C28.425,20.977,29.076,21.482,29.801,21.482"/>
<path fill="#038B25" d="M35.766,20.85c0.868,0,1.572-0.704,1.572-1.572c0-0.868-0.704-1.573-1.572-1.573
	c-0.87,0-1.572,0.705-1.572,1.573C34.193,20.146,34.897,20.85,35.766,20.85"/>
<path fill="#038B25" d="M51.442,26.252c0.295,0.248,0.655,0.371,1.014,0.371c0.446,0,0.892-0.19,1.203-0.559
	c0.56-0.665,0.474-1.657-0.188-2.216c-0.663-0.56-1.655-0.477-2.215,0.188C50.695,24.701,50.778,25.692,51.442,26.252"/>
<path fill="#038B25" d="M41.396,21.445c0.11,0.023,0.223,0.036,0.332,0.036c0.726,0,1.377-0.505,1.536-1.241
	c0.185-0.849-0.354-1.686-1.204-1.869c-0.849-0.184-1.686,0.355-1.869,1.204C40.007,20.424,40.547,21.26,41.396,21.445"/>
<path fill="#038B25" d="M19.076,26.628c0.358,0,0.719-0.123,1.013-0.371c0.664-0.562,0.747-1.552,0.187-2.216
	c-0.56-0.665-1.552-0.748-2.215-0.188c-0.664,0.559-0.747,1.551-0.187,2.216C18.185,26.438,18.628,26.628,19.076,26.628"/>
<path fill="#038B25" d="M56.415,31.122c0.414,0,0.818-0.167,1.112-0.461c0.292-0.292,0.46-0.698,0.46-1.111s-0.168-0.82-0.46-1.112
	c-0.293-0.293-0.698-0.461-1.112-0.461c-0.415,0-0.819,0.168-1.113,0.461c-0.292,0.292-0.461,0.699-0.461,1.112
	s0.169,0.819,0.461,1.111C55.596,30.955,56.002,31.122,56.415,31.122"/>
<path fill="#038B25" d="M62.89,7.075H8.647c-0.868,0-1.571,0.704-1.571,1.573v36.178c0,0.868,0.703,1.573,1.571,1.573H62.89
	c0.868,0,1.572-0.705,1.572-1.573V8.648C64.462,7.779,63.758,7.075,62.89,7.075 M30.963,43.254c0.663-2.021,2.566-3.485,4.806-3.485
	s4.144,1.464,4.807,3.485H30.963z M61.318,43.254h-17.5c-0.736-3.772-4.064-6.63-8.05-6.63c-0.417,0-0.827,0.032-1.228,0.093
	L23.759,18.934c-0.45-0.742-1.417-0.979-2.159-0.53c-0.743,0.451-0.979,1.417-0.529,2.161L31.525,37.81
	c-1.941,1.178-3.355,3.14-3.806,5.444h-17.5V10.22h51.099V43.254z"/>
<rect x="-1488.199" y="-688.282" fill="none" width="1920" height="2211.39"/>
<g>
	<defs>
		<rect id="SVGID_55_" x="-1488.199" y="-688.282" width="1920" height="2211.39"/>
	</defs>
	<clipPath id="SVGID_36_">
		<use xlink:href="#SVGID_55_"  overflow="visible"/>
	</clipPath>
</g>
<g>
	<defs>
		<rect id="SVGID_57_" x="-1488.199" y="-688.282" width="1920" height="2211.39"/>
	</defs>
	<clipPath id="SVGID_38_">
		<use xlink:href="#SVGID_57_"  overflow="visible"/>
	</clipPath>
</g>
</svg>
