<?xml version="1.0" encoding="utf-8"?>
<!-- Generator: Adobe Illustrator 16.0.0, SVG Export Plug-In . SVG Version: 6.00 Build 0)  -->
<!DOCTYPE svg PUBLIC "-//W3C//DTD SVG 1.1//EN" "http://www.w3.org/Graphics/SVG/1.1/DTD/svg11.dtd">
<svg version="1.1" id="Capa_1" xmlns="http://www.w3.org/2000/svg" xmlns:xlink="http://www.w3.org/1999/xlink" x="0px" y="0px"
	 width="92.77px" height="52.752px" viewBox="0 0 92.77 52.752" enable-background="new 0 0 92.77 52.752" xml:space="preserve">
<g>
	<defs>
		<rect id="SVGID_5_" x="-450.23" y="-1135.677" width="1920" height="2315.103"/>
	</defs>
	<clipPath id="SVGID_2_">
		<use xlink:href="#SVGID_5_"  overflow="visible"/>
	</clipPath>
</g>
<g>
	<defs>
		<rect id="SVGID_9_" x="-450.23" y="-1135.677" width="1920" height="2315.103"/>
	</defs>
	<clipPath id="SVGID_4_">
		<use xlink:href="#SVGID_9_"  overflow="visible"/>
	</clipPath>
</g>
<g>
	<defs>
		<rect id="SVGID_19_" x="-450.23" y="-1135.677" width="1920" height="2315.103"/>
	</defs>
	<clipPath id="SVGID_6_">
		<use xlink:href="#SVGID_19_"  overflow="visible"/>
	</clipPath>
</g>
<g>
	<defs>
		<rect id="SVGID_23_" x="-450.23" y="-1135.677" width="1920" height="2315.103"/>
	</defs>
	<clipPath id="SVGID_8_">
		<use xlink:href="#SVGID_23_"  overflow="visible"/>
	</clipPath>
</g>
<g>
	<defs>
		<rect id="SVGID_27_" x="-450.23" y="-1135.677" width="1920" height="2315.103"/>
	</defs>
	<clipPath id="SVGID_10_">
		<use xlink:href="#SVGID_27_"  overflow="visible"/>
	</clipPath>
</g>
<g>
	<defs>
		<rect id="SVGID_29_" x="-450.23" y="-1135.677" width="1920" height="2315.103"/>
	</defs>
	<clipPath id="SVGID_12_">
		<use xlink:href="#SVGID_29_"  overflow="visible"/>
	</clipPath>
</g>
<g>
	<defs>
		<rect id="SVGID_31_" x="-450.23" y="-1135.677" width="1920" height="2315.103"/>
	</defs>
	<clipPath id="SVGID_14_">
		<use xlink:href="#SVGID_31_"  overflow="visible"/>
	</clipPath>
</g>
<g>
	<defs>
		<rect id="SVGID_33_" x="-450.23" y="-1135.677" width="1920" height="2315.103"/>
	</defs>
	<clipPath id="SVGID_16_">
		<use xlink:href="#SVGID_33_"  overflow="visible"/>
	</clipPath>
</g>
<g>
	<defs>
		<rect id="SVGID_37_" x="-450.23" y="-1135.677" width="1920" height="2315.103"/>
	</defs>
	<clipPath id="SVGID_18_">
		<use xlink:href="#SVGID_37_"  overflow="visible"/>
	</clipPath>
</g>
<g>
	<defs>
		<rect id="SVGID_41_" x="-450.23" y="-1135.677" width="1920" height="2315.103"/>
	</defs>
	<clipPath id="SVGID_20_">
		<use xlink:href="#SVGID_41_"  overflow="visible"/>
	</clipPath>
</g>
<g>
	<defs>
		<rect id="SVGID_45_" x="-450.23" y="-1135.677" width="1920" height="2315.103"/>
	</defs>
	<clipPath id="SVGID_22_">
		<use xlink:href="#SVGID_45_"  overflow="visible"/>
	</clipPath>
</g>
<g>
	<defs>
		<rect id="SVGID_47_" x="-450.23" y="-1135.677" width="1920" height="2315.103"/>
	</defs>
	<clipPath id="SVGID_24_">
		<use xlink:href="#SVGID_47_"  overflow="visible"/>
	</clipPath>
</g>
<g>
	<defs>
		<rect id="SVGID_61_" x="-1.64" y="-415.192" width="366.41" height="352.03"/>
	</defs>
	<clipPath id="SVGID_26_">
		<use xlink:href="#SVGID_61_"  overflow="visible"/>
	</clipPath>
	<g clip-path="url(#SVGID_26_)">
		<defs>
			<rect id="SVGID_63_" x="-174.803" y="-842.331" width="1281.42" height="854.28"/>
		</defs>
		<clipPath id="SVGID_28_">
			<use xlink:href="#SVGID_63_"  overflow="visible"/>
		</clipPath>
	</g>
</g>
<g>
	<defs>
		<rect id="SVGID_73_" x="-450.23" y="-1135.677" width="1920" height="2315.103"/>
	</defs>
	<clipPath id="SVGID_30_">
		<use xlink:href="#SVGID_73_"  overflow="visible"/>
	</clipPath>
</g>
<g>
	<defs>
		<rect id="SVGID_75_" x="-450.23" y="-1135.677" width="1920" height="2315.103"/>
	</defs>
	<clipPath id="SVGID_32_">
		<use xlink:href="#SVGID_75_"  overflow="visible"/>
	</clipPath>
</g>
<g>
	<defs>
		<rect id="SVGID_77_" x="-450.23" y="-1135.677" width="1920" height="2315.103"/>
	</defs>
	<clipPath id="SVGID_34_">
		<use xlink:href="#SVGID_77_"  overflow="visible"/>
	</clipPath>
</g>
<path fill="#0468BE" d="M11.469,16.671c0.26-0.996,0.367-1.975,0.765-2.817c1.152-2.438,3.12-3.709,5.856-3.709
	c12.035,0,44.243,0.053,56.279-0.033c3.525-0.025,6.486,2.374,6.777,6.113c0.01,0.122,0.038,0.242,0.07,0.445l-0.055,30.137
	c-0.355,2.945-1.884,4.93-4.758,5.894l-59.86,0.051c-1.948-0.604-3.457-1.699-4.292-3.566c-0.194-0.434-0.451-0.896-0.454-1.347
	L11.469,16.671z M36.307,12.653c-5.908,0-11.817,0.073-17.723-0.033c-2.639-0.048-4.446,1.639-4.422,4.42
	c0.088,9.644,0.087,19.289,0.003,28.933c-0.026,3.012,2.014,4.434,4.449,4.425c11.847-0.043,43.867-0.016,55.715-0.017
	c2.698,0,4.292-1.591,4.293-4.291c0.004-9.677,0.005-19.353,0.002-29.029c-0.002-2.946-1.47-4.405-4.421-4.406
	C68.295,12.651,42.215,12.653,36.307,12.653"/>
<path fill="#0468BE" d="M82.749,31.637c0-4.677,0-9.354,0.001-14.031c0-0.3-0.1-0.68,0.045-0.881
	c0.286-0.399,0.681-0.916,1.085-0.969c0.34-0.044,0.827,0.444,1.114,0.804c0.169,0.213,0.098,0.634,0.098,0.961
	c0.006,9.414,0.008,18.828,0.005,28.242c0,0.327,0.008,0.671-0.085,0.978c-0.179,0.584-0.648,0.974-1.222,0.777
	c-0.402-0.136-0.723-0.592-1.001-0.965c-0.118-0.156-0.039-0.465-0.039-0.705C82.749,41.111,82.749,36.374,82.749,31.637"/>
<path fill="#0468BE" d="M86.782,28.007c0-4.677,0-2.497,0.001-7.175c0-0.3-0.1-0.679,0.045-0.881
	c0.286-0.398,0.681-0.916,1.085-0.968c0.34-0.044,0.827,0.444,1.114,0.803c0.169,0.213,0.098,0.634,0.098,0.961
	c0.006,9.414,0.008,11.972,0.005,21.386c0,0.327,0.008,0.671-0.085,0.978c-0.179,0.585-0.648,0.974-1.222,0.777
	c-0.402-0.136-0.723-0.592-1.001-0.965c-0.118-0.156-0.039-0.465-0.039-0.705C86.782,37.481,86.782,32.744,86.782,28.007"/>
<path fill="#0468BE" d="M90.412,24.377c0-4.677,0,5.973,0.001,1.295c0-0.3-0.1-0.68,0.045-0.881
	c0.286-0.398,0.681-0.916,1.085-0.969c0.34-0.045,0.827,0.444,1.114,0.804c0.169,0.213,0.098,0.634,0.098,0.961
	c0.006,9.414,0.008,3.502,0.005,12.916c0,0.327,0.008,0.671-0.085,0.978c-0.179,0.584-0.648,0.974-1.222,0.777
	c-0.402-0.136-0.723-0.592-1.001-0.965c-0.118-0.156-0.039-0.465-0.039-0.705C90.412,33.852,90.412,29.114,90.412,24.377"/>
<path fill="#0468BE" d="M10.046,31.646c0,4.688,0,9.378-0.001,14.065c0,0.302,0.1,0.683-0.045,0.885
	c-0.286,0.398-0.683,0.918-1.088,0.971c-0.341,0.044-0.828-0.445-1.116-0.807c-0.17-0.212-0.099-0.636-0.099-0.962
	C7.692,36.36,7.69,26.922,7.692,17.484c0-0.327-0.008-0.673,0.086-0.98c0.179-0.586,0.649-0.975,1.225-0.779
	c0.402,0.137,0.725,0.594,1.003,0.967c0.119,0.157,0.039,0.467,0.039,0.707C10.046,22.148,10.046,26.897,10.046,31.646"/>
<path fill="#0468BE" d="M6.003,35.285c0,4.688,0,2.504-0.001,7.191c0,0.301,0.1,0.683-0.045,0.885
	c-0.287,0.398-0.683,0.917-1.088,0.971c-0.341,0.044-0.828-0.445-1.116-0.807c-0.17-0.212-0.099-0.635-0.099-0.963
	c-0.006-9.438-0.007-12.002-0.005-21.438c0-0.328-0.008-0.673,0.085-0.981c0.179-0.585,0.65-0.975,1.226-0.779
	c0.402,0.137,0.724,0.594,1.003,0.967c0.118,0.158,0.039,0.467,0.039,0.707C6.003,25.787,6.003,30.536,6.003,35.285"/>
<path fill="#0468BE" d="M2.364,38.924c0,4.688,0-5.987-0.001-1.298c0,0.3,0.1,0.682-0.045,0.883
	c-0.286,0.399-0.683,0.918-1.088,0.971c-0.341,0.045-0.828-0.445-1.116-0.806c-0.17-0.213-0.099-0.635-0.099-0.963
	C0.01,28.273,0.008,34.199,0.01,24.763c0-0.328-0.008-0.673,0.086-0.979c0.179-0.586,0.649-0.977,1.225-0.78
	c0.402,0.137,0.725,0.595,1.003,0.968c0.118,0.157,0.039,0.466,0.039,0.706C2.364,29.426,2.364,34.175,2.364,38.924"/>
<path fill="#0468BE" d="M29.746,3.438c0-0.26-0.096-0.573,0.059-0.768c0.244-0.307,0.607-0.661,1.022-0.768
	c0.591-0.152,1.089,0.142,1.273,0.611c0.095,0.243,0.11,0.512,0.111,0.769c0.002,2.782-0.001,5.564,0,8.346h2.476
	c0-0.916,0.001-1.831,0.001-2.747c0-1.964,0.021-3.93-0.007-5.895C34.655,1.184,33.069-0.032,30.847,0
	c-2.125,0.03-3.596,1.27-3.603,3.086c-0.011,2.848-0.009,5.695-0.006,8.542h2.507C29.745,8.898,29.744,6.168,29.746,3.438"/>
<path fill="#0468BE" d="M45.299,3.438c0-0.26-0.095-0.573,0.059-0.768c0.245-0.307,0.608-0.661,1.022-0.768
	c0.591-0.152,1.089,0.142,1.273,0.611c0.096,0.243,0.111,0.512,0.111,0.769c0.002,2.782,0,5.564,0,8.346h2.477
	c-0.001-0.916,0-1.831,0-2.747c0-1.964,0.022-3.93-0.007-5.895C50.208,1.184,48.622-0.032,46.4,0
	c-2.124,0.03-3.595,1.27-3.602,3.086c-0.012,2.848-0.009,5.695-0.007,8.542h2.507C45.298,8.898,45.298,6.168,45.299,3.438"/>
<path fill="#0468BE" d="M59.609,3.438c0-0.26-0.096-0.573,0.059-0.768c0.245-0.307,0.607-0.661,1.022-0.768
	c0.591-0.152,1.089,0.142,1.273,0.611c0.096,0.243,0.111,0.512,0.111,0.769c0.002,2.782-0.001,5.564,0,8.346h2.476
	c0-0.916,0.001-1.831,0.001-2.747c0-1.964,0.022-3.93-0.007-5.895C64.519,1.184,62.932-0.032,60.71,0
	c-2.124,0.03-3.596,1.27-3.603,3.086c-0.011,2.848-0.008,5.695-0.006,8.542h2.507C59.608,8.898,59.608,6.168,59.609,3.438"/>
<rect x="-450.23" y="-1135.677" fill="none" width="1920" height="2315.103"/>
<g>
	<defs>
		<rect id="SVGID_79_" x="-450.23" y="-1135.677" width="1920" height="2315.103"/>
	</defs>
	<clipPath id="SVGID_36_">
		<use xlink:href="#SVGID_79_"  overflow="visible"/>
	</clipPath>
</g>
<g>
	<defs>
		<rect id="SVGID_81_" x="-450.23" y="-1135.677" width="1920" height="2315.103"/>
	</defs>
	<clipPath id="SVGID_38_">
		<use xlink:href="#SVGID_81_"  overflow="visible"/>
	</clipPath>
</g>
<g>
	<defs>
		<rect id="SVGID_83_" x="-450.23" y="-1135.677" width="1920" height="2315.103"/>
	</defs>
	<clipPath id="SVGID_40_">
		<use xlink:href="#SVGID_83_"  overflow="visible"/>
	</clipPath>
</g>
<g>
	<defs>
		<rect id="SVGID_85_" x="-450.23" y="-1135.677" width="1920" height="2315.103"/>
	</defs>
	<clipPath id="SVGID_42_">
		<use xlink:href="#SVGID_85_"  overflow="visible"/>
	</clipPath>
</g>
<g>
	<defs>
		<rect id="SVGID_87_" x="-450.23" y="-1135.677" width="1920" height="2315.103"/>
	</defs>
	<clipPath id="SVGID_44_">
		<use xlink:href="#SVGID_87_"  overflow="visible"/>
	</clipPath>
</g>
<rect x="-450.23" y="-1135.674" fill="none" width="1920" height="2315.1"/>
</svg>
