<?xml version="1.0" encoding="utf-8"?>
<!-- Generator: Adobe Illustrator 16.0.0, SVG Export Plug-In . SVG Version: 6.00 Build 0)  -->
<!DOCTYPE svg PUBLIC "-//W3C//DTD SVG 1.1//EN" "http://www.w3.org/Graphics/SVG/1.1/DTD/svg11.dtd">
<svg version="1.1" id="Capa_1" xmlns="http://www.w3.org/2000/svg" xmlns:xlink="http://www.w3.org/1999/xlink" x="0px" y="0px"
	 width="24.121px" height="42.499px" viewBox="0 0 24.121 42.499" enable-background="new 0 0 24.121 42.499" xml:space="preserve">
<g>
	<defs>
		<rect id="SVGID_32_" x="-1461.506" y="-5193.931" width="1920" height="5337.103"/>
	</defs>
	<clipPath id="SVGID_2_">
		<use xlink:href="#SVGID_32_"  overflow="visible"/>
	</clipPath>
</g>
<g>
	<defs>
		<rect id="SVGID_36_" x="-1461.506" y="-5193.931" width="1920" height="5337.103"/>
	</defs>
	<clipPath id="SVGID_4_">
		<use xlink:href="#SVGID_36_"  overflow="visible"/>
	</clipPath>
</g>
<g>
	<defs>
		<rect id="SVGID_46_" x="-1461.506" y="-5193.931" width="1920" height="5337.103"/>
	</defs>
	<clipPath id="SVGID_6_">
		<use xlink:href="#SVGID_46_"  overflow="visible"/>
	</clipPath>
</g>
<g>
	<defs>
		<rect id="SVGID_50_" x="-1461.506" y="-5193.931" width="1920" height="5337.103"/>
	</defs>
	<clipPath id="SVGID_7_">
		<use xlink:href="#SVGID_50_"  overflow="visible"/>
	</clipPath>
</g>
<g>
	<defs>
		<rect id="SVGID_54_" x="-1461.506" y="-5193.931" width="1920" height="5337.103"/>
	</defs>
	<clipPath id="SVGID_8_">
		<use xlink:href="#SVGID_54_"  overflow="visible"/>
	</clipPath>
</g>
<g>
	<defs>
		<rect id="SVGID_56_" x="-1461.506" y="-5193.931" width="1920" height="5337.103"/>
	</defs>
	<clipPath id="SVGID_9_">
		<use xlink:href="#SVGID_56_"  overflow="visible"/>
	</clipPath>
</g>
<g>
	<defs>
		<rect id="SVGID_58_" x="-1461.506" y="-5193.931" width="1920" height="5337.103"/>
	</defs>
	<clipPath id="SVGID_11_">
		<use xlink:href="#SVGID_58_"  overflow="visible"/>
	</clipPath>
</g>
<g>
	<defs>
		<rect id="SVGID_60_" x="-1461.506" y="-5193.931" width="1920" height="5337.103"/>
	</defs>
	<clipPath id="SVGID_13_">
		<use xlink:href="#SVGID_60_"  overflow="visible"/>
	</clipPath>
</g>
<rect x="-1461.506" y="-5193.931" fill="none" width="1920" height="5337.103"/>
<g>
	<defs>
		<rect id="SVGID_64_" x="-1461.506" y="-5193.931" width="1920" height="5337.103"/>
	</defs>
	<clipPath id="SVGID_15_">
		<use xlink:href="#SVGID_64_"  overflow="visible"/>
	</clipPath>
</g>
<g>
	<defs>
		<rect id="SVGID_68_" x="-1461.506" y="-5193.931" width="1920" height="5337.103"/>
	</defs>
	<clipPath id="SVGID_16_">
		<use xlink:href="#SVGID_68_"  overflow="visible"/>
	</clipPath>
</g>
<g>
	<defs>
		<rect id="SVGID_72_" x="-1461.506" y="-5193.931" width="1920" height="5337.103"/>
	</defs>
	<clipPath id="SVGID_17_">
		<use xlink:href="#SVGID_72_"  overflow="visible"/>
	</clipPath>
</g>
<g>
	<defs>
		<rect id="SVGID_74_" x="-1461.506" y="-5193.931" width="1920" height="5337.103"/>
	</defs>
	<clipPath id="SVGID_18_">
		<use xlink:href="#SVGID_74_"  overflow="visible"/>
	</clipPath>
	<path clip-path="url(#SVGID_18_)" fill="#F1D060" d="M14.899,42.499H8.094c-1.137,0-2.062-0.925-2.062-2.062V25.087H2.062
		C0.925,25.087,0,24.161,0,23.024v-6.577c0-1.137,0.925-2.062,2.062-2.062h3.971v-3.294c0-3.266,1.025-6.045,2.966-8.035
		C10.946,1.057,13.67,0,16.873,0l5.19,0.009c1.135,0.002,2.058,0.927,2.058,2.062v6.107c0,1.136-0.924,2.062-2.061,2.062
		l-3.495,0.001c-1.065,0-1.337,0.214-1.395,0.279c-0.096,0.108-0.21,0.416-0.21,1.264v2.603h4.837c0.364,0,0.717,0.09,1.02,0.259
		c0.654,0.365,1.062,1.057,1.062,1.803l-0.004,6.577c0,1.137-0.924,2.062-2.061,2.062h-4.854v15.352
		C16.961,41.574,16.036,42.499,14.899,42.499 M8.523,40.007h5.946V23.971c0-0.759,0.617-1.376,1.376-1.376h5.539l0.002-5.718h-5.541
		c-0.759,0-1.376-0.617-1.376-1.376v-3.718c0-0.974,0.099-2.08,0.833-2.912c0.888-1.006,2.287-1.122,3.263-1.122l3.064-0.001V2.5
		l-4.759-0.008c-5.148,0-8.348,3.295-8.348,8.6v4.409c0,0.759-0.617,1.376-1.376,1.376H2.491v5.718h4.656
		c0.759,0,1.376,0.617,1.376,1.376V40.007z"/>
</g>
<g>
	<defs>
		<rect id="SVGID_76_" x="-1461.506" y="-5193.931" width="1920" height="5337.103"/>
	</defs>
	<clipPath id="SVGID_20_">
		<use xlink:href="#SVGID_76_"  overflow="visible"/>
	</clipPath>
</g>
<g>
	<defs>
		<rect id="SVGID_82_" x="-1461.506" y="-5193.931" width="1920" height="5337.103"/>
	</defs>
	<clipPath id="SVGID_22_">
		<use xlink:href="#SVGID_82_"  overflow="visible"/>
	</clipPath>
</g>
<g>
	<defs>
		<rect id="SVGID_88_" x="-1461.506" y="-5193.931" width="1920" height="5337.103"/>
	</defs>
	<clipPath id="SVGID_24_">
		<use xlink:href="#SVGID_88_"  overflow="visible"/>
	</clipPath>
</g>
<g>
	<defs>
		<rect id="SVGID_90_" x="-1461.506" y="-5193.931" width="1920" height="5337.103"/>
	</defs>
	<clipPath id="SVGID_25_">
		<use xlink:href="#SVGID_90_"  overflow="visible"/>
	</clipPath>
</g>
<g>
	<defs>
		<rect id="SVGID_104_" x="-1461.506" y="-5193.931" width="1920" height="5337.103"/>
	</defs>
	<clipPath id="SVGID_26_">
		<use xlink:href="#SVGID_104_"  overflow="visible"/>
	</clipPath>
</g>
<g>
	<defs>
		<rect id="SVGID_106_" x="-1461.506" y="-5193.931" width="1920" height="5337.103"/>
	</defs>
	<clipPath id="SVGID_27_">
		<use xlink:href="#SVGID_106_"  overflow="visible"/>
	</clipPath>
</g>
<g>
	<defs>
		<rect id="SVGID_108_" x="-1461.506" y="-5193.931" width="1920" height="5337.103"/>
	</defs>
	<clipPath id="SVGID_29_">
		<use xlink:href="#SVGID_108_"  overflow="visible"/>
	</clipPath>
</g>
<g>
	<defs>
		<rect id="SVGID_118_" x="-1461.506" y="-5193.931" width="1920" height="5337.103"/>
	</defs>
	<clipPath id="SVGID_31_">
		<use xlink:href="#SVGID_118_"  overflow="visible"/>
	</clipPath>
</g>
<g>
	<defs>
		<rect id="SVGID_120_" x="-1461.506" y="-5193.931" width="1920" height="5337.103"/>
	</defs>
	<clipPath id="SVGID_33_">
		<use xlink:href="#SVGID_120_"  overflow="visible"/>
	</clipPath>
</g>
<g>
	<defs>
		<rect id="SVGID_122_" x="-1461.506" y="-5193.931" width="1920" height="5337.103"/>
	</defs>
	<clipPath id="SVGID_35_">
		<use xlink:href="#SVGID_122_"  overflow="visible"/>
	</clipPath>
</g>
<g>
	<defs>
		<rect id="SVGID_124_" x="-1461.506" y="-5193.931" width="1920" height="5337.103"/>
	</defs>
	<clipPath id="SVGID_37_">
		<use xlink:href="#SVGID_124_"  overflow="visible"/>
	</clipPath>
</g>
<g>
	<defs>
		<rect id="SVGID_126_" x="-1461.506" y="-5193.931" width="1920" height="5337.103"/>
	</defs>
	<clipPath id="SVGID_39_">
		<use xlink:href="#SVGID_126_"  overflow="visible"/>
	</clipPath>
</g>
<g>
	<defs>
		<rect id="SVGID_128_" x="-1461.506" y="-5193.931" width="1920" height="5337.103"/>
	</defs>
	<clipPath id="SVGID_41_">
		<use xlink:href="#SVGID_128_"  overflow="visible"/>
	</clipPath>
</g>
<g>
	<defs>
		<rect id="SVGID_146_" x="-1461.506" y="-5193.931" width="1920" height="5337.103"/>
	</defs>
	<clipPath id="SVGID_43_">
		<use xlink:href="#SVGID_146_"  overflow="visible"/>
	</clipPath>
</g>
<g>
	<defs>
		<rect id="SVGID_148_" x="-1461.506" y="-5193.931" width="1920" height="5337.103"/>
	</defs>
	<clipPath id="SVGID_45_">
		<use xlink:href="#SVGID_148_"  overflow="visible"/>
	</clipPath>
</g>
<g>
	<defs>
		<rect id="SVGID_156_" x="-1461.506" y="-5193.931" width="1920" height="5337.103"/>
	</defs>
	<clipPath id="SVGID_47_">
		<use xlink:href="#SVGID_156_"  overflow="visible"/>
	</clipPath>
</g>
<rect x="-1461.506" y="-5193.928" fill="none" width="1920" height="5337.1"/>
</svg>
