<?xml version="1.0" encoding="utf-8"?>
<!-- Generator: Adobe Illustrator 16.0.0, SVG Export Plug-In . SVG Version: 6.00 Build 0)  -->
<!DOCTYPE svg PUBLIC "-//W3C//DTD SVG 1.1//EN" "http://www.w3.org/Graphics/SVG/1.1/DTD/svg11.dtd">
<svg version="1.1" id="Capa_1" xmlns="http://www.w3.org/2000/svg" xmlns:xlink="http://www.w3.org/1999/xlink" x="0px" y="0px"
	 width="147.718px" height="126.871px" viewBox="0 0 147.718 126.871" enable-background="new 0 0 147.718 126.871"
	 xml:space="preserve">
<g>
	<defs>
		<rect id="SVGID_1_" x="-172" y="-1060.096" width="1920" height="5337.1"/>
	</defs>
	<clipPath id="SVGID_2_">
		<use xlink:href="#SVGID_1_"  overflow="visible"/>
	</clipPath>
	<g clip-path="url(#SVGID_2_)">
		<defs>
			<rect id="SVGID_34_" x="-172" y="-1060.099" width="1920" height="5337.103"/>
		</defs>
		<clipPath id="SVGID_4_">
			<use xlink:href="#SVGID_34_"  overflow="visible"/>
		</clipPath>
	</g>
	<g clip-path="url(#SVGID_2_)">
		<defs>
			<rect id="SVGID_38_" x="-172" y="-1060.099" width="1920" height="5337.103"/>
		</defs>
		<clipPath id="SVGID_6_">
			<use xlink:href="#SVGID_38_"  overflow="visible"/>
		</clipPath>
	</g>
	<g clip-path="url(#SVGID_2_)">
		<defs>
			<rect id="SVGID_48_" x="-172" y="-1060.099" width="1920" height="5337.103"/>
		</defs>
		<clipPath id="SVGID_8_">
			<use xlink:href="#SVGID_48_"  overflow="visible"/>
		</clipPath>
	</g>
	<g clip-path="url(#SVGID_2_)">
		<defs>
			<rect id="SVGID_52_" x="-172" y="-1060.099" width="1920" height="5337.103"/>
		</defs>
		<clipPath id="SVGID_9_">
			<use xlink:href="#SVGID_52_"  overflow="visible"/>
		</clipPath>
	</g>
	<g clip-path="url(#SVGID_2_)">
		<defs>
			<rect id="SVGID_56_" x="-172" y="-1060.099" width="1920" height="5337.103"/>
		</defs>
		<clipPath id="SVGID_10_">
			<use xlink:href="#SVGID_56_"  overflow="visible"/>
		</clipPath>
	</g>
	<g clip-path="url(#SVGID_2_)">
		<defs>
			<rect id="SVGID_58_" x="-172" y="-1060.099" width="1920" height="5337.103"/>
		</defs>
		<clipPath id="SVGID_11_">
			<use xlink:href="#SVGID_58_"  overflow="visible"/>
		</clipPath>
	</g>
	<g clip-path="url(#SVGID_2_)">
		<defs>
			<rect id="SVGID_60_" x="-172" y="-1060.099" width="1920" height="5337.103"/>
		</defs>
		<clipPath id="SVGID_13_">
			<use xlink:href="#SVGID_60_"  overflow="visible"/>
		</clipPath>
		<path clip-path="url(#SVGID_13_)" fill="#0468BE" d="M87.166,92.27c-1.592,0-2.884,1.292-2.884,2.884
			c0,1.591,1.292,2.883,2.884,2.883c1.591,0,2.883-1.292,2.883-2.883C90.049,93.562,88.757,92.27,87.166,92.27"/>
		<path clip-path="url(#SVGID_13_)" fill="#0468BE" d="M121.767,92.27H98.7c-1.593,0-2.884,1.291-2.884,2.884
			c0,1.592,1.291,2.883,2.884,2.883h23.067c1.592,0,2.883-1.291,2.883-2.883C124.65,93.561,123.359,92.27,121.767,92.27"/>
		<path clip-path="url(#SVGID_13_)" fill="#0468BE" d="M136.185,23.358v-7.499c0-2.697-1.05-5.232-2.956-7.137
			c-1.905-1.905-4.439-2.955-7.136-2.955c-2.182,0-4.201,0.698-5.854,1.879c-1.784-2.858-4.955-4.763-8.563-4.763
			c-2.18,0-4.197,0.697-5.849,1.875c-0.403-0.645-0.88-1.251-1.432-1.803C102.489,1.05,99.954,0,97.258,0
			c-2.822,0-5.375,1.165-7.208,3.039C88.216,1.166,85.663,0,82.841,0c-5.565,0-10.092,4.528-10.092,10.092v12.976H44.44
			c-2.761-4.115-6.693-7.416-11.232-9.389c-3.272-1.424-6.752-2.146-10.342-2.146c-9.226,0-17.835,4.964-22.465,12.955
			c-0.514,0.885-0.519,1.978-0.013,2.869c0.506,0.891,1.446,1.447,2.47,1.46c1.357,0.017,2.708,0.017,2.708,0.017h10.339
			l4.078,4.078v9.145l-4.078,4.078H2.884c-1.031,0-1.983,0.55-2.498,1.442c-0.515,0.894-0.514,1.994,0.002,2.886
			c4.632,8.002,13.245,12.973,22.478,12.973c8.665,0,16.784-4.379,21.58-11.534H59.65c1.009,2.657,2.571,5.084,4.593,7.105
			l10.051,10.052c2.722,2.722,4.222,6.342,4.222,10.192v1.486h-2.883c-1.593,0-2.884,1.291-2.884,2.882v40.369
			c0,1.592,1.291,2.883,2.884,2.883h57.668c1.593,0,2.884-1.291,2.884-2.883V83.619c0-1.591-1.291-2.882-2.884-2.882h-2.883v-2.204
			c0-3.569,0.802-7.165,2.321-10.395c2.318-4.929,3.446-9.435,3.446-13.776v-2.749c6.573-1.34,11.533-7.165,11.533-14.127
			C147.718,30.523,142.758,24.698,136.185,23.358 M40.353,47.573C36.748,53.8,30.048,57.669,22.866,57.669
			c-5.327,0-10.388-2.128-14.118-5.767h8.351c0.764,0,1.498-0.304,2.039-0.844l5.767-5.767c0.541-0.541,0.844-1.274,0.844-2.039
			V31.718c0-0.765-0.303-1.498-0.844-2.039l-5.767-5.767c-0.541-0.541-1.274-0.844-2.039-0.844H8.748
			c3.729-3.64,8.791-5.767,14.118-5.767c2.794,0,5.5,0.561,8.043,1.667c3.934,1.711,7.288,4.703,9.443,8.428
			c1.765,3.052,2.698,6.541,2.698,10.09C43.05,41.031,42.117,44.52,40.353,47.573 M121.767,15.859c0-2.385,1.94-4.326,4.325-4.326
			c1.157,0,2.243,0.451,3.059,1.267c0.817,0.816,1.266,1.902,1.266,3.059v14.418c0,2.384-1.94,4.324-4.325,4.324
			s-4.325-1.94-4.325-4.324V15.859z M107.35,25.951V12.976c0-2.385,1.94-4.325,4.325-4.325S116,10.591,116,12.976v2.883v14.418
			c0,2.384-1.94,4.324-4.325,4.324c-1.156,0-2.242-0.449-3.059-1.266c-0.816-0.816-1.266-1.902-1.266-3.058V25.951z M92.933,10.092
			c0-2.385,1.94-4.325,4.325-4.325c1.156,0,2.242,0.45,3.059,1.266c0.817,0.817,1.266,1.903,1.266,3.059v2.884v10.092h-8.65V10.092z
			 M78.516,10.092c0-2.385,1.94-4.325,4.325-4.325s4.325,1.94,4.325,4.325v12.976h-8.65V10.092z M58.332,43.251v1.486
			c0,0.466,0.018,0.932,0.051,1.398H47.332c0.976-2.766,1.485-5.692,1.485-8.65c0-2.959-0.509-5.886-1.484-8.65h17.063
			c-0.73,0.712-1.409,1.482-2.028,2.307C59.765,34.614,58.332,38.914,58.332,43.251 M130.418,121.104H78.516V86.503h2.883h46.135
			h2.883L130.418,121.104L130.418,121.104z M130.418,54.361c0,3.474-0.949,7.177-2.898,11.323
			c-1.877,3.994-2.869,8.437-2.869,12.849v2.203H84.282v-1.485c0-5.391-2.099-10.459-5.91-14.27L68.32,54.929
			c-1.829-1.829-3.133-4.119-3.772-6.626c-0.298-1.165-0.449-2.365-0.449-3.567v-1.485c0-3.098,1.024-6.171,2.883-8.651
			c2.708-3.611,7.02-5.766,11.534-5.766h22.696c-0.51,1.987-1.538,3.8-3.009,5.271c-2.179,2.179-5.075,3.379-8.153,3.379H81.4
			c-1.496,0-2.744,1.144-2.873,2.634c-0.129,1.491,0.902,2.832,2.376,3.09c4.763,0.832,8.909,3.48,11.672,7.455
			c0.006,0.009,0.014,0.017,0.02,0.026c2.069,2.992,3.173,6.496,3.193,10.136l0.029,5.508c0.008,1.587,1.297,2.868,2.882,2.868
			h0.016c1.592-0.007,2.877-1.305,2.868-2.898l-0.029-5.508c-0.016-3.083-0.624-6.091-1.776-8.894h30.64V54.361z M133.301,46.135
			H96.39c-0.926-1.167-1.948-2.234-3.054-3.193c3.367-0.645,6.465-2.28,8.945-4.759c0.527-0.527,1.014-1.084,1.464-1.666
			c0.245,0.311,0.509,0.611,0.793,0.896c1.906,1.906,4.44,2.955,7.137,2.955c2.822,0,5.376-1.166,7.209-3.039
			c1.833,1.873,4.386,3.039,7.208,3.039c5.565,0,10.092-4.527,10.092-10.091V29.33c3.356,1.191,5.767,4.396,5.767,8.155
			C141.951,42.254,138.071,46.135,133.301,46.135"/>
		<path clip-path="url(#SVGID_13_)" fill="#0468BE" d="M40.352,47.573C36.748,53.8,30.048,57.669,22.865,57.669
			c-5.326,0-10.388-2.128-14.118-5.767h8.351c0.765,0,1.498-0.304,2.039-0.844l5.767-5.767c0.541-0.541,0.845-1.274,0.845-2.039
			V31.718c0-0.765-0.304-1.498-0.845-2.039l-5.767-5.767c-0.541-0.541-1.274-0.844-2.039-0.844H8.747
			c3.729-3.64,8.791-5.767,14.118-5.767c2.794,0,5.5,0.561,8.043,1.667c3.935,1.711,7.289,4.703,9.444,8.428
			c1.764,3.052,2.697,6.541,2.697,10.09C43.049,41.031,42.116,44.52,40.352,47.573 M58.382,46.135h-11.05
			c0.975-2.766,1.484-5.692,1.484-8.65c0-2.959-0.508-5.886-1.483-8.65h17.063l8.352-5.767H44.439
			c-2.76-4.115-6.693-7.416-11.231-9.389c-3.272-1.424-6.752-2.146-10.343-2.146c-9.226,0-17.835,4.964-22.465,12.955
			c-0.514,0.885-0.518,1.978-0.013,2.869c0.506,0.891,1.446,1.447,2.47,1.46c1.357,0.017,2.708,0.017,2.708,0.017h10.339
			l4.078,4.078v9.145l-4.078,4.078H2.883c-1.03,0-1.983,0.55-2.498,1.442c-0.514,0.894-0.514,1.994,0.003,2.886
			c4.631,8.002,13.244,12.973,22.477,12.973c8.665,0,16.785-4.379,21.58-11.534H59.65L58.382,46.135z"/>
	</g>
	<g clip-path="url(#SVGID_2_)">
		<defs>
			<rect id="SVGID_62_" x="-172" y="-1060.099" width="1920" height="5337.103"/>
		</defs>
		<clipPath id="SVGID_15_">
			<use xlink:href="#SVGID_62_"  overflow="visible"/>
		</clipPath>
	</g>
	<g clip-path="url(#SVGID_2_)">
		<defs>
			<rect id="SVGID_64_" x="-172" y="-1060.099" width="1920" height="5337.103"/>
		</defs>
		<clipPath id="SVGID_17_">
			<use xlink:href="#SVGID_64_"  overflow="visible"/>
		</clipPath>
	</g>
	<g clip-path="url(#SVGID_2_)">
		<defs>
			<rect id="SVGID_68_" x="-172" y="-1060.099" width="1920" height="5337.103"/>
		</defs>
		<clipPath id="SVGID_18_">
			<use xlink:href="#SVGID_68_"  overflow="visible"/>
		</clipPath>
	</g>
	<g clip-path="url(#SVGID_2_)">
		<defs>
			<rect id="SVGID_72_" x="-172" y="-1060.099" width="1920" height="5337.103"/>
		</defs>
		<clipPath id="SVGID_19_">
			<use xlink:href="#SVGID_72_"  overflow="visible"/>
		</clipPath>
	</g>
	<g clip-path="url(#SVGID_2_)">
		<defs>
			<rect id="SVGID_76_" x="-172" y="-1060.099" width="1920" height="5337.103"/>
		</defs>
		<clipPath id="SVGID_20_">
			<use xlink:href="#SVGID_76_"  overflow="visible"/>
		</clipPath>
	</g>
	<g clip-path="url(#SVGID_2_)">
		<defs>
			<rect id="SVGID_78_" x="-172" y="-1060.099" width="1920" height="5337.103"/>
		</defs>
		<clipPath id="SVGID_22_">
			<use xlink:href="#SVGID_78_"  overflow="visible"/>
		</clipPath>
	</g>
	<g clip-path="url(#SVGID_2_)">
		<defs>
			<rect id="SVGID_80_" x="-172" y="-1060.099" width="1920" height="5337.103"/>
		</defs>
		<clipPath id="SVGID_24_">
			<use xlink:href="#SVGID_80_"  overflow="visible"/>
		</clipPath>
	</g>
	<g clip-path="url(#SVGID_2_)">
		<defs>
			<rect id="SVGID_86_" x="-172" y="-1060.099" width="1920" height="5337.103"/>
		</defs>
		<clipPath id="SVGID_26_">
			<use xlink:href="#SVGID_86_"  overflow="visible"/>
		</clipPath>
	</g>
	<g clip-path="url(#SVGID_2_)">
		<defs>
			<rect id="SVGID_92_" x="-172" y="-1060.099" width="1920" height="5337.103"/>
		</defs>
		<clipPath id="SVGID_27_">
			<use xlink:href="#SVGID_92_"  overflow="visible"/>
		</clipPath>
	</g>
	<g clip-path="url(#SVGID_2_)">
		<defs>
			<rect id="SVGID_94_" x="-172" y="-1060.099" width="1920" height="5337.103"/>
		</defs>
		<clipPath id="SVGID_28_">
			<use xlink:href="#SVGID_94_"  overflow="visible"/>
		</clipPath>
	</g>
	<g clip-path="url(#SVGID_2_)">
		<defs>
			<rect id="SVGID_108_" x="-172" y="-1060.099" width="1920" height="5337.103"/>
		</defs>
		<clipPath id="SVGID_29_">
			<use xlink:href="#SVGID_108_"  overflow="visible"/>
		</clipPath>
	</g>
	<g clip-path="url(#SVGID_2_)">
		<defs>
			<rect id="SVGID_110_" x="-172" y="-1060.099" width="1920" height="5337.103"/>
		</defs>
		<clipPath id="SVGID_31_">
			<use xlink:href="#SVGID_110_"  overflow="visible"/>
		</clipPath>
	</g>
	<g clip-path="url(#SVGID_2_)">
		<defs>
			<rect id="SVGID_112_" x="-172" y="-1060.099" width="1920" height="5337.103"/>
		</defs>
		<clipPath id="SVGID_33_">
			<use xlink:href="#SVGID_112_"  overflow="visible"/>
		</clipPath>
	</g>
	<g clip-path="url(#SVGID_2_)">
		<defs>
			<rect id="SVGID_122_" x="-172" y="-1060.099" width="1920" height="5337.103"/>
		</defs>
		<clipPath id="SVGID_35_">
			<use xlink:href="#SVGID_122_"  overflow="visible"/>
		</clipPath>
	</g>
	<g clip-path="url(#SVGID_2_)">
		<defs>
			<rect id="SVGID_124_" x="-172" y="-1060.099" width="1920" height="5337.103"/>
		</defs>
		<clipPath id="SVGID_37_">
			<use xlink:href="#SVGID_124_"  overflow="visible"/>
		</clipPath>
	</g>
	<g clip-path="url(#SVGID_2_)">
		<defs>
			<rect id="SVGID_126_" x="-172" y="-1060.099" width="1920" height="5337.103"/>
		</defs>
		<clipPath id="SVGID_39_">
			<use xlink:href="#SVGID_126_"  overflow="visible"/>
		</clipPath>
	</g>
	<g clip-path="url(#SVGID_2_)">
		<defs>
			<rect id="SVGID_128_" x="-172" y="-1060.099" width="1920" height="5337.103"/>
		</defs>
		<clipPath id="SVGID_41_">
			<use xlink:href="#SVGID_128_"  overflow="visible"/>
		</clipPath>
	</g>
	<g clip-path="url(#SVGID_2_)">
		<defs>
			<rect id="SVGID_130_" x="-172" y="-1060.099" width="1920" height="5337.103"/>
		</defs>
		<clipPath id="SVGID_43_">
			<use xlink:href="#SVGID_130_"  overflow="visible"/>
		</clipPath>
	</g>
	<g clip-path="url(#SVGID_2_)">
		<defs>
			<rect id="SVGID_132_" x="-172" y="-1060.099" width="1920" height="5337.103"/>
		</defs>
		<clipPath id="SVGID_45_">
			<use xlink:href="#SVGID_132_"  overflow="visible"/>
		</clipPath>
	</g>
	<g clip-path="url(#SVGID_2_)">
		<defs>
			<rect id="SVGID_150_" x="-172" y="-1060.099" width="1920" height="5337.103"/>
		</defs>
		<clipPath id="SVGID_47_">
			<use xlink:href="#SVGID_150_"  overflow="visible"/>
		</clipPath>
	</g>
	<g clip-path="url(#SVGID_2_)">
		<defs>
			<rect id="SVGID_152_" x="-172" y="-1060.099" width="1920" height="5337.103"/>
		</defs>
		<clipPath id="SVGID_49_">
			<use xlink:href="#SVGID_152_"  overflow="visible"/>
		</clipPath>
		<g clip-path="url(#SVGID_49_)">
			<defs>
				<rect id="SVGID_154_" x="-1089.409" y="-339.613" width="366.409" height="352.029"/>
			</defs>
			<clipPath id="SVGID_51_">
				<use xlink:href="#SVGID_154_"  overflow="visible"/>
			</clipPath>
			<g clip-path="url(#SVGID_51_)">
				<defs>
					<rect id="SVGID_156_" x="-1262.573" y="-766.753" width="1281.42" height="854.28"/>
				</defs>
				<clipPath id="SVGID_53_">
					<use xlink:href="#SVGID_156_"  overflow="visible"/>
				</clipPath>
				<g clip-path="url(#SVGID_53_)">
					<defs>
						<rect id="SVGID_158_" x="-1262.573" y="-766.753" width="1281.42" height="854.28"/>
					</defs>
					<clipPath id="SVGID_55_">
						<use xlink:href="#SVGID_158_"  overflow="visible"/>
					</clipPath>
				</g>
			</g>
		</g>
	</g>
	<g clip-path="url(#SVGID_2_)">
		<defs>
			<rect id="SVGID_160_" x="-172" y="-1060.099" width="1920" height="5337.103"/>
		</defs>
		<clipPath id="SVGID_57_">
			<use xlink:href="#SVGID_160_"  overflow="visible"/>
		</clipPath>
	</g>
</g>
</svg>
