<?xml version="1.0" encoding="utf-8"?>
<!-- Generator: Adobe Illustrator 16.0.0, SVG Export Plug-In . SVG Version: 6.00 Build 0)  -->
<!DOCTYPE svg PUBLIC "-//W3C//DTD SVG 1.1//EN" "http://www.w3.org/Graphics/SVG/1.1/DTD/svg11.dtd">
<svg version="1.1" id="Capa_1" xmlns="http://www.w3.org/2000/svg" xmlns:xlink="http://www.w3.org/1999/xlink" x="0px" y="0px"
	 width="167.762px" height="167.525px" viewBox="0 0 167.762 167.525" enable-background="new 0 0 167.762 167.525"
	 xml:space="preserve">
<rect x="-449.025" y="-4520.238" fill="none" width="1920" height="5337.103"/>
<g>
	<defs>
		<rect id="SVGID_34_" x="-449.025" y="-4520.238" width="1920" height="5337.103"/>
	</defs>
	<clipPath id="SVGID_2_">
		<use xlink:href="#SVGID_34_"  overflow="visible"/>
	</clipPath>
</g>
<g>
	<defs>
		<rect id="SVGID_44_" x="-449.025" y="-4520.238" width="1920" height="5337.103"/>
	</defs>
	<clipPath id="SVGID_4_">
		<use xlink:href="#SVGID_44_"  overflow="visible"/>
	</clipPath>
</g>
<g>
	<defs>
		<rect id="SVGID_48_" x="-449.025" y="-4520.238" width="1920" height="5337.103"/>
	</defs>
	<clipPath id="SVGID_6_">
		<use xlink:href="#SVGID_48_"  overflow="visible"/>
	</clipPath>
</g>
<rect x="-449.025" y="-4520.238" fill="none" width="1920" height="5337.103"/>
<rect x="-449.025" y="-4520.238" fill="none" width="1920" height="5337.103"/>
<g>
	<defs>
		<rect id="SVGID_52_" x="-449.025" y="-4520.238" width="1920" height="5337.103"/>
	</defs>
	<clipPath id="SVGID_7_">
		<use xlink:href="#SVGID_52_"  overflow="visible"/>
	</clipPath>
</g>
<g>
	<defs>
		<rect id="SVGID_54_" x="-449.025" y="-4520.238" width="1920" height="5337.103"/>
	</defs>
	<clipPath id="SVGID_8_">
		<use xlink:href="#SVGID_54_"  overflow="visible"/>
	</clipPath>
	<path clip-path="url(#SVGID_8_)" fill="#D5D5D5" d="M145.638,33.887c-14.268-14.268-33.233-22.124-53.412-22.124H92.22
		c-9.98,0.001-19.707,1.934-28.906,5.744c-9.2,3.812-17.443,9.322-24.5,16.38C24.547,48.153,16.691,67.122,16.691,87.298
		c0,12.032,2.903,23.99,8.404,34.644l-12.696,36.271c-0.895,2.559-0.262,5.34,1.656,7.257c1.342,1.343,3.108,2.056,4.924,2.056
		c0.778,0,1.565-0.131,2.332-0.399l36.272-12.695c10.654,5.501,22.611,8.404,34.643,8.404c20.177,0,39.144-7.857,53.412-22.124
		c14.267-14.267,22.124-33.235,22.124-53.411C167.762,67.122,159.906,48.153,145.638,33.887"/>
	<path clip-path="url(#SVGID_8_)" fill="#43689B" d="M133.638,22.124C119.37,7.856,100.405,0,80.226,0H80.22
		c-9.98,0.001-19.707,1.934-28.906,5.745c-9.2,3.811-17.443,9.321-24.5,16.379C12.547,36.391,4.691,55.359,4.691,75.535
		c0,12.032,2.903,23.99,8.404,34.643L0.399,146.45c-0.895,2.56-0.262,5.34,1.656,7.257c1.342,1.343,3.108,2.056,4.924,2.056
		c0.778,0,1.565-0.131,2.332-0.399l36.272-12.695c10.654,5.501,22.611,8.404,34.643,8.404c20.177,0,39.144-7.857,53.412-22.124
		c14.267-14.267,22.124-33.235,22.124-53.411C155.762,55.359,147.906,36.391,133.638,22.124 M127.178,122.488
		c-12.541,12.542-29.216,19.447-46.952,19.447c-10.849,0-21.628-2.683-31.171-7.762c-1.73-0.92-3.775-1.078-5.611-0.436
		L10.49,145.271l11.535-32.953c0.642-1.839,0.483-3.884-0.436-5.613c-5.078-9.54-7.763-20.318-7.763-31.17
		c0-17.735,6.907-34.41,19.448-46.951C45.813,16.044,62.487,9.138,80.22,9.135h0.006c17.737,0,34.411,6.907,46.952,19.449
		c12.542,12.541,19.449,29.215,19.449,46.951C146.627,93.272,139.72,109.947,127.178,122.488"/>
	<path clip-path="url(#SVGID_8_)" fill="#43689B" d="M108.298,82.283c-3.474-3.475-9.129-3.475-12.604,0l-3.8,3.801
		c-9.437-5.143-17.073-12.779-22.217-22.216l3.801-3.801c3.476-3.476,3.476-9.129,0-12.604L63.236,37.223
		c-3.474-3.476-9.129-3.476-12.604,0l-8.192,8.192c-4.693,4.692-4.928,12.761-0.66,22.718c3.706,8.646,10.486,18.148,19.094,26.756
		c8.607,8.606,18.109,15.388,26.755,19.093c4.731,2.026,9.034,3.039,12.752,3.039c4.109,0,7.503-1.234,9.966-3.698l8.193-8.193
		v0.001c1.683-1.685,2.611-3.922,2.611-6.302c0-2.382-0.928-4.62-2.611-6.303L108.298,82.283z M103.887,106.862
		c-1.339,1.339-5.458,1.809-12.659-1.276c-7.603-3.259-16.089-9.353-23.894-17.158c-7.805-7.805-13.898-16.29-17.157-23.893
		c-3.086-7.201-2.617-11.321-1.277-12.66l8.035-8.036l9.926,9.927l-4.757,4.759c-2.151,2.149-2.671,5.412-1.291,8.117
		c6.255,12.264,16.043,22.053,28.307,28.308c2.706,1.379,5.968,0.861,8.119-1.291l4.757-4.757l9.927,9.927L103.887,106.862z"/>
</g>
<g>
	<defs>
		<rect id="SVGID_56_" x="-449.025" y="-4520.238" width="1920" height="5337.103"/>
	</defs>
	<clipPath id="SVGID_9_">
		<use xlink:href="#SVGID_56_"  overflow="visible"/>
	</clipPath>
</g>
<g>
	<defs>
		<rect id="SVGID_60_" x="-449.025" y="-4520.238" width="1920" height="5337.103"/>
	</defs>
	<clipPath id="SVGID_11_">
		<use xlink:href="#SVGID_60_"  overflow="visible"/>
	</clipPath>
</g>
<g>
	<defs>
		<rect id="SVGID_64_" x="-449.025" y="-4520.238" width="1920" height="5337.103"/>
	</defs>
	<clipPath id="SVGID_13_">
		<use xlink:href="#SVGID_64_"  overflow="visible"/>
	</clipPath>
</g>
<g>
	<defs>
		<rect id="SVGID_68_" x="-449.025" y="-4520.238" width="1920" height="5337.103"/>
	</defs>
	<clipPath id="SVGID_15_">
		<use xlink:href="#SVGID_68_"  overflow="visible"/>
	</clipPath>
</g>
<g>
	<defs>
		<rect id="SVGID_70_" x="-449.025" y="-4520.238" width="1920" height="5337.103"/>
	</defs>
	<clipPath id="SVGID_16_">
		<use xlink:href="#SVGID_70_"  overflow="visible"/>
	</clipPath>
</g>
<g>
	<defs>
		<rect id="SVGID_72_" x="-449.025" y="-4520.238" width="1920" height="5337.103"/>
	</defs>
	<clipPath id="SVGID_17_">
		<use xlink:href="#SVGID_72_"  overflow="visible"/>
	</clipPath>
</g>
<g>
	<defs>
		<rect id="SVGID_78_" x="-449.025" y="-4520.238" width="1920" height="5337.103"/>
	</defs>
	<clipPath id="SVGID_18_">
		<use xlink:href="#SVGID_78_"  overflow="visible"/>
	</clipPath>
</g>
<g>
	<defs>
		<rect id="SVGID_84_" x="-449.025" y="-4520.238" width="1920" height="5337.103"/>
	</defs>
	<clipPath id="SVGID_20_">
		<use xlink:href="#SVGID_84_"  overflow="visible"/>
	</clipPath>
</g>
<g>
	<defs>
		<rect id="SVGID_86_" x="-449.025" y="-4520.238" width="1920" height="5337.103"/>
	</defs>
	<clipPath id="SVGID_22_">
		<use xlink:href="#SVGID_86_"  overflow="visible"/>
	</clipPath>
</g>
<g>
	<defs>
		<rect id="SVGID_100_" x="-449.025" y="-4520.238" width="1920" height="5337.103"/>
	</defs>
	<clipPath id="SVGID_24_">
		<use xlink:href="#SVGID_100_"  overflow="visible"/>
	</clipPath>
</g>
<g>
	<defs>
		<rect id="SVGID_102_" x="-449.025" y="-4520.238" width="1920" height="5337.103"/>
	</defs>
	<clipPath id="SVGID_25_">
		<use xlink:href="#SVGID_102_"  overflow="visible"/>
	</clipPath>
</g>
<g>
	<defs>
		<rect id="SVGID_104_" x="-449.025" y="-4520.238" width="1920" height="5337.103"/>
	</defs>
	<clipPath id="SVGID_26_">
		<use xlink:href="#SVGID_104_"  overflow="visible"/>
	</clipPath>
</g>
<g>
	<defs>
		<rect id="SVGID_114_" x="-449.025" y="-4520.238" width="1920" height="5337.103"/>
	</defs>
	<clipPath id="SVGID_27_">
		<use xlink:href="#SVGID_114_"  overflow="visible"/>
	</clipPath>
</g>
<g>
	<defs>
		<rect id="SVGID_116_" x="-449.025" y="-4520.238" width="1920" height="5337.103"/>
	</defs>
	<clipPath id="SVGID_29_">
		<use xlink:href="#SVGID_116_"  overflow="visible"/>
	</clipPath>
</g>
<g>
	<defs>
		<rect id="SVGID_118_" x="-449.025" y="-4520.238" width="1920" height="5337.103"/>
	</defs>
	<clipPath id="SVGID_31_">
		<use xlink:href="#SVGID_118_"  overflow="visible"/>
	</clipPath>
</g>
<g>
	<defs>
		<rect id="SVGID_120_" x="-449.025" y="-4520.238" width="1920" height="5337.103"/>
	</defs>
	<clipPath id="SVGID_33_">
		<use xlink:href="#SVGID_120_"  overflow="visible"/>
	</clipPath>
</g>
<g>
	<defs>
		<rect id="SVGID_122_" x="-449.025" y="-4520.238" width="1920" height="5337.103"/>
	</defs>
	<clipPath id="SVGID_35_">
		<use xlink:href="#SVGID_122_"  overflow="visible"/>
	</clipPath>
</g>
<g>
	<defs>
		<rect id="SVGID_124_" x="-449.025" y="-4520.238" width="1920" height="5337.103"/>
	</defs>
	<clipPath id="SVGID_37_">
		<use xlink:href="#SVGID_124_"  overflow="visible"/>
	</clipPath>
</g>
<g>
	<defs>
		<rect id="SVGID_142_" x="-449.025" y="-4520.238" width="1920" height="5337.103"/>
	</defs>
	<clipPath id="SVGID_39_">
		<use xlink:href="#SVGID_142_"  overflow="visible"/>
	</clipPath>
</g>
<g>
	<defs>
		<rect id="SVGID_150_" x="-449.025" y="-4520.238" width="1920" height="5337.103"/>
	</defs>
	<clipPath id="SVGID_41_">
		<use xlink:href="#SVGID_150_"  overflow="visible"/>
	</clipPath>
	<g clip-path="url(#SVGID_41_)">
		<defs>
			<rect id="SVGID_152_" x="-2291.525" y="-209.238" width="851" height="384"/>
		</defs>
		<clipPath id="SVGID_43_">
			<use xlink:href="#SVGID_152_"  overflow="visible"/>
		</clipPath>
		<g clip-path="url(#SVGID_43_)">
			<defs>
				<rect id="SVGID_154_" x="-2602.025" y="-1257.238" width="2640.407" height="1760.272"/>
			</defs>
			<clipPath id="SVGID_45_">
				<use xlink:href="#SVGID_154_"  overflow="visible"/>
			</clipPath>
			<g clip-path="url(#SVGID_45_)">
				<defs>
					<rect id="SVGID_156_" x="-2602.025" y="-1257.237" width="2640.407" height="1760.271"/>
				</defs>
				<clipPath id="SVGID_47_">
					<use xlink:href="#SVGID_156_"  overflow="visible"/>
				</clipPath>
			</g>
		</g>
	</g>
</g>
<rect x="-449.025" y="-4520.235" fill="none" width="1920" height="5337.1"/>
</svg>
