<?xml version="1.0" encoding="utf-8"?>
<!-- Generator: Adobe Illustrator 16.0.0, SVG Export Plug-In . SVG Version: 6.00 Build 0)  -->
<!DOCTYPE svg PUBLIC "-//W3C//DTD SVG 1.1//EN" "http://www.w3.org/Graphics/SVG/1.1/DTD/svg11.dtd">
<svg version="1.1" id="Capa_1" xmlns="http://www.w3.org/2000/svg" xmlns:xlink="http://www.w3.org/1999/xlink" x="0px" y="0px"
	 width="102.593px" height="114.238px" viewBox="0 0 102.593 114.238" enable-background="new 0 0 102.593 114.238"
	 xml:space="preserve">
<g>
	<defs>
		<rect id="SVGID_1_" x="-1071.6" y="-1066.326" width="1920" height="5337.1"/>
	</defs>
	<clipPath id="SVGID_2_">
		<use xlink:href="#SVGID_1_"  overflow="visible"/>
	</clipPath>
	<g clip-path="url(#SVGID_2_)">
		<defs>
			<rect id="SVGID_34_" x="-1071.6" y="-1066.329" width="1920" height="5337.103"/>
		</defs>
		<clipPath id="SVGID_4_">
			<use xlink:href="#SVGID_34_"  overflow="visible"/>
		</clipPath>
	</g>
	<g clip-path="url(#SVGID_2_)">
		<defs>
			<rect id="SVGID_38_" x="-1071.6" y="-1066.329" width="1920" height="5337.103"/>
		</defs>
		<clipPath id="SVGID_6_">
			<use xlink:href="#SVGID_38_"  overflow="visible"/>
		</clipPath>
	</g>
	<g clip-path="url(#SVGID_2_)">
		<defs>
			<rect id="SVGID_48_" x="-1071.6" y="-1066.329" width="1920" height="5337.103"/>
		</defs>
		<clipPath id="SVGID_8_">
			<use xlink:href="#SVGID_48_"  overflow="visible"/>
		</clipPath>
	</g>
	<g clip-path="url(#SVGID_2_)">
		<defs>
			<rect id="SVGID_52_" x="-1071.6" y="-1066.329" width="1920" height="5337.103"/>
		</defs>
		<clipPath id="SVGID_9_">
			<use xlink:href="#SVGID_52_"  overflow="visible"/>
		</clipPath>
	</g>
	<g clip-path="url(#SVGID_2_)">
		<defs>
			<rect id="SVGID_56_" x="-1071.6" y="-1066.329" width="1920" height="5337.103"/>
		</defs>
		<clipPath id="SVGID_10_">
			<use xlink:href="#SVGID_56_"  overflow="visible"/>
		</clipPath>
	</g>
	<g clip-path="url(#SVGID_2_)">
		<defs>
			<rect id="SVGID_58_" x="-1071.6" y="-1066.329" width="1920" height="5337.103"/>
		</defs>
		<clipPath id="SVGID_11_">
			<use xlink:href="#SVGID_58_"  overflow="visible"/>
		</clipPath>
	</g>
	<g clip-path="url(#SVGID_2_)">
		<defs>
			<rect id="SVGID_60_" x="-1071.6" y="-1066.329" width="1920" height="5337.103"/>
		</defs>
		<clipPath id="SVGID_13_">
			<use xlink:href="#SVGID_60_"  overflow="visible"/>
		</clipPath>
		<path clip-path="url(#SVGID_13_)" fill="#FFFFFF" d="M91.458,8.925c-1.231,0-2.23,0.999-2.23,2.23c0,1.233,0.999,2.232,2.23,2.232
			s2.231-0.999,2.231-2.232C93.689,9.924,92.689,8.925,91.458,8.925"/>
		<path clip-path="url(#SVGID_13_)" fill="#FFFFFF" d="M91.458,62.474c-1.231,0-2.23,1-2.23,2.231c0,1.232,0.999,2.232,2.23,2.232
			s2.231-1,2.231-2.232C93.689,63.474,92.689,62.474,91.458,62.474"/>
		<path clip-path="url(#SVGID_13_)" fill="#FFFFFF" d="M11.134,8.925c-1.231,0-2.231,0.999-2.231,2.23c0,1.233,1,2.232,2.231,2.232
			s2.231-0.999,2.231-2.232C13.365,9.924,12.365,8.925,11.134,8.925"/>
		<path clip-path="url(#SVGID_13_)" fill="#FFFFFF" d="M11.134,62.474c-1.231,0-2.231,1-2.231,2.231c0,1.232,1,2.232,2.231,2.232
			s2.231-1,2.231-2.232C13.365,63.474,12.365,62.474,11.134,62.474"/>
		<path clip-path="url(#SVGID_13_)" fill="#FFFFFF" d="M50.85,28.782c-4.921,0-8.925,4.004-8.925,8.925
			c0,4.922,4.004,8.926,8.925,8.926c4.922,0,8.926-4.004,8.926-8.926C59.775,32.786,55.771,28.782,50.85,28.782 M50.85,42.17
			c-2.46,0-4.462-2.002-4.462-4.463c0-2.46,2.002-4.462,4.462-4.462c2.461,0,4.463,2.002,4.463,4.462
			C55.313,40.168,53.311,42.17,50.85,42.17"/>
		<path clip-path="url(#SVGID_13_)" fill="#FFFFFF" d="M73.967,43.291l-5.016-2.896c0.131-0.85,0.195-1.666,0.195-2.464
			c0-0.798-0.064-1.613-0.195-2.464l5.016-2.895c1.065-0.616,1.432-1.981,0.815-3.048l-4.463-7.729
			c-0.296-0.513-0.783-0.887-1.354-1.039c-0.571-0.154-1.181-0.074-1.693,0.222l-5.034,2.906c-1.285-0.996-2.706-1.807-4.248-2.425
			v-5.84c0-1.233-0.999-2.232-2.231-2.232h-8.924c-1.232,0-2.231,0.999-2.231,2.232v5.843c-1.531,0.619-2.964,1.437-4.244,2.424
			l-5.038-2.908c-1.067-0.616-2.432-0.25-3.048,0.817l-4.463,7.729c-0.615,1.068-0.25,2.432,0.817,3.048l5.014,2.895
			c-0.131,0.85-0.194,1.666-0.194,2.464c0,0.798,0.063,1.614,0.194,2.464l-5.014,2.896c-1.067,0.616-1.433,1.98-0.816,3.048
			l4.462,7.729c0.616,1.066,1.981,1.433,3.048,0.816l5.039-2.908c1.279,0.988,2.712,1.806,4.243,2.425v5.843
			c0,1.231,0.999,2.23,2.231,2.23h8.924c1.233,0,2.232-0.999,2.232-2.23v-5.841c1.542-0.618,2.962-1.43,4.247-2.426l5.034,2.907
			c0.513,0.296,1.122,0.376,1.693,0.223c0.571-0.153,1.059-0.527,1.354-1.04l4.463-7.728C75.398,45.271,75.033,43.907,73.967,43.291
			 M67.57,49.903l-4.467-2.579c-0.854-0.493-1.93-0.368-2.646,0.309c-1.49,1.407-3.288,2.433-5.342,3.052
			c-0.942,0.283-1.588,1.152-1.588,2.136v5.19h-4.462v-5.19c0-0.984-0.646-1.853-1.588-2.136c-2.055-0.619-3.852-1.645-5.339-3.051
			c-0.717-0.677-1.795-0.803-2.647-0.311l-4.47,2.58l-2.23-3.864l4.462-2.577c0.854-0.495,1.284-1.491,1.055-2.451
			c-0.269-1.125-0.398-2.132-0.398-3.081c0-0.948,0.13-1.956,0.398-3.081c0.229-0.961-0.2-1.957-1.055-2.45l-4.463-2.577
			l2.231-3.865l4.47,2.58c0.853,0.493,1.931,0.367,2.647-0.311c1.487-1.405,3.283-2.431,5.338-3.051
			c0.943-0.284,1.588-1.152,1.588-2.136v-5.19h4.463v5.19c0,0.984,0.646,1.852,1.588,2.136c2.054,0.619,3.852,1.646,5.342,3.052
			c0.717,0.677,1.793,0.803,2.646,0.31l4.467-2.579l2.23,3.864l-4.462,2.577c-0.854,0.493-1.283,1.489-1.055,2.449
			c0.269,1.126,0.399,2.134,0.399,3.082c0,0.948-0.131,1.956-0.398,3.082c-0.229,0.96,0.2,1.956,1.055,2.45l4.461,2.577
			L67.57,49.903z"/>
		<path clip-path="url(#SVGID_13_)" fill="#FFFFFF" d="M61.043,91.114c4.092-5.989,7.71-11.018,10.955-15.527
			c11.471-15.942,17.229-23.944,17.229-37.656C89.228,17.016,72.211,0,51.296,0S13.365,17.016,13.365,37.931
			c0,13.659,5.767,21.684,17.256,37.674c3.232,4.499,6.838,9.516,10.913,15.486c-11.487,1.418-19.244,5.883-19.244,11.322
			c0,7.403,14.748,11.825,29.006,11.825c14.259,0,29.007-4.422,29.007-11.825C80.303,97.009,72.548,92.563,61.043,91.114
			 M34.245,73.001c-11.272-15.688-16.417-22.849-16.417-35.07c0-18.455,15.014-33.469,33.468-33.469
			c18.455,0,33.469,15.014,33.469,33.469c0,12.273-5.478,19.885-16.39,35.05c-3.794,5.272-8.095,11.249-13.078,18.656
			c-1.339,1.991-2.678,4.014-4.001,6.042c-1.365-2.096-2.729-4.152-4.07-6.146C42.282,84.187,38.012,78.243,34.245,73.001
			 M69.458,106.965c-4.857,1.786-11.478,2.812-18.162,2.812s-13.305-1.026-18.162-2.812c-5.048-1.857-6.381-3.789-6.381-4.552
			c0-2.084,5.889-6.166,17.618-7.126c1.667,2.495,3.361,5.079,5.048,7.703c0.411,0.639,1.118,1.026,1.877,1.026
			c0.76,0,1.467-0.387,1.877-1.026c1.652-2.57,3.345-5.148,5.04-7.686c11.736,0.998,17.627,5.042,17.627,7.109
			C75.84,103.176,74.506,105.108,69.458,106.965"/>
		<path clip-path="url(#SVGID_13_)" fill="#FFFFFF" d="M98.839,18.613c-0.463-1.142-1.764-1.693-2.906-1.229
			c-1.142,0.462-1.692,1.763-1.229,2.905c2.273,5.611,3.427,11.547,3.427,17.641c0,6.094-1.153,12.03-3.427,17.641
			c-0.463,1.143,0.088,2.443,1.229,2.906c0.274,0.112,0.559,0.164,0.837,0.164c0.883,0,1.717-0.526,2.069-1.393
			c2.49-6.148,3.754-12.647,3.754-19.318S101.329,24.76,98.839,18.613"/>
		<path clip-path="url(#SVGID_13_)" fill="#FFFFFF" d="M4.463,37.931c0-6.095,1.152-12.03,3.427-17.642
			c0.463-1.141-0.088-2.443-1.23-2.905c-1.142-0.464-2.442,0.088-2.905,1.23C1.263,24.76,0,31.259,0,37.931
			c0,6.671,1.263,13.17,3.754,19.317c0.352,0.868,1.187,1.394,2.068,1.394c0.278,0,0.563-0.053,0.837-0.164
			c1.143-0.463,1.693-1.764,1.23-2.906C5.615,49.96,4.463,44.025,4.463,37.931"/>
	</g>
	<g clip-path="url(#SVGID_2_)">
		<defs>
			<rect id="SVGID_62_" x="-1071.6" y="-1066.329" width="1920" height="5337.103"/>
		</defs>
		<clipPath id="SVGID_15_">
			<use xlink:href="#SVGID_62_"  overflow="visible"/>
		</clipPath>
	</g>
	<g clip-path="url(#SVGID_2_)">
		<defs>
			<rect id="SVGID_64_" x="-1071.6" y="-1066.329" width="1920" height="5337.103"/>
		</defs>
		<clipPath id="SVGID_17_">
			<use xlink:href="#SVGID_64_"  overflow="visible"/>
		</clipPath>
	</g>
	<g clip-path="url(#SVGID_2_)">
		<defs>
			<rect id="SVGID_68_" x="-1071.6" y="-1066.329" width="1920" height="5337.103"/>
		</defs>
		<clipPath id="SVGID_18_">
			<use xlink:href="#SVGID_68_"  overflow="visible"/>
		</clipPath>
	</g>
	<g clip-path="url(#SVGID_2_)">
		<defs>
			<rect id="SVGID_72_" x="-1071.6" y="-1066.329" width="1920" height="5337.103"/>
		</defs>
		<clipPath id="SVGID_19_">
			<use xlink:href="#SVGID_72_"  overflow="visible"/>
		</clipPath>
	</g>
	<g clip-path="url(#SVGID_2_)">
		<defs>
			<rect id="SVGID_76_" x="-1071.6" y="-1066.329" width="1920" height="5337.103"/>
		</defs>
		<clipPath id="SVGID_20_">
			<use xlink:href="#SVGID_76_"  overflow="visible"/>
		</clipPath>
	</g>
	<g clip-path="url(#SVGID_2_)">
		<defs>
			<rect id="SVGID_78_" x="-1071.6" y="-1066.329" width="1920" height="5337.103"/>
		</defs>
		<clipPath id="SVGID_22_">
			<use xlink:href="#SVGID_78_"  overflow="visible"/>
		</clipPath>
	</g>
	<g clip-path="url(#SVGID_2_)">
		<defs>
			<rect id="SVGID_80_" x="-1071.6" y="-1066.329" width="1920" height="5337.103"/>
		</defs>
		<clipPath id="SVGID_24_">
			<use xlink:href="#SVGID_80_"  overflow="visible"/>
		</clipPath>
	</g>
	<g clip-path="url(#SVGID_2_)">
		<defs>
			<rect id="SVGID_86_" x="-1071.6" y="-1066.329" width="1920" height="5337.103"/>
		</defs>
		<clipPath id="SVGID_26_">
			<use xlink:href="#SVGID_86_"  overflow="visible"/>
		</clipPath>
	</g>
	<g clip-path="url(#SVGID_2_)">
		<defs>
			<rect id="SVGID_92_" x="-1071.6" y="-1066.329" width="1920" height="5337.103"/>
		</defs>
		<clipPath id="SVGID_27_">
			<use xlink:href="#SVGID_92_"  overflow="visible"/>
		</clipPath>
	</g>
	<g clip-path="url(#SVGID_2_)">
		<defs>
			<rect id="SVGID_94_" x="-1071.6" y="-1066.329" width="1920" height="5337.103"/>
		</defs>
		<clipPath id="SVGID_28_">
			<use xlink:href="#SVGID_94_"  overflow="visible"/>
		</clipPath>
	</g>
	<g clip-path="url(#SVGID_2_)">
		<defs>
			<rect id="SVGID_108_" x="-1071.6" y="-1066.329" width="1920" height="5337.103"/>
		</defs>
		<clipPath id="SVGID_29_">
			<use xlink:href="#SVGID_108_"  overflow="visible"/>
		</clipPath>
	</g>
	<g clip-path="url(#SVGID_2_)">
		<defs>
			<rect id="SVGID_110_" x="-1071.6" y="-1066.329" width="1920" height="5337.103"/>
		</defs>
		<clipPath id="SVGID_31_">
			<use xlink:href="#SVGID_110_"  overflow="visible"/>
		</clipPath>
	</g>
	<g clip-path="url(#SVGID_2_)">
		<defs>
			<rect id="SVGID_112_" x="-1071.6" y="-1066.329" width="1920" height="5337.103"/>
		</defs>
		<clipPath id="SVGID_33_">
			<use xlink:href="#SVGID_112_"  overflow="visible"/>
		</clipPath>
	</g>
	<g clip-path="url(#SVGID_2_)">
		<defs>
			<rect id="SVGID_122_" x="-1071.6" y="-1066.329" width="1920" height="5337.103"/>
		</defs>
		<clipPath id="SVGID_35_">
			<use xlink:href="#SVGID_122_"  overflow="visible"/>
		</clipPath>
	</g>
	<g clip-path="url(#SVGID_2_)">
		<defs>
			<rect id="SVGID_124_" x="-1071.6" y="-1066.329" width="1920" height="5337.103"/>
		</defs>
		<clipPath id="SVGID_37_">
			<use xlink:href="#SVGID_124_"  overflow="visible"/>
		</clipPath>
	</g>
	<g clip-path="url(#SVGID_2_)">
		<defs>
			<rect id="SVGID_126_" x="-1071.6" y="-1066.329" width="1920" height="5337.103"/>
		</defs>
		<clipPath id="SVGID_39_">
			<use xlink:href="#SVGID_126_"  overflow="visible"/>
		</clipPath>
	</g>
	<g clip-path="url(#SVGID_2_)">
		<defs>
			<rect id="SVGID_128_" x="-1071.6" y="-1066.329" width="1920" height="5337.103"/>
		</defs>
		<clipPath id="SVGID_41_">
			<use xlink:href="#SVGID_128_"  overflow="visible"/>
		</clipPath>
	</g>
	<g clip-path="url(#SVGID_2_)">
		<defs>
			<rect id="SVGID_130_" x="-1071.6" y="-1066.329" width="1920" height="5337.103"/>
		</defs>
		<clipPath id="SVGID_43_">
			<use xlink:href="#SVGID_130_"  overflow="visible"/>
		</clipPath>
	</g>
	<g clip-path="url(#SVGID_2_)">
		<defs>
			<rect id="SVGID_132_" x="-1071.6" y="-1066.329" width="1920" height="5337.103"/>
		</defs>
		<clipPath id="SVGID_45_">
			<use xlink:href="#SVGID_132_"  overflow="visible"/>
		</clipPath>
	</g>
	<g clip-path="url(#SVGID_2_)">
		<defs>
			<rect id="SVGID_150_" x="-1071.6" y="-1066.329" width="1920" height="5337.103"/>
		</defs>
		<clipPath id="SVGID_47_">
			<use xlink:href="#SVGID_150_"  overflow="visible"/>
		</clipPath>
	</g>
	<g clip-path="url(#SVGID_2_)">
		<defs>
			<rect id="SVGID_152_" x="-1071.6" y="-1066.329" width="1920" height="5337.103"/>
		</defs>
		<clipPath id="SVGID_49_">
			<use xlink:href="#SVGID_152_"  overflow="visible"/>
		</clipPath>
	</g>
	<g clip-path="url(#SVGID_2_)">
		<defs>
			<rect id="SVGID_160_" x="-1071.6" y="-1066.329" width="1920" height="5337.103"/>
		</defs>
		<clipPath id="SVGID_51_">
			<use xlink:href="#SVGID_160_"  overflow="visible"/>
		</clipPath>
	</g>
</g>
</svg>
