<?xml version="1.0" encoding="utf-8"?>
<!-- Generator: Adobe Illustrator 16.0.0, SVG Export Plug-In . SVG Version: 6.00 Build 0)  -->
<!DOCTYPE svg PUBLIC "-//W3C//DTD SVG 1.1//EN" "http://www.w3.org/Graphics/SVG/1.1/DTD/svg11.dtd">
<svg version="1.1" id="Capa_1" xmlns="http://www.w3.org/2000/svg" xmlns:xlink="http://www.w3.org/1999/xlink" x="0px" y="0px"
	 width="43.916px" height="43.916px" viewBox="0 0 43.916 43.916" enable-background="new 0 0 43.916 43.916" xml:space="preserve">
<g>
	<defs>
		<rect id="SVGID_32_" x="-1389.024" y="-5192.531" width="1920" height="5337.103"/>
	</defs>
	<clipPath id="SVGID_2_">
		<use xlink:href="#SVGID_32_"  overflow="visible"/>
	</clipPath>
</g>
<g>
	<defs>
		<rect id="SVGID_36_" x="-1389.024" y="-5192.531" width="1920" height="5337.103"/>
	</defs>
	<clipPath id="SVGID_4_">
		<use xlink:href="#SVGID_36_"  overflow="visible"/>
	</clipPath>
</g>
<g>
	<defs>
		<rect id="SVGID_46_" x="-1389.024" y="-5192.531" width="1920" height="5337.103"/>
	</defs>
	<clipPath id="SVGID_6_">
		<use xlink:href="#SVGID_46_"  overflow="visible"/>
	</clipPath>
</g>
<g>
	<defs>
		<rect id="SVGID_50_" x="-1389.024" y="-5192.531" width="1920" height="5337.103"/>
	</defs>
	<clipPath id="SVGID_7_">
		<use xlink:href="#SVGID_50_"  overflow="visible"/>
	</clipPath>
</g>
<g>
	<defs>
		<rect id="SVGID_54_" x="-1389.024" y="-5192.531" width="1920" height="5337.103"/>
	</defs>
	<clipPath id="SVGID_8_">
		<use xlink:href="#SVGID_54_"  overflow="visible"/>
	</clipPath>
</g>
<g>
	<defs>
		<rect id="SVGID_56_" x="-1389.024" y="-5192.531" width="1920" height="5337.103"/>
	</defs>
	<clipPath id="SVGID_9_">
		<use xlink:href="#SVGID_56_"  overflow="visible"/>
	</clipPath>
</g>
<g>
	<defs>
		<rect id="SVGID_58_" x="-1389.024" y="-5192.531" width="1920" height="5337.103"/>
	</defs>
	<clipPath id="SVGID_11_">
		<use xlink:href="#SVGID_58_"  overflow="visible"/>
	</clipPath>
</g>
<g>
	<defs>
		<rect id="SVGID_60_" x="-1389.024" y="-5192.531" width="1920" height="5337.103"/>
	</defs>
	<clipPath id="SVGID_13_">
		<use xlink:href="#SVGID_60_"  overflow="visible"/>
	</clipPath>
</g>
<rect x="-1389.024" y="-5192.531" fill="none" width="1920" height="5337.103"/>
<g>
	<defs>
		<rect id="SVGID_64_" x="-1389.024" y="-5192.531" width="1920" height="5337.103"/>
	</defs>
	<clipPath id="SVGID_15_">
		<use xlink:href="#SVGID_64_"  overflow="visible"/>
	</clipPath>
</g>
<g>
	<defs>
		<rect id="SVGID_68_" x="-1389.024" y="-5192.531" width="1920" height="5337.103"/>
	</defs>
	<clipPath id="SVGID_16_">
		<use xlink:href="#SVGID_68_"  overflow="visible"/>
	</clipPath>
</g>
<g>
	<defs>
		<rect id="SVGID_72_" x="-1389.024" y="-5192.531" width="1920" height="5337.103"/>
	</defs>
	<clipPath id="SVGID_17_">
		<use xlink:href="#SVGID_72_"  overflow="visible"/>
	</clipPath>
</g>
<g>
	<defs>
		<rect id="SVGID_74_" x="-1389.024" y="-5192.531" width="1920" height="5337.103"/>
	</defs>
	<clipPath id="SVGID_18_">
		<use xlink:href="#SVGID_74_"  overflow="visible"/>
	</clipPath>
	<path clip-path="url(#SVGID_18_)" fill="#F1D060" d="M37.678,6.238C33.655,2.216,28.309,0,22.619,0h-0.002
		c-2.813,0.001-5.556,0.546-8.149,1.62S9.55,4.248,7.56,6.238c-4.021,4.022-6.237,9.37-6.237,15.059c0,3.393,0.819,6.764,2.37,9.768
		l-3.58,10.227c-0.252,0.721-0.073,1.505,0.467,2.045c0.379,0.379,0.877,0.58,1.389,0.58c0.22,0,0.441-0.037,0.657-0.112
		l10.227-3.581c3.004,1.553,6.375,2.371,9.768,2.371c5.688,0,11.036-2.216,15.059-6.237c4.022-4.022,6.238-9.371,6.238-15.06
		S41.7,10.261,37.678,6.238 M35.856,34.534c-3.535,3.536-8.237,5.482-13.237,5.482c-3.059,0-6.098-0.756-8.788-2.188
		c-0.488-0.259-1.064-0.304-1.582-0.122l-9.291,3.251l3.252-9.291c0.181-0.518,0.136-1.095-0.123-1.582
		c-1.432-2.689-2.188-5.729-2.188-8.788c0-5,1.947-9.702,5.483-13.238c3.535-3.535,8.235-5.482,13.235-5.482h0.002
		c5.001,0,9.702,1.947,13.237,5.482c3.536,3.536,5.482,8.237,5.482,13.238S39.393,30.999,35.856,34.534"/>
	<path clip-path="url(#SVGID_18_)" fill="#F1D060" d="M30.534,23.199c-0.98-0.979-2.574-0.979-3.555,0l-1.07,1.071
		c-2.661-1.449-4.814-3.603-6.266-6.264l1.073-1.071c0.979-0.979,0.979-2.573,0-3.554l-2.888-2.887c-0.979-0.98-2.574-0.98-3.554,0
		l-2.31,2.31c-1.323,1.323-1.39,3.598-0.187,6.405c1.045,2.438,2.957,5.116,5.384,7.543s5.105,4.339,7.543,5.384
		c1.334,0.571,2.547,0.856,3.596,0.856c1.158,0,2.115-0.349,2.81-1.043l2.31-2.31c0.475-0.475,0.736-1.105,0.736-1.776
		c0-0.673-0.262-1.303-0.736-1.777L30.534,23.199z M29.29,30.129c-0.378,0.378-1.539,0.51-3.569-0.359
		c-2.144-0.919-4.536-2.637-6.736-4.838c-2.201-2.2-3.919-4.593-4.837-6.736c-0.87-2.03-0.738-3.191-0.36-3.569l2.266-2.266
		l2.798,2.799l-1.341,1.342c-0.606,0.606-0.753,1.524-0.364,2.288c1.764,3.458,4.523,6.218,7.981,7.981
		c0.763,0.389,1.683,0.242,2.289-0.364l1.341-1.341l2.799,2.799L29.29,30.129z"/>
</g>
<g>
	<defs>
		<rect id="SVGID_76_" x="-1389.024" y="-5192.531" width="1920" height="5337.103"/>
	</defs>
	<clipPath id="SVGID_20_">
		<use xlink:href="#SVGID_76_"  overflow="visible"/>
	</clipPath>
</g>
<g>
	<defs>
		<rect id="SVGID_82_" x="-1389.024" y="-5192.531" width="1920" height="5337.103"/>
	</defs>
	<clipPath id="SVGID_22_">
		<use xlink:href="#SVGID_82_"  overflow="visible"/>
	</clipPath>
</g>
<g>
	<defs>
		<rect id="SVGID_88_" x="-1389.024" y="-5192.531" width="1920" height="5337.103"/>
	</defs>
	<clipPath id="SVGID_24_">
		<use xlink:href="#SVGID_88_"  overflow="visible"/>
	</clipPath>
</g>
<g>
	<defs>
		<rect id="SVGID_90_" x="-1389.024" y="-5192.531" width="1920" height="5337.103"/>
	</defs>
	<clipPath id="SVGID_25_">
		<use xlink:href="#SVGID_90_"  overflow="visible"/>
	</clipPath>
</g>
<g>
	<defs>
		<rect id="SVGID_104_" x="-1389.024" y="-5192.531" width="1920" height="5337.103"/>
	</defs>
	<clipPath id="SVGID_26_">
		<use xlink:href="#SVGID_104_"  overflow="visible"/>
	</clipPath>
</g>
<g>
	<defs>
		<rect id="SVGID_106_" x="-1389.024" y="-5192.531" width="1920" height="5337.103"/>
	</defs>
	<clipPath id="SVGID_27_">
		<use xlink:href="#SVGID_106_"  overflow="visible"/>
	</clipPath>
</g>
<g>
	<defs>
		<rect id="SVGID_108_" x="-1389.024" y="-5192.531" width="1920" height="5337.103"/>
	</defs>
	<clipPath id="SVGID_29_">
		<use xlink:href="#SVGID_108_"  overflow="visible"/>
	</clipPath>
</g>
<g>
	<defs>
		<rect id="SVGID_118_" x="-1389.024" y="-5192.531" width="1920" height="5337.103"/>
	</defs>
	<clipPath id="SVGID_31_">
		<use xlink:href="#SVGID_118_"  overflow="visible"/>
	</clipPath>
</g>
<g>
	<defs>
		<rect id="SVGID_120_" x="-1389.024" y="-5192.531" width="1920" height="5337.103"/>
	</defs>
	<clipPath id="SVGID_33_">
		<use xlink:href="#SVGID_120_"  overflow="visible"/>
	</clipPath>
</g>
<g>
	<defs>
		<rect id="SVGID_122_" x="-1389.024" y="-5192.531" width="1920" height="5337.103"/>
	</defs>
	<clipPath id="SVGID_35_">
		<use xlink:href="#SVGID_122_"  overflow="visible"/>
	</clipPath>
</g>
<g>
	<defs>
		<rect id="SVGID_124_" x="-1389.024" y="-5192.531" width="1920" height="5337.103"/>
	</defs>
	<clipPath id="SVGID_37_">
		<use xlink:href="#SVGID_124_"  overflow="visible"/>
	</clipPath>
</g>
<g>
	<defs>
		<rect id="SVGID_126_" x="-1389.024" y="-5192.531" width="1920" height="5337.103"/>
	</defs>
	<clipPath id="SVGID_39_">
		<use xlink:href="#SVGID_126_"  overflow="visible"/>
	</clipPath>
</g>
<g>
	<defs>
		<rect id="SVGID_128_" x="-1389.024" y="-5192.531" width="1920" height="5337.103"/>
	</defs>
	<clipPath id="SVGID_41_">
		<use xlink:href="#SVGID_128_"  overflow="visible"/>
	</clipPath>
</g>
<g>
	<defs>
		<rect id="SVGID_146_" x="-1389.024" y="-5192.531" width="1920" height="5337.103"/>
	</defs>
	<clipPath id="SVGID_43_">
		<use xlink:href="#SVGID_146_"  overflow="visible"/>
	</clipPath>
</g>
<g>
	<defs>
		<rect id="SVGID_148_" x="-1389.024" y="-5192.531" width="1920" height="5337.103"/>
	</defs>
	<clipPath id="SVGID_45_">
		<use xlink:href="#SVGID_148_"  overflow="visible"/>
	</clipPath>
</g>
<g>
	<defs>
		<rect id="SVGID_156_" x="-1389.024" y="-5192.531" width="1920" height="5337.103"/>
	</defs>
	<clipPath id="SVGID_47_">
		<use xlink:href="#SVGID_156_"  overflow="visible"/>
	</clipPath>
</g>
<rect x="-1389.024" y="-5192.528" fill="none" width="1920" height="5337.1"/>
</svg>
