<?xml version="1.0" encoding="utf-8"?>
<!-- Generator: Adobe Illustrator 16.0.0, SVG Export Plug-In . SVG Version: 6.00 Build 0)  -->
<!DOCTYPE svg PUBLIC "-//W3C//DTD SVG 1.1//EN" "http://www.w3.org/Graphics/SVG/1.1/DTD/svg11.dtd">
<svg version="1.1" id="Capa_1" xmlns="http://www.w3.org/2000/svg" xmlns:xlink="http://www.w3.org/1999/xlink" x="0px" y="0px"
	 width="72.054px" height="61.883px" viewBox="0 0 72.054 61.883" enable-background="new 0 0 72.054 61.883" xml:space="preserve">
<g>
	<defs>
		<rect id="SVGID_32_" x="-917.302" y="-2816.737" width="1920" height="5337.103"/>
	</defs>
	<clipPath id="SVGID_2_">
		<use xlink:href="#SVGID_32_"  overflow="visible"/>
	</clipPath>
</g>
<g>
	<defs>
		<rect id="SVGID_36_" x="-917.302" y="-2816.737" width="1920" height="5337.103"/>
	</defs>
	<clipPath id="SVGID_4_">
		<use xlink:href="#SVGID_36_"  overflow="visible"/>
	</clipPath>
</g>
<g>
	<defs>
		<rect id="SVGID_46_" x="-917.302" y="-2816.737" width="1920" height="5337.103"/>
	</defs>
	<clipPath id="SVGID_6_">
		<use xlink:href="#SVGID_46_"  overflow="visible"/>
	</clipPath>
</g>
<g>
	<defs>
		<rect id="SVGID_50_" x="-917.302" y="-2816.737" width="1920" height="5337.103"/>
	</defs>
	<clipPath id="SVGID_7_">
		<use xlink:href="#SVGID_50_"  overflow="visible"/>
	</clipPath>
</g>
<g>
	<defs>
		<rect id="SVGID_54_" x="-917.302" y="-2816.737" width="1920" height="5337.103"/>
	</defs>
	<clipPath id="SVGID_8_">
		<use xlink:href="#SVGID_54_"  overflow="visible"/>
	</clipPath>
</g>
<g>
	<defs>
		<rect id="SVGID_56_" x="-917.302" y="-2816.737" width="1920" height="5337.103"/>
	</defs>
	<clipPath id="SVGID_9_">
		<use xlink:href="#SVGID_56_"  overflow="visible"/>
	</clipPath>
</g>
<g>
	<defs>
		<rect id="SVGID_58_" x="-917.302" y="-2816.737" width="1920" height="5337.103"/>
	</defs>
	<clipPath id="SVGID_11_">
		<use xlink:href="#SVGID_58_"  overflow="visible"/>
	</clipPath>
</g>
<g>
	<defs>
		<rect id="SVGID_60_" x="-917.302" y="-2816.737" width="1920" height="5337.103"/>
	</defs>
	<clipPath id="SVGID_13_">
		<use xlink:href="#SVGID_60_"  overflow="visible"/>
	</clipPath>
</g>
<g>
	<defs>
		<rect id="SVGID_62_" x="-917.302" y="-2816.737" width="1920" height="5337.103"/>
	</defs>
	<clipPath id="SVGID_15_">
		<use xlink:href="#SVGID_62_"  overflow="visible"/>
	</clipPath>
</g>
<g>
	<defs>
		<rect id="SVGID_66_" x="-917.302" y="-2816.737" width="1920" height="5337.103"/>
	</defs>
	<clipPath id="SVGID_16_">
		<use xlink:href="#SVGID_66_"  overflow="visible"/>
	</clipPath>
</g>
<g>
	<defs>
		<rect id="SVGID_70_" x="-917.302" y="-2816.737" width="1920" height="5337.103"/>
	</defs>
	<clipPath id="SVGID_17_">
		<use xlink:href="#SVGID_70_"  overflow="visible"/>
	</clipPath>
</g>
<g>
	<defs>
		<rect id="SVGID_74_" x="-917.302" y="-2816.737" width="1920" height="5337.103"/>
	</defs>
	<clipPath id="SVGID_18_">
		<use xlink:href="#SVGID_74_"  overflow="visible"/>
	</clipPath>
</g>
<g>
	<defs>
		<rect id="SVGID_76_" x="-917.302" y="-2816.737" width="1920" height="5337.103"/>
	</defs>
	<clipPath id="SVGID_20_">
		<use xlink:href="#SVGID_76_"  overflow="visible"/>
	</clipPath>
</g>
<g>
	<defs>
		<rect id="SVGID_78_" x="-917.302" y="-2816.737" width="1920" height="5337.103"/>
	</defs>
	<clipPath id="SVGID_22_">
		<use xlink:href="#SVGID_78_"  overflow="visible"/>
	</clipPath>
</g>
<g>
	<defs>
		<rect id="SVGID_84_" x="-917.302" y="-2816.737" width="1920" height="5337.103"/>
	</defs>
	<clipPath id="SVGID_24_">
		<use xlink:href="#SVGID_84_"  overflow="visible"/>
	</clipPath>
</g>
<g>
	<defs>
		<rect id="SVGID_90_" x="-917.302" y="-2816.737" width="1920" height="5337.103"/>
	</defs>
	<clipPath id="SVGID_25_">
		<use xlink:href="#SVGID_90_"  overflow="visible"/>
	</clipPath>
</g>
<g>
	<defs>
		<rect id="SVGID_92_" x="-917.302" y="-2816.737" width="1920" height="5337.103"/>
	</defs>
	<clipPath id="SVGID_26_">
		<use xlink:href="#SVGID_92_"  overflow="visible"/>
	</clipPath>
</g>
<g>
	<defs>
		<rect id="SVGID_102_" x="-276.303" y="-501.737" width="641.001" height="318"/>
	</defs>
	<clipPath id="SVGID_27_">
		<use xlink:href="#SVGID_102_"  overflow="visible"/>
	</clipPath>
	<g clip-path="url(#SVGID_27_)">
		<defs>
			<rect id="SVGID_104_" x="-380.302" y="-1306.736" width="1023" height="1363.999"/>
		</defs>
		<clipPath id="SVGID_29_">
			<use xlink:href="#SVGID_104_"  overflow="visible"/>
		</clipPath>
	</g>
</g>
<g>
	<defs>
		<rect id="SVGID_106_" x="-917.302" y="-2816.737" width="1920" height="5337.103"/>
	</defs>
	<clipPath id="SVGID_31_">
		<use xlink:href="#SVGID_106_"  overflow="visible"/>
	</clipPath>
</g>
<g>
	<defs>
		<rect id="SVGID_108_" x="-917.302" y="-2816.737" width="1920" height="5337.103"/>
	</defs>
	<clipPath id="SVGID_33_">
		<use xlink:href="#SVGID_108_"  overflow="visible"/>
	</clipPath>
</g>
<rect x="-917.302" y="-2816.737" fill="none" width="1920" height="5337.103"/>
<path fill="#333333" d="M42.518,45.005c-0.777,0-1.407,0.631-1.407,1.407s0.63,1.406,1.407,1.406c0.776,0,1.406-0.63,1.406-1.406
	S43.294,45.005,42.518,45.005"/>
<path fill="#333333" d="M59.396,45.005H48.144c-0.777,0-1.406,0.63-1.406,1.407c0,0.776,0.629,1.406,1.406,1.406h11.252
	c0.776,0,1.406-0.63,1.406-1.406C60.802,45.635,60.172,45.005,59.396,45.005"/>
<path fill="#333333" d="M66.428,11.394V7.735c0-1.315-0.512-2.551-1.441-3.481c-0.93-0.93-2.166-1.44-3.481-1.44
	c-1.063,0-2.049,0.339-2.854,0.916c-0.871-1.395-2.417-2.323-4.178-2.323c-1.063,0-2.047,0.34-2.853,0.914
	c-0.196-0.314-0.43-0.61-0.699-0.879C49.991,0.512,48.755,0,47.44,0c-1.377,0-2.622,0.568-3.517,1.481
	C43.029,0.568,41.784,0,40.407,0c-2.714,0-4.923,2.208-4.923,4.922v6.329H21.676c-1.347-2.007-3.265-3.617-5.479-4.579
	c-1.596-0.694-3.293-1.047-5.045-1.047c-4.5,0-8.699,2.421-10.958,6.318c-0.251,0.433-0.253,0.966-0.006,1.4
	s0.705,0.705,1.205,0.712c0.661,0.008,1.32,0.008,1.32,0.008h5.044l1.989,1.989v4.462l-1.989,1.987H1.405
	c-0.502,0-0.967,0.269-1.218,0.704s-0.25,0.973,0.001,1.407c2.259,3.903,6.46,6.328,10.964,6.328c4.227,0,8.187-2.136,10.527-5.625
	h7.416c0.492,1.295,1.254,2.479,2.24,3.465l4.903,4.903c1.328,1.327,2.059,3.093,2.059,4.971v0.725h-1.406
	c-0.777,0-1.406,0.63-1.406,1.406v19.691c0,0.775,0.629,1.405,1.406,1.405h28.13c0.776,0,1.406-0.63,1.406-1.405V40.786
	c0-0.776-0.63-1.406-1.406-1.406h-1.406v-1.074c0-1.74,0.392-3.494,1.132-5.071c1.13-2.403,1.681-4.602,1.681-6.72v-1.341
	c3.206-0.653,5.626-3.494,5.626-6.891C72.054,14.888,69.634,12.046,66.428,11.394 M19.683,23.204
	c-1.758,3.037-5.026,4.924-8.53,4.924c-2.598,0-5.067-1.037-6.886-2.812h4.073c0.373,0,0.731-0.149,0.995-0.413l2.813-2.813
	c0.264-0.264,0.412-0.621,0.412-0.994v-5.626c0-0.372-0.148-0.731-0.412-0.995l-2.813-2.813c-0.264-0.264-0.622-0.412-0.995-0.412
	H4.267c1.818-1.775,4.288-2.813,6.886-2.813c1.363,0,2.683,0.273,3.924,0.813c1.919,0.835,3.555,2.295,4.606,4.111
	c0.86,1.488,1.316,3.19,1.316,4.921C20.999,20.013,20.542,21.715,19.683,23.204 M59.396,7.735c0-1.164,0.946-2.11,2.109-2.11
	c0.564,0,1.094,0.22,1.492,0.618s0.617,0.928,0.617,1.492v7.033c0,1.162-0.947,2.108-2.109,2.108c-1.163,0-2.109-0.946-2.109-2.108
	V7.735z M52.362,12.657V6.328c0-1.163,0.946-2.109,2.11-2.109c1.163,0,2.109,0.946,2.109,2.109v1.407v7.033
	c0,1.162-0.946,2.108-2.109,2.108c-0.564,0-1.095-0.22-1.492-0.618c-0.398-0.397-0.618-0.928-0.618-1.49V12.657z M45.33,4.922
	c0-1.163,0.946-2.108,2.11-2.108c0.563,0,1.094,0.219,1.492,0.616c0.397,0.398,0.617,0.929,0.617,1.492v1.406v4.923h-4.22V4.922z
	 M38.297,4.922c0-1.163,0.947-2.108,2.11-2.108s2.11,0.945,2.11,2.108v6.329h-4.22V4.922z M28.452,21.096v0.725
	c0,0.228,0.009,0.455,0.025,0.683h-5.391c0.477-1.35,0.725-2.777,0.725-4.22c0-1.443-0.248-2.871-0.724-4.218h8.323
	c-0.356,0.346-0.687,0.722-0.989,1.125C29.151,16.883,28.452,18.981,28.452,21.096 M63.614,59.069H38.297V42.192h1.407h22.503h1.406
	V59.069z M63.614,26.515c0,1.695-0.462,3.502-1.413,5.522c-0.916,1.949-1.399,4.116-1.399,6.268v1.075H41.11v-0.725
	c0-2.63-1.024-5.102-2.883-6.961l-4.903-4.902c-0.892-0.893-1.528-2.01-1.84-3.232c-0.145-0.568-0.219-1.153-0.219-1.739v-0.725
	c0-1.512,0.5-3.01,1.406-4.22c1.321-1.761,3.424-2.813,5.626-2.813h11.071c-0.248,0.97-0.75,1.854-1.467,2.571
	c-1.064,1.063-2.476,1.648-3.978,1.648h-4.219c-0.729,0-1.338,0.558-1.401,1.284c-0.063,0.728,0.44,1.382,1.159,1.507
	c2.323,0.407,4.345,1.698,5.693,3.637c0.004,0.005,0.007,0.009,0.011,0.013c1.009,1.459,1.546,3.17,1.557,4.944l0.015,2.687
	c0.004,0.774,0.633,1.399,1.406,1.399h0.007c0.777-0.005,1.403-0.638,1.399-1.414l-0.014-2.687
	c-0.009-1.504-0.305-2.971-0.868-4.338h14.947L63.614,26.515L63.614,26.515z M65.021,22.503H47.017
	c-0.452-0.568-0.95-1.091-1.49-1.559c1.643-0.314,3.154-1.111,4.364-2.32c0.257-0.257,0.494-0.529,0.714-0.813
	c0.119,0.151,0.248,0.298,0.387,0.437c0.93,0.93,2.166,1.442,3.481,1.442c1.376,0,2.622-0.569,3.516-1.483
	c0.895,0.914,2.139,1.483,3.517,1.483c2.714,0,4.923-2.209,4.923-4.922v-0.463c1.637,0.581,2.813,2.144,2.813,3.978
	C69.24,20.609,67.348,22.503,65.021,22.503"/>
<rect x="-917.302" y="-2816.737" fill="none" width="1920" height="5337.103"/>
<g>
	<defs>
		<rect id="SVGID_110_" x="-917.302" y="-2816.737" width="1920" height="5337.103"/>
	</defs>
	<clipPath id="SVGID_35_">
		<use xlink:href="#SVGID_110_"  overflow="visible"/>
	</clipPath>
</g>
<g>
	<defs>
		<rect id="SVGID_112_" x="-917.302" y="-2816.737" width="1920" height="5337.103"/>
	</defs>
	<clipPath id="SVGID_37_">
		<use xlink:href="#SVGID_112_"  overflow="visible"/>
	</clipPath>
</g>
<g>
	<defs>
		<rect id="SVGID_114_" x="-917.302" y="-2816.737" width="1920" height="5337.103"/>
	</defs>
	<clipPath id="SVGID_39_">
		<use xlink:href="#SVGID_114_"  overflow="visible"/>
	</clipPath>
</g>
<g>
	<defs>
		<rect id="SVGID_116_" x="-917.302" y="-2816.737" width="1920" height="5337.103"/>
	</defs>
	<clipPath id="SVGID_41_">
		<use xlink:href="#SVGID_116_"  overflow="visible"/>
	</clipPath>
</g>
<g>
	<defs>
		<rect id="SVGID_118_" x="-917.302" y="-2816.737" width="1920" height="5337.103"/>
	</defs>
	<clipPath id="SVGID_43_">
		<use xlink:href="#SVGID_118_"  overflow="visible"/>
	</clipPath>
</g>
<g>
	<defs>
		<rect id="SVGID_136_" x="-917.302" y="-2816.737" width="1920" height="5337.103"/>
	</defs>
	<clipPath id="SVGID_45_">
		<use xlink:href="#SVGID_136_"  overflow="visible"/>
	</clipPath>
</g>
<g>
	<defs>
		<rect id="SVGID_138_" x="-917.302" y="-2816.737" width="1920" height="5337.103"/>
	</defs>
	<clipPath id="SVGID_47_">
		<use xlink:href="#SVGID_138_"  overflow="visible"/>
	</clipPath>
</g>
<g>
	<defs>
		<rect id="SVGID_146_" x="-917.302" y="-2816.737" width="1920" height="5337.103"/>
	</defs>
	<clipPath id="SVGID_49_">
		<use xlink:href="#SVGID_146_"  overflow="visible"/>
	</clipPath>
</g>
<rect x="-917.302" y="-2816.734" fill="none" width="1920" height="5337.1"/>
</svg>
