<?xml version="1.0" encoding="utf-8"?>
<!-- Generator: Adobe Illustrator 16.0.0, SVG Export Plug-In . SVG Version: 6.00 Build 0)  -->
<!DOCTYPE svg PUBLIC "-//W3C//DTD SVG 1.1//EN" "http://www.w3.org/Graphics/SVG/1.1/DTD/svg11.dtd">
<svg version="1.1" id="Capa_1" xmlns="http://www.w3.org/2000/svg" xmlns:xlink="http://www.w3.org/1999/xlink" x="0px" y="0px"
	 width="99.555px" height="158.735px" viewBox="0 0 99.555 158.735" enable-background="new 0 0 99.555 158.735"
	 xml:space="preserve">
<rect x="-886.996" y="-4525.205" fill="none" width="1920" height="5337.103"/>
<g>
	<defs>
		<rect id="SVGID_34_" x="-886.996" y="-4525.205" width="1920" height="5337.103"/>
	</defs>
	<clipPath id="SVGID_2_">
		<use xlink:href="#SVGID_34_"  overflow="visible"/>
	</clipPath>
</g>
<g>
	<defs>
		<rect id="SVGID_44_" x="-886.996" y="-4525.205" width="1920" height="5337.103"/>
	</defs>
	<clipPath id="SVGID_4_">
		<use xlink:href="#SVGID_44_"  overflow="visible"/>
	</clipPath>
</g>
<g>
	<defs>
		<rect id="SVGID_48_" x="-886.996" y="-4525.205" width="1920" height="5337.103"/>
	</defs>
	<clipPath id="SVGID_6_">
		<use xlink:href="#SVGID_48_"  overflow="visible"/>
	</clipPath>
</g>
<rect x="-886.996" y="-4525.205" fill="none" width="1920" height="5337.103"/>
<rect x="-886.996" y="-4525.205" fill="none" width="1920" height="5337.103"/>
<g>
	<defs>
		<rect id="SVGID_52_" x="-886.996" y="-4525.205" width="1920" height="5337.103"/>
	</defs>
	<clipPath id="SVGID_7_">
		<use xlink:href="#SVGID_52_"  overflow="visible"/>
	</clipPath>
</g>
<g>
	<defs>
		<rect id="SVGID_54_" x="-886.996" y="-4525.205" width="1920" height="5337.103"/>
	</defs>
	<clipPath id="SVGID_8_">
		<use xlink:href="#SVGID_54_"  overflow="visible"/>
	</clipPath>
	<path clip-path="url(#SVGID_8_)" fill="#D5D5D5" d="M66.845,158.735H42.706c-4.031,0-7.311-3.279-7.311-7.312V96.978H21.312
		c-4.031,0-7.312-3.281-7.312-7.313v-23.33c0-4.032,3.28-7.312,7.312-7.312h14.084V47.34c0-11.584,3.637-21.439,10.518-28.5
		C52.824,11.748,62.483,8,73.846,8l18.409,0.03c4.025,0.007,7.3,3.286,7.3,7.312v21.662c0,4.031-3.279,7.312-7.31,7.312L79.85,44.32
		c-3.779,0-4.742,0.758-4.948,0.99c-0.339,0.385-0.743,1.474-0.743,4.481v9.229h17.155c1.291,0,2.543,0.319,3.618,0.919
		c2.319,1.296,3.762,3.747,3.762,6.396l-0.01,23.33c0,4.03-3.279,7.31-7.312,7.31H74.158v54.448
		C74.158,155.456,70.877,158.735,66.845,158.735 M92.238,16.867L92.238,16.867L92.238,16.867z"/>
	<path clip-path="url(#SVGID_8_)" fill="#43689B" d="M52.845,150.735H28.706c-4.031,0-7.311-3.279-7.311-7.312V88.978H7.312
		C3.28,88.978,0,85.696,0,81.665v-23.33c0-4.032,3.28-7.312,7.312-7.312h14.084V39.34c0-11.584,3.637-21.439,10.518-28.5
		C38.824,3.748,48.483,0,59.845,0l18.41,0.03c4.025,0.007,7.3,3.286,7.3,7.312v21.662c0,4.031-3.279,7.312-7.31,7.312L65.85,36.32
		c-3.78,0-4.743,0.758-4.949,0.99c-0.339,0.385-0.743,1.474-0.743,4.481v9.229h17.155c1.291,0,2.543,0.319,3.618,0.919
		c2.319,1.296,3.762,3.747,3.762,6.396l-0.01,23.33c0,4.03-3.279,7.31-7.312,7.31H60.158v54.448
		C60.158,147.456,56.877,150.735,52.845,150.735 M30.231,141.898h21.09V85.021c0-2.692,2.19-4.883,4.881-4.883h19.645l0.009-20.279
		H56.201c-2.691,0-4.88-2.189-4.88-4.882V41.792c0-3.452,0.35-7.379,2.956-10.33c3.149-3.567,8.111-3.979,11.57-3.979l10.87-0.005
		V8.864L59.839,8.837c-18.261,0-29.608,11.688-29.608,30.503v15.638c0,2.691-2.189,4.882-4.88,4.882H8.836v20.279h16.515
		c2.691,0,4.88,2.19,4.88,4.883V141.898z M78.238,8.867L78.238,8.867L78.238,8.867z"/>
</g>
<g>
	<defs>
		<rect id="SVGID_56_" x="-886.996" y="-4525.205" width="1920" height="5337.103"/>
	</defs>
	<clipPath id="SVGID_9_">
		<use xlink:href="#SVGID_56_"  overflow="visible"/>
	</clipPath>
</g>
<g>
	<defs>
		<rect id="SVGID_60_" x="-886.996" y="-4525.205" width="1920" height="5337.103"/>
	</defs>
	<clipPath id="SVGID_11_">
		<use xlink:href="#SVGID_60_"  overflow="visible"/>
	</clipPath>
</g>
<g>
	<defs>
		<rect id="SVGID_64_" x="-886.996" y="-4525.205" width="1920" height="5337.103"/>
	</defs>
	<clipPath id="SVGID_13_">
		<use xlink:href="#SVGID_64_"  overflow="visible"/>
	</clipPath>
</g>
<g>
	<defs>
		<rect id="SVGID_68_" x="-886.996" y="-4525.205" width="1920" height="5337.103"/>
	</defs>
	<clipPath id="SVGID_15_">
		<use xlink:href="#SVGID_68_"  overflow="visible"/>
	</clipPath>
</g>
<g>
	<defs>
		<rect id="SVGID_70_" x="-886.996" y="-4525.205" width="1920" height="5337.103"/>
	</defs>
	<clipPath id="SVGID_16_">
		<use xlink:href="#SVGID_70_"  overflow="visible"/>
	</clipPath>
</g>
<g>
	<defs>
		<rect id="SVGID_72_" x="-886.996" y="-4525.205" width="1920" height="5337.103"/>
	</defs>
	<clipPath id="SVGID_17_">
		<use xlink:href="#SVGID_72_"  overflow="visible"/>
	</clipPath>
</g>
<g>
	<defs>
		<rect id="SVGID_78_" x="-886.996" y="-4525.205" width="1920" height="5337.103"/>
	</defs>
	<clipPath id="SVGID_18_">
		<use xlink:href="#SVGID_78_"  overflow="visible"/>
	</clipPath>
</g>
<g>
	<defs>
		<rect id="SVGID_84_" x="-886.996" y="-4525.205" width="1920" height="5337.103"/>
	</defs>
	<clipPath id="SVGID_20_">
		<use xlink:href="#SVGID_84_"  overflow="visible"/>
	</clipPath>
</g>
<g>
	<defs>
		<rect id="SVGID_86_" x="-886.996" y="-4525.205" width="1920" height="5337.103"/>
	</defs>
	<clipPath id="SVGID_22_">
		<use xlink:href="#SVGID_86_"  overflow="visible"/>
	</clipPath>
</g>
<g>
	<defs>
		<rect id="SVGID_100_" x="-886.996" y="-4525.205" width="1920" height="5337.103"/>
	</defs>
	<clipPath id="SVGID_24_">
		<use xlink:href="#SVGID_100_"  overflow="visible"/>
	</clipPath>
</g>
<g>
	<defs>
		<rect id="SVGID_102_" x="-886.996" y="-4525.205" width="1920" height="5337.103"/>
	</defs>
	<clipPath id="SVGID_25_">
		<use xlink:href="#SVGID_102_"  overflow="visible"/>
	</clipPath>
</g>
<g>
	<defs>
		<rect id="SVGID_104_" x="-886.996" y="-4525.205" width="1920" height="5337.103"/>
	</defs>
	<clipPath id="SVGID_26_">
		<use xlink:href="#SVGID_104_"  overflow="visible"/>
	</clipPath>
</g>
<g>
	<defs>
		<rect id="SVGID_114_" x="-886.996" y="-4525.205" width="1920" height="5337.103"/>
	</defs>
	<clipPath id="SVGID_27_">
		<use xlink:href="#SVGID_114_"  overflow="visible"/>
	</clipPath>
</g>
<g>
	<defs>
		<rect id="SVGID_116_" x="-886.996" y="-4525.205" width="1920" height="5337.103"/>
	</defs>
	<clipPath id="SVGID_29_">
		<use xlink:href="#SVGID_116_"  overflow="visible"/>
	</clipPath>
</g>
<g>
	<defs>
		<rect id="SVGID_118_" x="-886.996" y="-4525.205" width="1920" height="5337.103"/>
	</defs>
	<clipPath id="SVGID_31_">
		<use xlink:href="#SVGID_118_"  overflow="visible"/>
	</clipPath>
</g>
<g>
	<defs>
		<rect id="SVGID_120_" x="-886.996" y="-4525.205" width="1920" height="5337.103"/>
	</defs>
	<clipPath id="SVGID_33_">
		<use xlink:href="#SVGID_120_"  overflow="visible"/>
	</clipPath>
</g>
<g>
	<defs>
		<rect id="SVGID_122_" x="-886.996" y="-4525.205" width="1920" height="5337.103"/>
	</defs>
	<clipPath id="SVGID_35_">
		<use xlink:href="#SVGID_122_"  overflow="visible"/>
	</clipPath>
</g>
<g>
	<defs>
		<rect id="SVGID_124_" x="-886.996" y="-4525.205" width="1920" height="5337.103"/>
	</defs>
	<clipPath id="SVGID_37_">
		<use xlink:href="#SVGID_124_"  overflow="visible"/>
	</clipPath>
</g>
<g>
	<defs>
		<rect id="SVGID_142_" x="-886.996" y="-4525.205" width="1920" height="5337.103"/>
	</defs>
	<clipPath id="SVGID_39_">
		<use xlink:href="#SVGID_142_"  overflow="visible"/>
	</clipPath>
</g>
<g>
	<defs>
		<rect id="SVGID_150_" x="-886.996" y="-4525.205" width="1920" height="5337.103"/>
	</defs>
	<clipPath id="SVGID_41_">
		<use xlink:href="#SVGID_150_"  overflow="visible"/>
	</clipPath>
</g>
<rect x="-886.996" y="-4525.202" fill="none" width="1920" height="5337.1"/>
</svg>
