<?xml version="1.0" encoding="utf-8"?>
<!-- Generator: Adobe Illustrator 16.0.0, SVG Export Plug-In . SVG Version: 6.00 Build 0)  -->
<!DOCTYPE svg PUBLIC "-//W3C//DTD SVG 1.1//EN" "http://www.w3.org/Graphics/SVG/1.1/DTD/svg11.dtd">
<svg version="1.1" id="Capa_1" xmlns="http://www.w3.org/2000/svg" xmlns:xlink="http://www.w3.org/1999/xlink" x="0px" y="0px"
	 width="91.687px" height="52.136px" viewBox="0 0 91.687 52.136" enable-background="new 0 0 91.687 52.136" xml:space="preserve">
<g>
	<defs>
		<rect id="SVGID_32_" x="-1494.565" y="-2819.046" width="1920" height="5337.103"/>
	</defs>
	<clipPath id="SVGID_2_">
		<use xlink:href="#SVGID_32_"  overflow="visible"/>
	</clipPath>
</g>
<g>
	<defs>
		<rect id="SVGID_36_" x="-1494.565" y="-2819.046" width="1920" height="5337.103"/>
	</defs>
	<clipPath id="SVGID_4_">
		<use xlink:href="#SVGID_36_"  overflow="visible"/>
	</clipPath>
</g>
<g>
	<defs>
		<rect id="SVGID_46_" x="-1494.565" y="-2819.046" width="1920" height="5337.103"/>
	</defs>
	<clipPath id="SVGID_6_">
		<use xlink:href="#SVGID_46_"  overflow="visible"/>
	</clipPath>
</g>
<g>
	<defs>
		<rect id="SVGID_50_" x="-1494.565" y="-2819.046" width="1920" height="5337.103"/>
	</defs>
	<clipPath id="SVGID_7_">
		<use xlink:href="#SVGID_50_"  overflow="visible"/>
	</clipPath>
</g>
<g>
	<defs>
		<rect id="SVGID_54_" x="-1494.565" y="-2819.046" width="1920" height="5337.103"/>
	</defs>
	<clipPath id="SVGID_8_">
		<use xlink:href="#SVGID_54_"  overflow="visible"/>
	</clipPath>
</g>
<g>
	<defs>
		<rect id="SVGID_56_" x="-1494.565" y="-2819.046" width="1920" height="5337.103"/>
	</defs>
	<clipPath id="SVGID_9_">
		<use xlink:href="#SVGID_56_"  overflow="visible"/>
	</clipPath>
</g>
<g>
	<defs>
		<rect id="SVGID_58_" x="-1494.565" y="-2819.046" width="1920" height="5337.103"/>
	</defs>
	<clipPath id="SVGID_11_">
		<use xlink:href="#SVGID_58_"  overflow="visible"/>
	</clipPath>
</g>
<g>
	<defs>
		<rect id="SVGID_60_" x="-1494.565" y="-2819.046" width="1920" height="5337.103"/>
	</defs>
	<clipPath id="SVGID_13_">
		<use xlink:href="#SVGID_60_"  overflow="visible"/>
	</clipPath>
</g>
<g>
	<defs>
		<rect id="SVGID_62_" x="-1494.565" y="-2819.046" width="1920" height="5337.103"/>
	</defs>
	<clipPath id="SVGID_15_">
		<use xlink:href="#SVGID_62_"  overflow="visible"/>
	</clipPath>
</g>
<g>
	<defs>
		<rect id="SVGID_66_" x="-1494.565" y="-2819.046" width="1920" height="5337.103"/>
	</defs>
	<clipPath id="SVGID_16_">
		<use xlink:href="#SVGID_66_"  overflow="visible"/>
	</clipPath>
</g>
<g>
	<defs>
		<rect id="SVGID_70_" x="-1494.565" y="-2819.046" width="1920" height="5337.103"/>
	</defs>
	<clipPath id="SVGID_17_">
		<use xlink:href="#SVGID_70_"  overflow="visible"/>
	</clipPath>
</g>
<g>
	<defs>
		<rect id="SVGID_74_" x="-1494.565" y="-2819.046" width="1920" height="5337.103"/>
	</defs>
	<clipPath id="SVGID_18_">
		<use xlink:href="#SVGID_74_"  overflow="visible"/>
	</clipPath>
</g>
<g>
	<defs>
		<rect id="SVGID_76_" x="-1494.565" y="-2819.046" width="1920" height="5337.103"/>
	</defs>
	<clipPath id="SVGID_20_">
		<use xlink:href="#SVGID_76_"  overflow="visible"/>
	</clipPath>
</g>
<g>
	<defs>
		<rect id="SVGID_78_" x="-1494.565" y="-2819.046" width="1920" height="5337.103"/>
	</defs>
	<clipPath id="SVGID_22_">
		<use xlink:href="#SVGID_78_"  overflow="visible"/>
	</clipPath>
</g>
<g>
	<defs>
		<rect id="SVGID_84_" x="-1494.565" y="-2819.046" width="1920" height="5337.103"/>
	</defs>
	<clipPath id="SVGID_24_">
		<use xlink:href="#SVGID_84_"  overflow="visible"/>
	</clipPath>
</g>
<g>
	<defs>
		<rect id="SVGID_90_" x="-1494.565" y="-2819.046" width="1920" height="5337.103"/>
	</defs>
	<clipPath id="SVGID_25_">
		<use xlink:href="#SVGID_90_"  overflow="visible"/>
	</clipPath>
</g>
<g>
	<defs>
		<rect id="SVGID_92_" x="-1494.565" y="-2819.046" width="1920" height="5337.103"/>
	</defs>
	<clipPath id="SVGID_26_">
		<use xlink:href="#SVGID_92_"  overflow="visible"/>
	</clipPath>
</g>
<g>
	<defs>
		<rect id="SVGID_102_" x="-853.566" y="-504.046" width="641.001" height="318"/>
	</defs>
	<clipPath id="SVGID_27_">
		<use xlink:href="#SVGID_102_"  overflow="visible"/>
	</clipPath>
	<g clip-path="url(#SVGID_27_)">
		<defs>
			<rect id="SVGID_104_" x="-957.565" y="-1309.046" width="1023" height="1363.999"/>
		</defs>
		<clipPath id="SVGID_29_">
			<use xlink:href="#SVGID_104_"  overflow="visible"/>
		</clipPath>
	</g>
</g>
<g>
	<defs>
		<rect id="SVGID_106_" x="-1494.565" y="-2819.046" width="1920" height="5337.103"/>
	</defs>
	<clipPath id="SVGID_31_">
		<use xlink:href="#SVGID_106_"  overflow="visible"/>
	</clipPath>
</g>
<g>
	<defs>
		<rect id="SVGID_108_" x="-1494.565" y="-2819.046" width="1920" height="5337.103"/>
	</defs>
	<clipPath id="SVGID_33_">
		<use xlink:href="#SVGID_108_"  overflow="visible"/>
	</clipPath>
</g>
<g opacity="0.06">
	<g>
		<defs>
			<rect id="SVGID_110_" x="-1311.405" y="-226.993" width="1621.67" height="1185.62"/>
		</defs>
		<clipPath id="SVGID_35_">
			<use xlink:href="#SVGID_110_"  overflow="visible"/>
		</clipPath>
		<g clip-path="url(#SVGID_35_)">
			<defs>
				<rect id="SVGID_112_" x="-1229.565" y="118.158" width="1466" height="341.592"/>
			</defs>
			<clipPath id="SVGID_37_">
				<use xlink:href="#SVGID_112_"  overflow="visible"/>
			</clipPath>
			<g clip-path="url(#SVGID_37_)">
				<defs>
					<rect id="SVGID_114_" x="-1311.405" y="-226.993" width="1621.674" height="1185.624"/>
				</defs>
				<clipPath id="SVGID_39_">
					<use xlink:href="#SVGID_114_"  overflow="visible"/>
				</clipPath>
			</g>
		</g>
	</g>
</g>
<rect x="-1494.565" y="-2819.046" fill="none" width="1920" height="5337.103"/>
<g>
	<defs>
		<rect id="SVGID_118_" x="-1494.565" y="-2819.046" width="1920" height="5337.103"/>
	</defs>
	<clipPath id="SVGID_41_">
		<use xlink:href="#SVGID_118_"  overflow="visible"/>
	</clipPath>
	<path clip-path="url(#SVGID_41_)" fill="#333333" d="M11.335,16.477c0.257-0.983,0.361-1.951,0.756-2.783
		c1.139-2.411,3.084-3.666,5.787-3.666c11.896,0,43.729,0.052,55.623-0.033c3.484-0.024,6.41,2.346,6.697,6.042
		c0.011,0.12,0.038,0.239,0.07,0.44l-0.056,29.784c-0.351,2.911-1.861,4.873-4.702,5.825l-59.161,0.05
		c-1.926-0.598-3.416-1.678-4.242-3.524c-0.191-0.429-0.445-0.885-0.448-1.331L11.335,16.477z M35.883,12.506
		c-5.839,0-11.679,0.072-17.517-0.033c-2.607-0.048-4.394,1.62-4.369,4.369c0.087,9.53,0.086,19.063,0.003,28.596
		c-0.026,2.975,1.989,4.382,4.396,4.373c11.709-0.043,43.355-0.017,55.065-0.018c2.666,0,4.241-1.572,4.243-4.241
		c0.004-9.563,0.005-19.127,0.001-28.69c-0.001-2.912-1.452-4.354-4.369-4.355C67.498,12.504,41.723,12.506,35.883,12.506"/>
	<path clip-path="url(#SVGID_41_)" fill="#333333" d="M81.783,31.268c0-4.623-0.001-9.245,0.001-13.868
		c0-0.296-0.099-0.672,0.044-0.87c0.282-0.394,0.673-0.905,1.072-0.957c0.337-0.043,0.817,0.438,1.102,0.795
		c0.167,0.209,0.097,0.625,0.097,0.948c0.006,9.306,0.008,18.608,0.005,27.913c0,0.323,0.008,0.663-0.084,0.966
		c-0.177,0.578-0.641,0.962-1.208,0.77c-0.396-0.136-0.715-0.586-0.989-0.954c-0.116-0.155-0.038-0.46-0.038-0.697
		C81.783,40.631,81.783,35.949,81.783,31.268"/>
	<path clip-path="url(#SVGID_41_)" fill="#333333" d="M85.77,27.68c0-4.622-0.001-2.469,0.001-7.091
		c0-0.296-0.099-0.672,0.044-0.871c0.282-0.394,0.673-0.905,1.072-0.957c0.336-0.044,0.817,0.438,1.101,0.795
		c0.168,0.209,0.098,0.626,0.098,0.949c0.006,9.304,0.007,11.832,0.005,21.136c0,0.323,0.008,0.664-0.084,0.967
		c-0.177,0.577-0.641,0.963-1.208,0.769c-0.396-0.134-0.715-0.586-0.99-0.954c-0.115-0.155-0.037-0.46-0.037-0.696
		C85.769,37.044,85.77,32.361,85.77,27.68"/>
	<path clip-path="url(#SVGID_41_)" fill="#333333" d="M89.356,24.093c0-4.623,0,5.902,0.001,1.279c0-0.296-0.098-0.672,0.045-0.871
		c0.282-0.392,0.673-0.904,1.072-0.957c0.336-0.044,0.816,0.44,1.101,0.795c0.167,0.21,0.096,0.626,0.098,0.949
		c0.005,9.305,0.007,3.461,0.005,12.766c0,0.323,0.008,0.663-0.085,0.966c-0.176,0.577-0.641,0.963-1.208,0.769
		c-0.396-0.134-0.714-0.586-0.989-0.953c-0.116-0.155-0.038-0.46-0.038-0.697C89.356,33.456,89.356,28.775,89.356,24.093"/>
	<path clip-path="url(#SVGID_41_)" fill="#333333" d="M9.929,31.276c0,4.634,0,9.269-0.001,13.902c0,0.297,0.099,0.674-0.045,0.873
		c-0.283,0.394-0.675,0.907-1.075,0.959c-0.337,0.044-0.818-0.439-1.104-0.796c-0.168-0.211-0.097-0.627-0.098-0.952
		C7.602,35.936,7.6,26.608,7.602,17.28c0-0.323-0.008-0.665,0.085-0.968c0.177-0.579,0.641-0.965,1.211-0.771
		c0.397,0.136,0.716,0.588,0.992,0.957c0.116,0.155,0.038,0.461,0.038,0.698C9.929,21.89,9.929,26.584,9.929,31.276"/>
	<path clip-path="url(#SVGID_41_)" fill="#333333" d="M5.933,34.873c0,4.634,0,2.475-0.001,7.108c0,0.297,0.099,0.674-0.045,0.873
		c-0.283,0.395-0.675,0.907-1.075,0.96c-0.337,0.044-0.818-0.44-1.104-0.797c-0.168-0.209-0.097-0.627-0.098-0.951
		c-0.005-9.328-0.007-11.862-0.005-21.189c0-0.324-0.008-0.665,0.085-0.969c0.177-0.578,0.641-0.964,1.211-0.77
		c0.397,0.135,0.716,0.588,0.992,0.955c0.116,0.155,0.038,0.461,0.038,0.699C5.933,25.486,5.933,30.18,5.933,34.873"/>
	<path clip-path="url(#SVGID_41_)" fill="#333333" d="M2.336,38.47c0,4.634,0-5.918-0.001-1.283c0,0.298,0.099,0.675-0.045,0.873
		c-0.282,0.395-0.674,0.907-1.074,0.959c-0.338,0.044-0.819-0.439-1.105-0.796c-0.166-0.211-0.096-0.628-0.096-0.952
		c-0.006-9.327-0.008-3.47-0.005-12.797c0-0.323-0.009-0.665,0.084-0.969c0.177-0.579,0.642-0.964,1.211-0.771
		c0.397,0.136,0.717,0.588,0.992,0.957c0.116,0.154,0.038,0.461,0.038,0.697C2.336,29.082,2.336,33.775,2.336,38.47"/>
	<path clip-path="url(#SVGID_41_)" fill="#333333" d="M29.398,3.397c0-0.256-0.095-0.565,0.058-0.758
		c0.242-0.304,0.601-0.653,1.01-0.76c0.585-0.15,1.077,0.141,1.259,0.604c0.095,0.241,0.109,0.506,0.109,0.761
		c0.003,2.75,0,5.5,0,8.25h2.448c-0.001-0.906,0-1.812,0-2.717c0-1.941,0.021-3.884-0.007-5.826C34.25,1.169,32.682-0.031,30.486,0
		c-2.1,0.03-3.554,1.255-3.561,3.051c-0.012,2.813-0.009,5.628-0.007,8.443h2.478C29.396,8.795,29.396,6.097,29.398,3.397"/>
	<path clip-path="url(#SVGID_41_)" fill="#333333" d="M44.771,3.397c0-0.256-0.095-0.565,0.059-0.758
		c0.241-0.304,0.6-0.653,1.01-0.76c0.585-0.15,1.076,0.141,1.258,0.604c0.095,0.241,0.11,0.506,0.11,0.761
		c0.001,2.75-0.001,5.5,0,8.25h2.447c0-0.906,0.001-1.812,0.001-2.717c0-1.941,0.021-3.884-0.007-5.826
		C49.622,1.169,48.055-0.031,45.858,0c-2.1,0.03-3.553,1.255-3.561,3.051c-0.011,2.813-0.008,5.628-0.006,8.443h2.478
		C44.77,8.795,44.77,6.097,44.771,3.397"/>
	<path clip-path="url(#SVGID_41_)" fill="#333333" d="M58.914,3.397c0-0.256-0.095-0.565,0.058-0.758
		c0.242-0.304,0.601-0.653,1.01-0.76c0.585-0.15,1.077,0.141,1.259,0.604c0.095,0.241,0.109,0.506,0.109,0.761
		c0.003,2.75,0,5.5,0,8.25h2.448V8.777c0-1.941,0.021-3.884-0.007-5.826C63.766,1.169,62.197-0.031,60.002,0
		c-2.1,0.03-3.554,1.255-3.561,3.051c-0.012,2.813-0.009,5.628-0.007,8.443h2.479C58.912,8.795,58.912,6.097,58.914,3.397"/>
</g>
<g>
	<defs>
		<rect id="SVGID_120_" x="-1494.565" y="-2819.046" width="1920" height="5337.103"/>
	</defs>
	<clipPath id="SVGID_43_">
		<use xlink:href="#SVGID_120_"  overflow="visible"/>
	</clipPath>
</g>
<g>
	<defs>
		<rect id="SVGID_122_" x="-1494.565" y="-2819.046" width="1920" height="5337.103"/>
	</defs>
	<clipPath id="SVGID_45_">
		<use xlink:href="#SVGID_122_"  overflow="visible"/>
	</clipPath>
</g>
<g>
	<defs>
		<rect id="SVGID_124_" x="-1494.565" y="-2819.046" width="1920" height="5337.103"/>
	</defs>
	<clipPath id="SVGID_47_">
		<use xlink:href="#SVGID_124_"  overflow="visible"/>
	</clipPath>
</g>
<g>
	<defs>
		<rect id="SVGID_126_" x="-1494.565" y="-2819.046" width="1920" height="5337.103"/>
	</defs>
	<clipPath id="SVGID_49_">
		<use xlink:href="#SVGID_126_"  overflow="visible"/>
	</clipPath>
</g>
<g>
	<defs>
		<rect id="SVGID_128_" x="-1494.565" y="-2819.046" width="1920" height="5337.103"/>
	</defs>
	<clipPath id="SVGID_51_">
		<use xlink:href="#SVGID_128_"  overflow="visible"/>
	</clipPath>
</g>
<g>
	<defs>
		<rect id="SVGID_146_" x="-1494.565" y="-2819.046" width="1920" height="5337.103"/>
	</defs>
	<clipPath id="SVGID_53_">
		<use xlink:href="#SVGID_146_"  overflow="visible"/>
	</clipPath>
</g>
<g>
	<defs>
		<rect id="SVGID_148_" x="-1494.565" y="-2819.046" width="1920" height="5337.103"/>
	</defs>
	<clipPath id="SVGID_55_">
		<use xlink:href="#SVGID_148_"  overflow="visible"/>
	</clipPath>
</g>
<g>
	<defs>
		<rect id="SVGID_156_" x="-1494.565" y="-2819.046" width="1920" height="5337.103"/>
	</defs>
	<clipPath id="SVGID_57_">
		<use xlink:href="#SVGID_156_"  overflow="visible"/>
	</clipPath>
</g>
<rect x="-1494.565" y="-2819.043" fill="none" width="1920" height="5337.1"/>
</svg>
