<?xml version="1.0" encoding="utf-8"?>
<!-- Generator: Adobe Illustrator 16.0.0, SVG Export Plug-In . SVG Version: 6.00 Build 0)  -->
<!DOCTYPE svg PUBLIC "-//W3C//DTD SVG 1.1//EN" "http://www.w3.org/Graphics/SVG/1.1/DTD/svg11.dtd">
<svg version="1.1" id="Capa_1" xmlns="http://www.w3.org/2000/svg" xmlns:xlink="http://www.w3.org/1999/xlink" x="0px" y="0px"
	 width="148.215px" height="146.216px" viewBox="0 0 148.215 146.216" enable-background="new 0 0 148.215 146.216"
	 xml:space="preserve">
<rect x="-1269.016" y="-4531.964" fill="none" width="1920" height="5337.103"/>
<g>
	<defs>
		<rect id="SVGID_34_" x="-1269.016" y="-4531.964" width="1920" height="5337.103"/>
	</defs>
	<clipPath id="SVGID_2_">
		<use xlink:href="#SVGID_34_"  overflow="visible"/>
	</clipPath>
</g>
<g>
	<defs>
		<rect id="SVGID_44_" x="-1269.016" y="-4531.964" width="1920" height="5337.103"/>
	</defs>
	<clipPath id="SVGID_4_">
		<use xlink:href="#SVGID_44_"  overflow="visible"/>
	</clipPath>
</g>
<g>
	<defs>
		<rect id="SVGID_48_" x="-1269.016" y="-4531.964" width="1920" height="5337.103"/>
	</defs>
	<clipPath id="SVGID_6_">
		<use xlink:href="#SVGID_48_"  overflow="visible"/>
	</clipPath>
</g>
<rect x="-1269.016" y="-4531.964" fill="none" width="1920" height="5337.103"/>
<rect x="-1269.016" y="-4531.964" fill="none" width="1920" height="5337.103"/>
<g>
	<defs>
		<rect id="SVGID_52_" x="-1269.016" y="-4531.964" width="1920" height="5337.103"/>
	</defs>
	<clipPath id="SVGID_7_">
		<use xlink:href="#SVGID_52_"  overflow="visible"/>
	</clipPath>
</g>
<g>
	<defs>
		<rect id="SVGID_54_" x="-1269.016" y="-4531.964" width="1920" height="5337.103"/>
	</defs>
	<clipPath id="SVGID_8_">
		<use xlink:href="#SVGID_54_"  overflow="visible"/>
	</clipPath>
	<path clip-path="url(#SVGID_8_)" fill="#D5D5D5" d="M111.072,9h-62.93C27.661,9,11,25.662,11,46.145v62.929
		c0,20.48,16.661,37.143,37.143,37.143h62.931c20.479,0,37.142-16.662,37.142-37.143V46.145C148.215,25.662,131.553,9,111.072,9"/>
	<path clip-path="url(#SVGID_8_)" fill="#43689B" d="M100.072,0h-62.93C16.661,0,0,16.662,0,37.144v62.93
		c0,20.479,16.661,37.143,37.143,37.143h62.931c20.479,0,37.142-16.663,37.142-37.143v-62.93C137.215,16.662,120.553,0,100.072,0
		 M129.171,100.073c0,16.045-13.054,29.099-29.099,29.099h-62.93c-16.046,0-29.099-13.054-29.099-29.099v-62.93
		c0-16.046,13.053-29.099,29.099-29.099h62.931c16.044,0,29.098,13.053,29.098,29.099V100.073z"/>
	<path clip-path="url(#SVGID_8_)" fill="#43689B" d="M68.607,31.089c-20.688,0-37.52,16.831-37.52,37.52
		c0,20.688,16.831,37.519,37.52,37.519c20.687,0,37.519-16.831,37.519-37.519C106.126,47.92,89.294,31.089,68.607,31.089
		 M68.607,98.083c-16.252,0-29.475-13.223-29.475-29.475c0-16.253,13.223-29.475,29.475-29.475s29.475,13.222,29.475,29.475
		C98.082,84.86,84.859,98.083,68.607,98.083"/>
	<path clip-path="url(#SVGID_8_)" fill="#43689B" d="M107.023,17.765c-6.114,0-11.087,4.974-11.087,11.086
		c0,6.114,4.973,11.088,11.087,11.088c6.113,0,11.087-4.974,11.087-11.088C118.11,22.737,113.137,17.765,107.023,17.765
		 M107.023,31.894c-1.678,0-3.043-1.365-3.043-3.043s1.365-3.042,3.043-3.042s3.043,1.364,3.043,3.042
		S108.701,31.894,107.023,31.894"/>
</g>
<g>
	<defs>
		<rect id="SVGID_56_" x="-1269.016" y="-4531.964" width="1920" height="5337.103"/>
	</defs>
	<clipPath id="SVGID_9_">
		<use xlink:href="#SVGID_56_"  overflow="visible"/>
	</clipPath>
</g>
<g>
	<defs>
		<rect id="SVGID_60_" x="-1269.016" y="-4531.964" width="1920" height="5337.103"/>
	</defs>
	<clipPath id="SVGID_11_">
		<use xlink:href="#SVGID_60_"  overflow="visible"/>
	</clipPath>
</g>
<g>
	<defs>
		<rect id="SVGID_64_" x="-1269.016" y="-4531.964" width="1920" height="5337.103"/>
	</defs>
	<clipPath id="SVGID_13_">
		<use xlink:href="#SVGID_64_"  overflow="visible"/>
	</clipPath>
</g>
<g>
	<defs>
		<rect id="SVGID_68_" x="-1269.016" y="-4531.964" width="1920" height="5337.103"/>
	</defs>
	<clipPath id="SVGID_15_">
		<use xlink:href="#SVGID_68_"  overflow="visible"/>
	</clipPath>
</g>
<g>
	<defs>
		<rect id="SVGID_70_" x="-1269.016" y="-4531.964" width="1920" height="5337.103"/>
	</defs>
	<clipPath id="SVGID_16_">
		<use xlink:href="#SVGID_70_"  overflow="visible"/>
	</clipPath>
</g>
<g>
	<defs>
		<rect id="SVGID_72_" x="-1269.016" y="-4531.964" width="1920" height="5337.103"/>
	</defs>
	<clipPath id="SVGID_17_">
		<use xlink:href="#SVGID_72_"  overflow="visible"/>
	</clipPath>
</g>
<g>
	<defs>
		<rect id="SVGID_78_" x="-1269.016" y="-4531.964" width="1920" height="5337.103"/>
	</defs>
	<clipPath id="SVGID_18_">
		<use xlink:href="#SVGID_78_"  overflow="visible"/>
	</clipPath>
</g>
<g>
	<defs>
		<rect id="SVGID_84_" x="-1269.016" y="-4531.964" width="1920" height="5337.103"/>
	</defs>
	<clipPath id="SVGID_20_">
		<use xlink:href="#SVGID_84_"  overflow="visible"/>
	</clipPath>
</g>
<g>
	<defs>
		<rect id="SVGID_86_" x="-1269.016" y="-4531.964" width="1920" height="5337.103"/>
	</defs>
	<clipPath id="SVGID_22_">
		<use xlink:href="#SVGID_86_"  overflow="visible"/>
	</clipPath>
</g>
<g>
	<defs>
		<rect id="SVGID_100_" x="-1269.016" y="-4531.964" width="1920" height="5337.103"/>
	</defs>
	<clipPath id="SVGID_24_">
		<use xlink:href="#SVGID_100_"  overflow="visible"/>
	</clipPath>
</g>
<g>
	<defs>
		<rect id="SVGID_102_" x="-1269.016" y="-4531.964" width="1920" height="5337.103"/>
	</defs>
	<clipPath id="SVGID_25_">
		<use xlink:href="#SVGID_102_"  overflow="visible"/>
	</clipPath>
</g>
<g>
	<defs>
		<rect id="SVGID_104_" x="-1269.016" y="-4531.964" width="1920" height="5337.103"/>
	</defs>
	<clipPath id="SVGID_26_">
		<use xlink:href="#SVGID_104_"  overflow="visible"/>
	</clipPath>
</g>
<g>
	<defs>
		<rect id="SVGID_114_" x="-1269.016" y="-4531.964" width="1920" height="5337.103"/>
	</defs>
	<clipPath id="SVGID_27_">
		<use xlink:href="#SVGID_114_"  overflow="visible"/>
	</clipPath>
</g>
<g>
	<defs>
		<rect id="SVGID_116_" x="-1269.016" y="-4531.964" width="1920" height="5337.103"/>
	</defs>
	<clipPath id="SVGID_29_">
		<use xlink:href="#SVGID_116_"  overflow="visible"/>
	</clipPath>
</g>
<g>
	<defs>
		<rect id="SVGID_118_" x="-1269.016" y="-4531.964" width="1920" height="5337.103"/>
	</defs>
	<clipPath id="SVGID_31_">
		<use xlink:href="#SVGID_118_"  overflow="visible"/>
	</clipPath>
</g>
<g>
	<defs>
		<rect id="SVGID_120_" x="-1269.016" y="-4531.964" width="1920" height="5337.103"/>
	</defs>
	<clipPath id="SVGID_33_">
		<use xlink:href="#SVGID_120_"  overflow="visible"/>
	</clipPath>
</g>
<g>
	<defs>
		<rect id="SVGID_122_" x="-1269.016" y="-4531.964" width="1920" height="5337.103"/>
	</defs>
	<clipPath id="SVGID_35_">
		<use xlink:href="#SVGID_122_"  overflow="visible"/>
	</clipPath>
</g>
<g>
	<defs>
		<rect id="SVGID_124_" x="-1269.016" y="-4531.964" width="1920" height="5337.103"/>
	</defs>
	<clipPath id="SVGID_37_">
		<use xlink:href="#SVGID_124_"  overflow="visible"/>
	</clipPath>
</g>
<g>
	<defs>
		<rect id="SVGID_142_" x="-1269.016" y="-4531.964" width="1920" height="5337.103"/>
	</defs>
	<clipPath id="SVGID_39_">
		<use xlink:href="#SVGID_142_"  overflow="visible"/>
	</clipPath>
</g>
<g>
	<defs>
		<rect id="SVGID_150_" x="-1269.016" y="-4531.964" width="1920" height="5337.103"/>
	</defs>
	<clipPath id="SVGID_41_">
		<use xlink:href="#SVGID_150_"  overflow="visible"/>
	</clipPath>
</g>
<rect x="-1269.016" y="-4531.961" fill="none" width="1920" height="5337.1"/>
</svg>
