<?xml version="1.0" encoding="utf-8"?>
<!-- Generator: Adobe Illustrator 16.0.0, SVG Export Plug-In . SVG Version: 6.00 Build 0)  -->
<!DOCTYPE svg PUBLIC "-//W3C//DTD SVG 1.1//EN" "http://www.w3.org/Graphics/SVG/1.1/DTD/svg11.dtd">
<svg version="1.1" id="Capa_1" xmlns="http://www.w3.org/2000/svg" xmlns:xlink="http://www.w3.org/1999/xlink" x="0px" y="0px"
	 width="167.769px" height="95.4px" viewBox="0 0 167.769 95.4" enable-background="new 0 0 167.769 95.4" xml:space="preserve">
<g>
	<defs>
		<rect id="SVGID_32_" x="-51.231" y="-579.601" width="1920" height="5337.103"/>
	</defs>
	<clipPath id="SVGID_2_">
		<use xlink:href="#SVGID_32_"  overflow="visible"/>
	</clipPath>
</g>
<g>
	<defs>
		<rect id="SVGID_36_" x="-51.231" y="-579.601" width="1920" height="5337.103"/>
	</defs>
	<clipPath id="SVGID_4_">
		<use xlink:href="#SVGID_36_"  overflow="visible"/>
	</clipPath>
</g>
<g>
	<defs>
		<rect id="SVGID_46_" x="-51.231" y="-579.601" width="1920" height="5337.103"/>
	</defs>
	<clipPath id="SVGID_6_">
		<use xlink:href="#SVGID_46_"  overflow="visible"/>
	</clipPath>
</g>
<g>
	<defs>
		<rect id="SVGID_50_" x="-51.231" y="-579.601" width="1920" height="5337.103"/>
	</defs>
	<clipPath id="SVGID_7_">
		<use xlink:href="#SVGID_50_"  overflow="visible"/>
	</clipPath>
</g>
<g>
	<defs>
		<rect id="SVGID_54_" x="-51.231" y="-579.601" width="1920" height="5337.103"/>
	</defs>
	<clipPath id="SVGID_8_">
		<use xlink:href="#SVGID_54_"  overflow="visible"/>
	</clipPath>
</g>
<g>
	<defs>
		<rect id="SVGID_56_" x="-51.231" y="-579.601" width="1920" height="5337.103"/>
	</defs>
	<clipPath id="SVGID_9_">
		<use xlink:href="#SVGID_56_"  overflow="visible"/>
	</clipPath>
</g>
<g>
	<defs>
		<rect id="SVGID_58_" x="-51.231" y="-579.601" width="1920" height="5337.103"/>
	</defs>
	<clipPath id="SVGID_11_">
		<use xlink:href="#SVGID_58_"  overflow="visible"/>
	</clipPath>
</g>
<g>
	<defs>
		<rect id="SVGID_60_" x="-51.231" y="-579.601" width="1920" height="5337.103"/>
	</defs>
	<clipPath id="SVGID_13_">
		<use xlink:href="#SVGID_60_"  overflow="visible"/>
	</clipPath>
</g>
<g>
	<defs>
		<rect id="SVGID_62_" x="-51.231" y="-579.601" width="1920" height="5337.103"/>
	</defs>
	<clipPath id="SVGID_15_">
		<use xlink:href="#SVGID_62_"  overflow="visible"/>
	</clipPath>
</g>
<g>
	<defs>
		<rect id="SVGID_66_" x="-51.231" y="-579.601" width="1920" height="5337.103"/>
	</defs>
	<clipPath id="SVGID_16_">
		<use xlink:href="#SVGID_66_"  overflow="visible"/>
	</clipPath>
</g>
<g>
	<defs>
		<rect id="SVGID_70_" x="-51.231" y="-579.601" width="1920" height="5337.103"/>
	</defs>
	<clipPath id="SVGID_17_">
		<use xlink:href="#SVGID_70_"  overflow="visible"/>
	</clipPath>
</g>
<g>
	<defs>
		<rect id="SVGID_74_" x="-51.231" y="-579.601" width="1920" height="5337.103"/>
	</defs>
	<clipPath id="SVGID_18_">
		<use xlink:href="#SVGID_74_"  overflow="visible"/>
	</clipPath>
</g>
<g>
	<defs>
		<rect id="SVGID_76_" x="-51.231" y="-579.601" width="1920" height="5337.103"/>
	</defs>
	<clipPath id="SVGID_20_">
		<use xlink:href="#SVGID_76_"  overflow="visible"/>
	</clipPath>
</g>
<g>
	<defs>
		<rect id="SVGID_78_" x="-51.231" y="-579.601" width="1920" height="5337.103"/>
	</defs>
	<clipPath id="SVGID_22_">
		<use xlink:href="#SVGID_78_"  overflow="visible"/>
	</clipPath>
</g>
<path fill="#FFFFFF" d="M20.741,30.148c0.47-1.798,0.663-3.57,1.382-5.093c2.084-4.41,5.644-6.707,10.591-6.707
	c21.766,0,80.013,0.096,101.778-0.06c6.375-0.046,11.73,4.293,12.257,11.056c0.017,0.221,0.068,0.438,0.126,0.804l-0.101,54.502
	c-0.641,5.326-3.407,8.916-8.604,10.658L29.917,95.4c-3.524-1.094-6.251-3.071-7.763-6.451c-0.35-0.784-0.815-1.62-0.819-2.435
	L20.741,30.148z M65.659,22.883c-10.684,0-21.371,0.134-32.052-0.061c-4.772-0.085-8.041,2.966-7.995,7.996
	c0.159,17.439,0.156,34.882,0.005,52.323c-0.047,5.445,3.641,8.017,8.044,8.001c21.426-0.077,79.333-0.029,100.76-0.03
	c4.878,0,7.761-2.876,7.763-7.761c0.007-17.499,0.01-34.998,0.003-52.497c-0.002-5.329-2.658-7.967-7.994-7.969
	C123.508,22.88,76.344,22.884,65.659,22.883"/>
<path fill="#FFFFFF" d="M149.646,57.214c0-8.458,0-16.916,0.002-25.375c0-0.541-0.18-1.23,0.081-1.594
	c0.517-0.719,1.231-1.655,1.962-1.751c0.616-0.08,1.495,0.803,2.015,1.454c0.306,0.384,0.177,1.146,0.178,1.737
	c0.01,17.025,0.013,34.05,0.009,51.075c0,0.592,0.014,1.214-0.155,1.767c-0.322,1.057-1.172,1.761-2.21,1.408
	c-0.726-0.247-1.307-1.073-1.811-1.745c-0.212-0.285-0.069-0.842-0.069-1.276C149.646,74.348,149.646,65.781,149.646,57.214"/>
<path fill="#FFFFFF" d="M156.94,50.649c0-8.458,0-4.517,0.002-12.976c0-0.541-0.18-1.229,0.081-1.593
	c0.517-0.719,1.231-1.656,1.962-1.751c0.615-0.08,1.495,0.802,2.015,1.454c0.306,0.384,0.177,1.145,0.178,1.736
	c0.01,17.026,0.013,21.651,0.009,38.676c0,0.592,0.014,1.214-0.155,1.767c-0.322,1.057-1.172,1.761-2.21,1.408
	c-0.726-0.247-1.307-1.073-1.811-1.745c-0.212-0.285-0.069-0.842-0.069-1.276C156.94,67.784,156.94,59.216,156.94,50.649"/>
<path fill="#FFFFFF" d="M163.505,44.085c0-8.458,0,10.8,0.002,2.342c0-0.542-0.18-1.231,0.081-1.594
	c0.517-0.72,1.231-1.655,1.962-1.751c0.616-0.081,1.495,0.803,2.015,1.454c0.306,0.383,0.177,1.145,0.178,1.737
	c0.01,17.025,0.013,6.333,0.009,23.358c0,0.592,0.014,1.214-0.155,1.767c-0.322,1.057-1.172,1.761-2.21,1.408
	c-0.726-0.247-1.307-1.073-1.811-1.745c-0.212-0.285-0.069-0.842-0.069-1.276C163.505,61.219,163.505,52.651,163.505,44.085"/>
<path fill="#FFFFFF" d="M18.167,57.23c0,8.479,0.001,16.958-0.001,25.437c-0.001,0.543,0.18,1.234-0.082,1.598
	c-0.518,0.722-1.234,1.66-1.967,1.756c-0.617,0.081-1.499-0.805-2.019-1.458c-0.307-0.384-0.179-1.147-0.179-1.74
	c-0.01-17.068-0.013-34.136-0.009-51.203c0-0.593-0.014-1.216,0.155-1.772c0.323-1.059,1.175-1.764,2.215-1.41
	c0.728,0.248,1.311,1.074,1.816,1.749c0.213,0.285,0.069,0.844,0.07,1.278C18.167,40.054,18.167,48.643,18.167,57.23"/>
<path fill="#FFFFFF" d="M10.855,63.811c0,8.479,0.001,4.528-0.001,13.008c-0.001,0.543,0.18,1.233-0.082,1.597
	c-0.518,0.722-1.234,1.661-1.967,1.756c-0.617,0.081-1.499-0.804-2.019-1.458c-0.307-0.383-0.179-1.147-0.179-1.74
	c-0.01-17.068-0.013-21.705-0.009-38.772c0-0.593-0.014-1.217,0.155-1.772c0.323-1.059,1.175-1.765,2.215-1.41
	c0.728,0.247,1.311,1.074,1.816,1.749c0.213,0.284,0.069,0.844,0.07,1.278C10.855,46.635,10.855,55.223,10.855,63.811"/>
<path fill="#FFFFFF" d="M4.274,70.392c0,8.479,0-10.827-0.002-2.348c0,0.543,0.18,1.234-0.081,1.598
	c-0.518,0.722-1.234,1.66-1.967,1.756c-0.617,0.081-1.499-0.805-2.02-1.458c-0.306-0.384-0.178-1.148-0.178-1.74
	c-0.01-17.069-0.014-6.35-0.009-23.417c0-0.593-0.015-1.217,0.155-1.773c0.323-1.058,1.174-1.764,2.215-1.41
	c0.728,0.248,1.311,1.075,1.816,1.75c0.213,0.284,0.069,0.844,0.069,1.278C4.274,53.216,4.274,61.804,4.274,70.392"/>
<path fill="#FFFFFF" d="M53.792,6.219c0-0.471-0.173-1.036,0.107-1.388c0.442-0.557,1.098-1.196,1.848-1.389
	c1.069-0.277,1.969,0.256,2.302,1.103c0.173,0.441,0.201,0.927,0.201,1.392c0.003,5.031-0.001,10.062,0,15.094h4.479
	c-0.001-1.656,0.001-3.312,0.001-4.969c0-3.553,0.039-7.107-0.013-10.66c-0.048-3.261-2.916-5.457-6.934-5.401
	c-3.842,0.055-6.502,2.296-6.515,5.582c-0.021,5.149-0.016,10.299-0.012,15.448h4.534C53.791,16.093,53.79,11.156,53.792,6.219"/>
<path fill="#FFFFFF" d="M81.922,6.219c0-0.471-0.173-1.036,0.106-1.388c0.443-0.557,1.098-1.196,1.848-1.389
	c1.07-0.277,1.97,0.256,2.303,1.103c0.173,0.441,0.2,0.927,0.201,1.392c0.003,5.031-0.001,10.062,0,15.094h4.479
	c-0.001-1.656,0.001-3.312,0.001-4.969c0-3.553,0.038-7.107-0.014-10.66c-0.047-3.261-2.915-5.457-6.933-5.401
	c-3.842,0.055-6.502,2.296-6.515,5.582c-0.021,5.149-0.016,10.299-0.012,15.448h4.534C81.92,16.093,81.919,11.156,81.922,6.219"/>
<path fill="#FFFFFF" d="M107.8,6.219c0-0.471-0.173-1.036,0.106-1.388c0.443-0.557,1.099-1.196,1.849-1.389
	c1.069-0.277,1.969,0.256,2.302,1.103c0.173,0.441,0.201,0.927,0.201,1.392c0.003,5.031-0.001,10.062,0,15.094h4.479
	c0-1.656,0.001-3.312,0.001-4.969c0-3.553,0.039-7.107-0.013-10.66c-0.048-3.261-2.916-5.457-6.934-5.401
	c-3.842,0.055-6.502,2.296-6.515,5.582c-0.021,5.149-0.016,10.299-0.012,15.448h4.534C107.798,16.093,107.797,11.156,107.8,6.219"/>
<rect x="-51.231" y="-579.601" fill="none" width="1920" height="5337.103"/>
<g>
	<defs>
		<rect id="SVGID_88_" x="-51.231" y="-579.601" width="1920" height="5337.103"/>
	</defs>
	<clipPath id="SVGID_24_">
		<use xlink:href="#SVGID_88_"  overflow="visible"/>
	</clipPath>
</g>
<g>
	<defs>
		<rect id="SVGID_90_" x="-51.231" y="-579.601" width="1920" height="5337.103"/>
	</defs>
	<clipPath id="SVGID_25_">
		<use xlink:href="#SVGID_90_"  overflow="visible"/>
	</clipPath>
</g>
<g>
	<defs>
		<rect id="SVGID_104_" x="-51.231" y="-579.601" width="1920" height="5337.103"/>
	</defs>
	<clipPath id="SVGID_26_">
		<use xlink:href="#SVGID_104_"  overflow="visible"/>
	</clipPath>
</g>
<g>
	<defs>
		<rect id="SVGID_106_" x="-51.231" y="-579.601" width="1920" height="5337.103"/>
	</defs>
	<clipPath id="SVGID_27_">
		<use xlink:href="#SVGID_106_"  overflow="visible"/>
	</clipPath>
</g>
<rect x="-51.231" y="-579.601" fill="none" width="1920" height="5337.103"/>
<rect x="-51.231" y="-579.601" fill="none" width="1920" height="5337.103"/>
<g>
	<defs>
		<rect id="SVGID_108_" x="-51.231" y="-579.601" width="1920" height="5337.103"/>
	</defs>
	<clipPath id="SVGID_29_">
		<use xlink:href="#SVGID_108_"  overflow="visible"/>
	</clipPath>
</g>
<g>
	<defs>
		<rect id="SVGID_110_" x="-51.231" y="-579.601" width="1920" height="5337.103"/>
	</defs>
	<clipPath id="SVGID_31_">
		<use xlink:href="#SVGID_110_"  overflow="visible"/>
	</clipPath>
</g>
<g>
	<defs>
		<rect id="SVGID_112_" x="-51.231" y="-579.601" width="1920" height="5337.103"/>
	</defs>
	<clipPath id="SVGID_33_">
		<use xlink:href="#SVGID_112_"  overflow="visible"/>
	</clipPath>
</g>
<g>
	<defs>
		<rect id="SVGID_114_" x="-51.231" y="-579.601" width="1920" height="5337.103"/>
	</defs>
	<clipPath id="SVGID_35_">
		<use xlink:href="#SVGID_114_"  overflow="visible"/>
	</clipPath>
</g>
<g>
	<defs>
		<rect id="SVGID_116_" x="-51.231" y="-579.601" width="1920" height="5337.103"/>
	</defs>
	<clipPath id="SVGID_37_">
		<use xlink:href="#SVGID_116_"  overflow="visible"/>
	</clipPath>
</g>
<g>
	<defs>
		<rect id="SVGID_134_" x="-51.231" y="-579.601" width="1920" height="5337.103"/>
	</defs>
	<clipPath id="SVGID_39_">
		<use xlink:href="#SVGID_134_"  overflow="visible"/>
	</clipPath>
</g>
<g>
	<defs>
		<rect id="SVGID_136_" x="-51.231" y="-579.601" width="1920" height="5337.103"/>
	</defs>
	<clipPath id="SVGID_41_">
		<use xlink:href="#SVGID_136_"  overflow="visible"/>
	</clipPath>
	<g clip-path="url(#SVGID_41_)">
		<defs>
			<rect id="SVGID_138_" x="-968.64" y="140.885" width="366.409" height="352.029"/>
		</defs>
		<clipPath id="SVGID_43_">
			<use xlink:href="#SVGID_138_"  overflow="visible"/>
		</clipPath>
		<g clip-path="url(#SVGID_43_)">
			<defs>
				<rect id="SVGID_140_" x="-1141.804" y="-286.255" width="1281.42" height="854.28"/>
			</defs>
			<clipPath id="SVGID_45_">
				<use xlink:href="#SVGID_140_"  overflow="visible"/>
			</clipPath>
			<g clip-path="url(#SVGID_45_)">
				<defs>
					<rect id="SVGID_142_" x="-1141.804" y="-286.255" width="1281.42" height="854.28"/>
				</defs>
				<clipPath id="SVGID_47_">
					<use xlink:href="#SVGID_142_"  overflow="visible"/>
				</clipPath>
			</g>
		</g>
	</g>
</g>
<g>
	<defs>
		<rect id="SVGID_144_" x="-51.231" y="-579.601" width="1920" height="5337.103"/>
	</defs>
	<clipPath id="SVGID_49_">
		<use xlink:href="#SVGID_144_"  overflow="visible"/>
	</clipPath>
</g>
<rect x="-51.231" y="-579.598" fill="none" width="1920" height="5337.1"/>
</svg>
