<?xml version="1.0" encoding="utf-8"?>
<!-- Generator: Adobe Illustrator 16.0.0, SVG Export Plug-In . SVG Version: 6.00 Build 0)  -->
<!DOCTYPE svg PUBLIC "-//W3C//DTD SVG 1.1//EN" "http://www.w3.org/Graphics/SVG/1.1/DTD/svg11.dtd">
<svg version="1.1" id="Capa_1" xmlns="http://www.w3.org/2000/svg" xmlns:xlink="http://www.w3.org/1999/xlink" x="0px" y="0px"
	 width="136.842px" height="106.849px" viewBox="0 0 136.842 106.849" enable-background="new 0 0 136.842 106.849"
	 xml:space="preserve">
<g>
	<defs>
		<rect id="SVGID_1_" x="-1317.874" y="-1066.911" width="1920" height="5337.1"/>
	</defs>
	<clipPath id="SVGID_2_">
		<use xlink:href="#SVGID_1_"  overflow="visible"/>
	</clipPath>
	<g clip-path="url(#SVGID_2_)">
		<defs>
			<rect id="SVGID_34_" x="-1317.874" y="-1066.914" width="1920" height="5337.103"/>
		</defs>
		<clipPath id="SVGID_4_">
			<use xlink:href="#SVGID_34_"  overflow="visible"/>
		</clipPath>
	</g>
	<g clip-path="url(#SVGID_2_)">
		<defs>
			<rect id="SVGID_38_" x="-1317.874" y="-1066.914" width="1920" height="5337.103"/>
		</defs>
		<clipPath id="SVGID_6_">
			<use xlink:href="#SVGID_38_"  overflow="visible"/>
		</clipPath>
	</g>
	<g clip-path="url(#SVGID_2_)">
		<defs>
			<rect id="SVGID_48_" x="-1317.874" y="-1066.914" width="1920" height="5337.103"/>
		</defs>
		<clipPath id="SVGID_8_">
			<use xlink:href="#SVGID_48_"  overflow="visible"/>
		</clipPath>
	</g>
	<g clip-path="url(#SVGID_2_)">
		<defs>
			<rect id="SVGID_52_" x="-1317.874" y="-1066.914" width="1920" height="5337.103"/>
		</defs>
		<clipPath id="SVGID_9_">
			<use xlink:href="#SVGID_52_"  overflow="visible"/>
		</clipPath>
	</g>
	<g clip-path="url(#SVGID_2_)">
		<defs>
			<rect id="SVGID_56_" x="-1317.874" y="-1066.914" width="1920" height="5337.103"/>
		</defs>
		<clipPath id="SVGID_10_">
			<use xlink:href="#SVGID_56_"  overflow="visible"/>
		</clipPath>
	</g>
	<g clip-path="url(#SVGID_2_)">
		<defs>
			<rect id="SVGID_58_" x="-1317.874" y="-1066.914" width="1920" height="5337.103"/>
		</defs>
		<clipPath id="SVGID_11_">
			<use xlink:href="#SVGID_58_"  overflow="visible"/>
		</clipPath>
	</g>
	<g clip-path="url(#SVGID_2_)">
		<defs>
			<rect id="SVGID_60_" x="-1317.874" y="-1066.914" width="1920" height="5337.103"/>
		</defs>
		<clipPath id="SVGID_13_">
			<use xlink:href="#SVGID_60_"  overflow="visible"/>
		</clipPath>
		<path clip-path="url(#SVGID_13_)" fill="#FFFFFF" d="M10.628,67.066c-2.603,0-4.965,0.043-7.325-0.012
			C0.913,67,0.02,66.088,0.016,63.665C-0.005,51.86-0.005,40.054,0.017,28.249c0.004-2.435,0.908-3.303,3.319-3.326
			c2.356-0.022,4.714-0.005,7.282-0.005c0-2.415,0.002-4.633,0-6.853c-0.003-3.293,0.813-4.129,4.03-4.127
			c2.163,0.001,4.326,0,6.354,0c0.552-2.113,0.778-4.195,1.624-5.984c2.448-5.183,6.633-7.882,12.445-7.882
			c25.578,0,51.157,0.111,76.734-0.071c7.492-0.053,13.785,5.045,14.404,12.993c0.02,0.258,0.078,0.514,0.148,0.944
			c2.393,0,4.754-0.023,7.115,0.007c2.411,0.03,3.352,0.921,3.354,3.315c0.02,19.133,0.019,38.266,0.002,57.399
			c-0.002,2.412-0.92,3.29-3.33,3.32c-2.366,0.029-4.734,0.007-7.26,0.007c-0.754,6.26-4.003,10.477-10.11,12.524
			c1.228,3.695,2.417,7.271,3.604,10.848c0.234,0.707,0.512,1.406,0.676,2.13c0.416,1.826-0.637,3.31-2.534,3.317
			c-11.602,0.041-23.203,0.048-34.805-0.005c-2.112-0.008-3.06-1.71-2.336-3.95c1.062-3.284,2.192-6.547,3.285-9.821
			c0.211-0.631,0.381-1.276,0.597-2.005H63.389c1.18,3.554,2.305,6.942,3.43,10.331c0.171,0.514,0.357,1.023,0.503,1.544
			c0.717,2.552-0.291,3.935-2.957,3.94c-9.228,0.019-18.456,0.005-27.682,0.003c-1.9,0-3.8,0.006-5.699-0.01
			c-2.988-0.026-3.969-1.448-3.005-4.348c1.089-3.276,2.194-6.547,3.276-9.825c0.207-0.63,0.336-1.284,0.529-2.04
			c-4.141-1.285-7.346-3.609-9.123-7.58c-0.411-0.921-0.957-1.905-0.962-2.862c-0.011-2.011-1.041-2.303-2.704-2.199
			c-1.689,0.107-3.392,0.037-5.087,0.001c-2.219-0.048-3.212-0.999-3.267-3.239C10.582,72.303,10.628,69.864,10.628,67.066
			 M73.786,5.402c-12.555,0-25.113,0.156-37.666-0.071c-5.606-0.102-9.448,3.485-9.395,9.394
			c0.186,20.494,0.184,40.992,0.006,61.487c-0.056,6.4,4.279,9.422,9.453,9.404c25.179-0.092,50.358-0.034,75.537-0.035
			c5.732,0,9.121-3.381,9.123-9.121c0.009-20.564,0.012-41.128,0.004-61.692c-0.002-6.263-3.123-9.362-9.395-9.365
			C98.898,5.398,86.343,5.402,73.786,5.402 M21.208,19.349H16.12v53.175h5.088V19.349z M131.461,19.358h-5.124v53.122h5.124V19.358z
			 M10.471,30.346H5.425v31.223h5.046V30.346z M86.89,101.499c4.2,0,8.183,0.011,12.165-0.024c0.334-0.003,0.875-0.253,0.966-0.512
			c1.143-3.27,2.221-6.562,3.381-10.045c-4.187,0-7.984-0.036-11.779,0.04c-0.528,0.01-1.362,0.451-1.519,0.884
			C88.98,94.954,87.995,98.116,86.89,101.499 M33.978,101.49c4.188,0,8.036,0.028,11.884-0.037c0.462-0.008,1.184-0.428,1.328-0.824
			c1.15-3.15,2.19-6.341,3.328-9.71c-4.192,0-8.109-0.029-12.024,0.041c-0.457,0.007-1.168,0.469-1.313,0.879
			C36.079,94.946,35.089,98.092,33.978,101.49 M61.192,101.44c-1.146-3.42-2.201-6.614-3.307-9.791
			c-0.103-0.293-0.545-0.679-0.802-0.659c-0.387,0.029-0.978,0.299-1.086,0.605c-1.133,3.221-2.188,6.469-3.309,9.845H61.192z
			 M114.097,101.438c-1.131-3.383-2.186-6.646-3.376-9.857c-0.084-0.228-1.659-0.261-1.724-0.085
			c-1.189,3.248-2.254,6.541-3.386,9.942H114.097z"/>
		<path clip-path="url(#SVGID_13_)" fill="#FFFFFF" d="M73.766,47.389c-10.922,0-21.843,0.023-32.764-0.009
			c-5.206-0.017-8.758-3.21-8.844-7.823c-0.09-4.823,3.39-8.266,8.556-8.324c5.631-0.061,11.261-0.014,16.892-0.014
			c16.279,0,32.56-0.013,48.84,0.006c5.327,0.007,9.03,3.403,8.999,8.154c-0.03,4.686-3.691,8.009-8.916,8.019
			c-10.921,0.02-21.842,0.006-32.763,0.006V47.389z M73.732,41.95v0.022c10.643,0,21.285,0.002,31.928-0.004
			c0.743,0,1.661,0.196,2.191-0.159c0.854-0.572,1.962-1.493,2.018-2.329c0.056-0.843-0.908-1.916-1.685-2.589
			c-0.461-0.399-1.421-0.295-2.157-0.295c-21.488-0.013-42.977-0.012-64.465,0c-0.737,0-1.507,0.033-2.204,0.241
			c-1.342,0.399-2.188,1.479-1.75,2.763c0.307,0.901,1.32,1.688,2.202,2.219c0.557,0.335,1.454,0.127,2.198,0.128
			C52.584,41.952,63.158,41.95,73.732,41.95"/>
		<path clip-path="url(#SVGID_13_)" fill="#FFFFFF" d="M73.703,52.749c11.326,0,22.652-0.034,33.978,0.018
			c3.728,0.018,6.8,2.634,7.584,6.192c0.805,3.639-0.969,7.373-4.429,8.912c-1.135,0.505-2.478,0.756-3.727,0.758
			c-22.245,0.048-44.49,0.054-66.735,0.031c-4.784-0.005-8.213-3.393-8.221-7.947c-0.008-4.594,3.375-7.948,8.182-7.963
			c11.122-0.036,22.245-0.011,33.368-0.011V52.749z M73.744,63.356c10.724,0,21.446,0.005,32.17-0.011
			c0.805-0.001,1.848,0.139,2.356-0.289c0.772-0.651,1.618-1.753,1.598-2.643c-0.02-0.768-1.116-1.624-1.907-2.213
			c-0.405-0.302-1.183-0.13-1.791-0.13c-21.583-0.004-43.165-0.004-64.747-0.002c-0.543,0-1.093-0.025-1.626,0.053
			c-1.391,0.204-2.202,1.031-2.276,2.441c-0.074,1.423,0.695,2.322,2.032,2.658c0.645,0.162,1.346,0.13,2.021,0.13
			C52.298,63.358,63.021,63.355,73.744,63.356"/>
		<path clip-path="url(#SVGID_13_)" fill="#FFFFFF" d="M79.373,25.905c-10.577,0-21.154,0.001-31.732-0.003
			c-0.677,0-1.539,0.226-1.993-0.101c-0.899-0.646-2.07-1.54-2.189-2.454c-0.102-0.769,1.004-1.87,1.818-2.519
			c0.479-0.383,1.432-0.222,2.172-0.223c21.29-0.012,42.581-0.016,63.871-0.011c0.74,0,1.519-0.018,2.211,0.194
			c1.321,0.403,2.201,1.465,1.759,2.763c-0.31,0.908-1.34,1.635-2.183,2.265c-0.354,0.266-1.052,0.086-1.594,0.086
			C100.8,25.905,90.086,25.904,79.373,25.905"/>
		<path clip-path="url(#SVGID_13_)" fill="#FFFFFF" d="M37.885,23.299c-0.015,1.529-1.199,2.678-2.726,2.579
			c-1.615-0.103-2.411-1.119-2.51-2.624c-0.093-1.409,1.344-2.684,2.763-2.61C36.834,20.718,37.898,21.861,37.885,23.299"/>
	</g>
	<g clip-path="url(#SVGID_2_)">
		<defs>
			<rect id="SVGID_62_" x="-1317.874" y="-1066.914" width="1920" height="5337.103"/>
		</defs>
		<clipPath id="SVGID_15_">
			<use xlink:href="#SVGID_62_"  overflow="visible"/>
		</clipPath>
	</g>
	<g clip-path="url(#SVGID_2_)">
		<defs>
			<rect id="SVGID_64_" x="-1317.874" y="-1066.914" width="1920" height="5337.103"/>
		</defs>
		<clipPath id="SVGID_17_">
			<use xlink:href="#SVGID_64_"  overflow="visible"/>
		</clipPath>
	</g>
	<g clip-path="url(#SVGID_2_)">
		<defs>
			<rect id="SVGID_68_" x="-1317.874" y="-1066.914" width="1920" height="5337.103"/>
		</defs>
		<clipPath id="SVGID_18_">
			<use xlink:href="#SVGID_68_"  overflow="visible"/>
		</clipPath>
	</g>
	<g clip-path="url(#SVGID_2_)">
		<defs>
			<rect id="SVGID_72_" x="-1317.874" y="-1066.914" width="1920" height="5337.103"/>
		</defs>
		<clipPath id="SVGID_19_">
			<use xlink:href="#SVGID_72_"  overflow="visible"/>
		</clipPath>
	</g>
	<g clip-path="url(#SVGID_2_)">
		<defs>
			<rect id="SVGID_76_" x="-1317.874" y="-1066.914" width="1920" height="5337.103"/>
		</defs>
		<clipPath id="SVGID_20_">
			<use xlink:href="#SVGID_76_"  overflow="visible"/>
		</clipPath>
	</g>
	<g clip-path="url(#SVGID_2_)">
		<defs>
			<rect id="SVGID_78_" x="-1317.874" y="-1066.914" width="1920" height="5337.103"/>
		</defs>
		<clipPath id="SVGID_22_">
			<use xlink:href="#SVGID_78_"  overflow="visible"/>
		</clipPath>
	</g>
	<g clip-path="url(#SVGID_2_)">
		<defs>
			<rect id="SVGID_80_" x="-1317.874" y="-1066.914" width="1920" height="5337.103"/>
		</defs>
		<clipPath id="SVGID_24_">
			<use xlink:href="#SVGID_80_"  overflow="visible"/>
		</clipPath>
	</g>
	<g clip-path="url(#SVGID_2_)">
		<defs>
			<rect id="SVGID_86_" x="-1317.874" y="-1066.914" width="1920" height="5337.103"/>
		</defs>
		<clipPath id="SVGID_26_">
			<use xlink:href="#SVGID_86_"  overflow="visible"/>
		</clipPath>
	</g>
	<g clip-path="url(#SVGID_2_)">
		<defs>
			<rect id="SVGID_92_" x="-1317.874" y="-1066.914" width="1920" height="5337.103"/>
		</defs>
		<clipPath id="SVGID_27_">
			<use xlink:href="#SVGID_92_"  overflow="visible"/>
		</clipPath>
	</g>
	<g clip-path="url(#SVGID_2_)">
		<defs>
			<rect id="SVGID_94_" x="-1317.874" y="-1066.914" width="1920" height="5337.103"/>
		</defs>
		<clipPath id="SVGID_28_">
			<use xlink:href="#SVGID_94_"  overflow="visible"/>
		</clipPath>
	</g>
	<g clip-path="url(#SVGID_2_)">
		<defs>
			<rect id="SVGID_108_" x="-1317.874" y="-1066.914" width="1920" height="5337.103"/>
		</defs>
		<clipPath id="SVGID_29_">
			<use xlink:href="#SVGID_108_"  overflow="visible"/>
		</clipPath>
	</g>
	<g clip-path="url(#SVGID_2_)">
		<defs>
			<rect id="SVGID_110_" x="-1317.874" y="-1066.914" width="1920" height="5337.103"/>
		</defs>
		<clipPath id="SVGID_31_">
			<use xlink:href="#SVGID_110_"  overflow="visible"/>
		</clipPath>
	</g>
	<g clip-path="url(#SVGID_2_)">
		<defs>
			<rect id="SVGID_112_" x="-1317.874" y="-1066.914" width="1920" height="5337.103"/>
		</defs>
		<clipPath id="SVGID_33_">
			<use xlink:href="#SVGID_112_"  overflow="visible"/>
		</clipPath>
	</g>
	<g clip-path="url(#SVGID_2_)">
		<defs>
			<rect id="SVGID_122_" x="-1317.874" y="-1066.914" width="1920" height="5337.103"/>
		</defs>
		<clipPath id="SVGID_35_">
			<use xlink:href="#SVGID_122_"  overflow="visible"/>
		</clipPath>
	</g>
	<g clip-path="url(#SVGID_2_)">
		<defs>
			<rect id="SVGID_124_" x="-1317.874" y="-1066.914" width="1920" height="5337.103"/>
		</defs>
		<clipPath id="SVGID_37_">
			<use xlink:href="#SVGID_124_"  overflow="visible"/>
		</clipPath>
	</g>
	<g clip-path="url(#SVGID_2_)">
		<defs>
			<rect id="SVGID_126_" x="-1317.874" y="-1066.914" width="1920" height="5337.103"/>
		</defs>
		<clipPath id="SVGID_39_">
			<use xlink:href="#SVGID_126_"  overflow="visible"/>
		</clipPath>
	</g>
	<g clip-path="url(#SVGID_2_)">
		<defs>
			<rect id="SVGID_128_" x="-1317.874" y="-1066.914" width="1920" height="5337.103"/>
		</defs>
		<clipPath id="SVGID_41_">
			<use xlink:href="#SVGID_128_"  overflow="visible"/>
		</clipPath>
	</g>
	<g clip-path="url(#SVGID_2_)">
		<defs>
			<rect id="SVGID_130_" x="-1317.874" y="-1066.914" width="1920" height="5337.103"/>
		</defs>
		<clipPath id="SVGID_43_">
			<use xlink:href="#SVGID_130_"  overflow="visible"/>
		</clipPath>
	</g>
	<g clip-path="url(#SVGID_2_)">
		<defs>
			<rect id="SVGID_132_" x="-1317.874" y="-1066.914" width="1920" height="5337.103"/>
		</defs>
		<clipPath id="SVGID_45_">
			<use xlink:href="#SVGID_132_"  overflow="visible"/>
		</clipPath>
	</g>
	<g clip-path="url(#SVGID_2_)">
		<defs>
			<rect id="SVGID_150_" x="-1317.874" y="-1066.914" width="1920" height="5337.103"/>
		</defs>
		<clipPath id="SVGID_47_">
			<use xlink:href="#SVGID_150_"  overflow="visible"/>
		</clipPath>
	</g>
	<g clip-path="url(#SVGID_2_)">
		<defs>
			<rect id="SVGID_152_" x="-1317.874" y="-1066.914" width="1920" height="5337.103"/>
		</defs>
		<clipPath id="SVGID_49_">
			<use xlink:href="#SVGID_152_"  overflow="visible"/>
		</clipPath>
	</g>
	<g clip-path="url(#SVGID_2_)">
		<defs>
			<rect id="SVGID_160_" x="-1317.874" y="-1066.914" width="1920" height="5337.103"/>
		</defs>
		<clipPath id="SVGID_51_">
			<use xlink:href="#SVGID_160_"  overflow="visible"/>
		</clipPath>
	</g>
</g>
</svg>
