<?xml version="1.0" encoding="utf-8"?>
<!-- Generator: Adobe Illustrator 16.0.0, SVG Export Plug-In . SVG Version: 6.00 Build 0)  -->
<!DOCTYPE svg PUBLIC "-//W3C//DTD SVG 1.1//EN" "http://www.w3.org/Graphics/SVG/1.1/DTD/svg11.dtd">
<svg version="1.1" id="Capa_1" xmlns="http://www.w3.org/2000/svg" xmlns:xlink="http://www.w3.org/1999/xlink" x="0px" y="0px"
	 width="76.502px" height="71.939px" viewBox="0 0 76.502 71.939" enable-background="new 0 0 76.502 71.939" xml:space="preserve">
<g>
	<defs>
		<rect id="SVGID_32_" x="-642.426" y="-2812.633" width="1920" height="5337.103"/>
	</defs>
	<clipPath id="SVGID_2_">
		<use xlink:href="#SVGID_32_"  overflow="visible"/>
	</clipPath>
</g>
<g>
	<defs>
		<rect id="SVGID_36_" x="-642.426" y="-2812.633" width="1920" height="5337.103"/>
	</defs>
	<clipPath id="SVGID_4_">
		<use xlink:href="#SVGID_36_"  overflow="visible"/>
	</clipPath>
</g>
<g>
	<defs>
		<rect id="SVGID_46_" x="-642.426" y="-2812.633" width="1920" height="5337.103"/>
	</defs>
	<clipPath id="SVGID_6_">
		<use xlink:href="#SVGID_46_"  overflow="visible"/>
	</clipPath>
</g>
<g>
	<defs>
		<rect id="SVGID_50_" x="-642.426" y="-2812.633" width="1920" height="5337.103"/>
	</defs>
	<clipPath id="SVGID_7_">
		<use xlink:href="#SVGID_50_"  overflow="visible"/>
	</clipPath>
</g>
<g>
	<defs>
		<rect id="SVGID_54_" x="-642.426" y="-2812.633" width="1920" height="5337.103"/>
	</defs>
	<clipPath id="SVGID_8_">
		<use xlink:href="#SVGID_54_"  overflow="visible"/>
	</clipPath>
</g>
<g>
	<defs>
		<rect id="SVGID_56_" x="-642.426" y="-2812.633" width="1920" height="5337.103"/>
	</defs>
	<clipPath id="SVGID_9_">
		<use xlink:href="#SVGID_56_"  overflow="visible"/>
	</clipPath>
</g>
<g>
	<defs>
		<rect id="SVGID_58_" x="-642.426" y="-2812.633" width="1920" height="5337.103"/>
	</defs>
	<clipPath id="SVGID_11_">
		<use xlink:href="#SVGID_58_"  overflow="visible"/>
	</clipPath>
</g>
<g>
	<defs>
		<rect id="SVGID_60_" x="-642.426" y="-2812.633" width="1920" height="5337.103"/>
	</defs>
	<clipPath id="SVGID_13_">
		<use xlink:href="#SVGID_60_"  overflow="visible"/>
	</clipPath>
</g>
<g>
	<defs>
		<rect id="SVGID_62_" x="-642.426" y="-2812.633" width="1920" height="5337.103"/>
	</defs>
	<clipPath id="SVGID_15_">
		<use xlink:href="#SVGID_62_"  overflow="visible"/>
	</clipPath>
</g>
<g>
	<defs>
		<rect id="SVGID_66_" x="-642.426" y="-2812.633" width="1920" height="5337.103"/>
	</defs>
	<clipPath id="SVGID_16_">
		<use xlink:href="#SVGID_66_"  overflow="visible"/>
	</clipPath>
</g>
<g>
	<defs>
		<rect id="SVGID_70_" x="-642.426" y="-2812.633" width="1920" height="5337.103"/>
	</defs>
	<clipPath id="SVGID_17_">
		<use xlink:href="#SVGID_70_"  overflow="visible"/>
	</clipPath>
</g>
<g>
	<defs>
		<rect id="SVGID_74_" x="-642.426" y="-2812.633" width="1920" height="5337.103"/>
	</defs>
	<clipPath id="SVGID_18_">
		<use xlink:href="#SVGID_74_"  overflow="visible"/>
	</clipPath>
</g>
<g>
	<defs>
		<rect id="SVGID_76_" x="-642.426" y="-2812.633" width="1920" height="5337.103"/>
	</defs>
	<clipPath id="SVGID_20_">
		<use xlink:href="#SVGID_76_"  overflow="visible"/>
	</clipPath>
</g>
<g>
	<defs>
		<rect id="SVGID_78_" x="-642.426" y="-2812.633" width="1920" height="5337.103"/>
	</defs>
	<clipPath id="SVGID_22_">
		<use xlink:href="#SVGID_78_"  overflow="visible"/>
	</clipPath>
</g>
<g>
	<defs>
		<rect id="SVGID_84_" x="-642.426" y="-2812.633" width="1920" height="5337.103"/>
	</defs>
	<clipPath id="SVGID_24_">
		<use xlink:href="#SVGID_84_"  overflow="visible"/>
	</clipPath>
</g>
<g>
	<defs>
		<rect id="SVGID_90_" x="-642.426" y="-2812.633" width="1920" height="5337.103"/>
	</defs>
	<clipPath id="SVGID_25_">
		<use xlink:href="#SVGID_90_"  overflow="visible"/>
	</clipPath>
</g>
<g>
	<defs>
		<rect id="SVGID_92_" x="-642.426" y="-2812.633" width="1920" height="5337.103"/>
	</defs>
	<clipPath id="SVGID_26_">
		<use xlink:href="#SVGID_92_"  overflow="visible"/>
	</clipPath>
</g>
<g>
	<defs>
		<rect id="SVGID_102_" x="-1.427" y="-497.633" width="641.001" height="318"/>
	</defs>
	<clipPath id="SVGID_27_">
		<use xlink:href="#SVGID_102_"  overflow="visible"/>
	</clipPath>
	<g clip-path="url(#SVGID_27_)">
		<defs>
			<rect id="SVGID_104_" x="-105.426" y="-1302.633" width="1023" height="1363.999"/>
		</defs>
		<clipPath id="SVGID_29_">
			<use xlink:href="#SVGID_104_"  overflow="visible"/>
		</clipPath>
	</g>
</g>
<g>
	<defs>
		<rect id="SVGID_106_" x="-642.426" y="-2812.633" width="1920" height="5337.103"/>
	</defs>
	<clipPath id="SVGID_31_">
		<use xlink:href="#SVGID_106_"  overflow="visible"/>
	</clipPath>
</g>
<g>
	<defs>
		<rect id="SVGID_108_" x="-642.426" y="-2812.633" width="1920" height="5337.103"/>
	</defs>
	<clipPath id="SVGID_33_">
		<use xlink:href="#SVGID_108_"  overflow="visible"/>
	</clipPath>
</g>
<rect x="-642.426" y="-2812.633" fill="none" width="1920" height="5337.103"/>
<path fill="#333333" d="M61.091,11.97c-0.592,0-1.152-0.354-1.387-0.937c-0.308-0.766,0.063-1.636,0.828-1.944l1.286-0.516
	c0.765-0.309,1.635,0.063,1.943,0.828c0.309,0.765-0.063,1.636-0.828,1.943l-1.285,0.518C61.466,11.936,61.277,11.97,61.091,11.97"
	/>
<path fill="#333333" d="M53.379,4.101c-0.196,0-0.394-0.039-0.585-0.12c-0.76-0.323-1.113-1.2-0.789-1.96l0.474-1.111
	c0.323-0.76,1.201-1.113,1.96-0.789c0.759,0.323,1.112,1.201,0.789,1.959l-0.474,1.113C54.512,3.76,53.96,4.101,53.379,4.101"/>
<path fill="#333333" d="M62.09,23.461c-0.196,0-0.394-0.039-0.585-0.12l-1.113-0.474c-0.759-0.324-1.112-1.202-0.788-1.961
	c0.323-0.759,1.201-1.112,1.96-0.788l1.112,0.474c0.76,0.323,1.113,1.201,0.789,1.96C63.223,23.12,62.671,23.461,62.09,23.461"/>
<path fill="#333333" d="M15.412,11.97c-0.186,0-0.374-0.034-0.557-0.107l-1.285-0.518c-0.765-0.308-1.137-1.179-0.828-1.943
	c0.308-0.767,1.177-1.137,1.943-0.828l1.285,0.516c0.766,0.309,1.137,1.179,0.829,1.944C16.564,11.616,16.004,11.97,15.412,11.97"/>
<path fill="#333333" d="M23.124,4.101c-0.581,0-1.133-0.341-1.375-0.909l-0.474-1.112c-0.324-0.758,0.03-1.636,0.788-1.959
	c0.76-0.324,1.637,0.029,1.961,0.789l0.474,1.11c0.323,0.761-0.03,1.638-0.789,1.961C23.518,4.062,23.319,4.101,23.124,4.101"/>
<path fill="#333333" d="M14.413,23.461c-0.581,0-1.133-0.341-1.375-0.909c-0.324-0.759,0.029-1.637,0.788-1.96l1.112-0.475
	c0.76-0.323,1.637,0.03,1.961,0.789c0.324,0.759-0.03,1.637-0.789,1.96l-1.112,0.475C14.807,23.422,14.608,23.461,14.413,23.461"/>
<path fill="#333333" d="M42.613,56.255c-0.393,0-0.778-0.16-1.056-0.438c-0.278-0.278-0.438-0.664-0.438-1.058
	s0.16-0.778,0.438-1.056c0.347-0.348,0.862-0.507,1.349-0.41c0.096,0.02,0.188,0.048,0.279,0.086
	c0.09,0.037,0.177,0.083,0.258,0.137c0.082,0.056,0.158,0.117,0.227,0.188c0.279,0.277,0.437,0.662,0.437,1.056
	s-0.158,0.779-0.437,1.058c-0.069,0.068-0.145,0.131-0.227,0.185c-0.081,0.054-0.168,0.101-0.258,0.138
	c-0.091,0.037-0.183,0.065-0.279,0.086C42.809,56.244,42.712,56.255,42.613,56.255"/>
<path fill="#333333" d="M71.956,53.32c1.953-1.892,3.168-4.54,3.168-7.467c0-5.734-4.666-10.4-10.401-10.4
	c-5.247,0-9.599,3.905-10.301,8.962c-1.149-0.68-2.488-1.068-3.917-1.068h-2.946c4.06-2.91,6.71-7.666,6.71-13.03
	c0-2.528-0.594-5.008-1.727-7.242c0.019-0.096,0.029-0.194,0.029-0.297c0-0.825-0.669-1.494-1.494-1.494H26.836l-0.607-10.542
	l4.919,1.745c0.547,0.192,1.158,0.053,1.565-0.36c2.05-2.085,4.353-4.361,5.538-5.453c1.185,1.092,3.488,3.368,5.538,5.453
	c0.408,0.414,1.018,0.553,1.565,0.36l4.919-1.745l-0.168,2.923c-0.048,0.823,0.582,1.53,1.406,1.577
	c0.822,0.048,1.53-0.582,1.578-1.404l0.298-5.17c0.028-0.5-0.195-0.98-0.596-1.281c-0.4-0.301-0.924-0.381-1.396-0.213l-6.145,2.18
	c-0.607-0.612-1.55-1.56-2.503-2.499c-0.941-0.927-1.709-1.669-2.283-2.203c-1.109-1.031-1.528-1.388-2.213-1.388
	s-1.103,0.356-2.212,1.388c-0.574,0.534-1.342,1.276-2.283,2.203c-0.953,0.939-1.896,1.887-2.504,2.499l-6.145-2.18
	c-0.471-0.166-0.995-0.088-1.396,0.213c-0.4,0.3-0.624,0.781-0.595,1.281l0.818,14.196c0.004,0.072,0.013,0.144,0.027,0.211
	c-1.134,2.234-1.728,4.714-1.728,7.242c0,5.364,2.651,10.121,6.711,13.03h-2.947c-1.428,0-2.768,0.389-3.916,1.068
	c-0.703-5.057-5.055-8.962-10.302-8.962c-5.735,0-10.401,4.666-10.401,10.4c0,2.927,1.216,5.575,3.168,7.467
	C1.979,53.691,0,55.906,0,58.575v11.87c0,0.825,0.669,1.494,1.494,1.494h73.514c0.825,0,1.494-0.669,1.494-1.494v-11.87
	C76.502,55.906,74.524,53.691,71.956,53.32 M64.723,38.441c4.088,0,7.413,3.325,7.413,7.412s-3.325,7.412-7.413,7.412
	c-4.087,0-7.412-3.325-7.412-7.412S60.636,38.441,64.723,38.441 M55.233,51.062V68.95H42.136l2.709-2.12
	c0.412-0.321,0.625-0.836,0.563-1.354l-0.583-4.846c-0.099-0.82-0.844-1.404-1.663-1.306s-1.403,0.843-1.304,1.662l0.482,4.01
	l-4.089,3.2l-4.089-3.2l2.246-18.662h3.687l0.284,2.365c0.098,0.819,0.843,1.402,1.662,1.306c0.819-0.1,1.404-0.844,1.305-1.662
	l-0.242-2.009h7.401C53.112,46.334,55.233,48.454,55.233,51.062 M25.222,30.316c0-2.115,0.51-4.188,1.484-6.045h23.091
	c0.973,1.856,1.484,3.93,1.484,6.045c0,7.184-5.845,13.028-13.03,13.028C31.067,43.345,25.222,37.5,25.222,30.316 M4.367,45.854
	c0-4.087,3.325-7.412,7.412-7.412c4.087,0,7.413,3.325,7.413,7.412s-3.325,7.412-7.413,7.412C7.692,53.266,4.367,49.94,4.367,45.854
	 M2.989,58.575c0-1.279,1.041-2.32,2.321-2.32h12.971V68.95H2.989V58.575z M21.269,51.062c0-2.607,2.121-4.728,4.728-4.728h7.401
	l-2.303,19.141c-0.062,0.52,0.151,1.034,0.563,1.355l2.709,2.12H21.269V51.062z M73.514,68.95H58.222V56.255h12.971
	c1.279,0,2.321,1.041,2.321,2.32V68.95z"/>
<path fill="#333333" d="M38.251,38.581c-1.316,0-2.633-0.299-3.833-0.896c-0.738-0.369-1.038-1.267-0.67-2.004
	c0.368-0.739,1.266-1.039,2.004-0.67c1.565,0.779,3.433,0.779,4.998,0c0.738-0.369,1.635-0.069,2.004,0.67
	c0.368,0.737,0.068,1.635-0.67,2.004C40.883,38.282,39.567,38.581,38.251,38.581"/>
<path fill="#333333" d="M38.251,18.244c-0.825,0-1.494-0.669-1.494-1.494v-2.336c0-0.825,0.669-1.494,1.494-1.494
	c0.825,0,1.494,0.669,1.494,1.494v2.336C39.745,17.575,39.076,18.244,38.251,18.244"/>
<rect x="-642.426" y="-2812.633" fill="none" width="1920" height="5337.103"/>
<g>
	<defs>
		<rect id="SVGID_110_" x="-642.426" y="-2812.633" width="1920" height="5337.103"/>
	</defs>
	<clipPath id="SVGID_35_">
		<use xlink:href="#SVGID_110_"  overflow="visible"/>
	</clipPath>
</g>
<g>
	<defs>
		<rect id="SVGID_112_" x="-642.426" y="-2812.633" width="1920" height="5337.103"/>
	</defs>
	<clipPath id="SVGID_37_">
		<use xlink:href="#SVGID_112_"  overflow="visible"/>
	</clipPath>
</g>
<g>
	<defs>
		<rect id="SVGID_114_" x="-642.426" y="-2812.633" width="1920" height="5337.103"/>
	</defs>
	<clipPath id="SVGID_39_">
		<use xlink:href="#SVGID_114_"  overflow="visible"/>
	</clipPath>
</g>
<g>
	<defs>
		<rect id="SVGID_116_" x="-642.426" y="-2812.633" width="1920" height="5337.103"/>
	</defs>
	<clipPath id="SVGID_41_">
		<use xlink:href="#SVGID_116_"  overflow="visible"/>
	</clipPath>
</g>
<g>
	<defs>
		<rect id="SVGID_118_" x="-642.426" y="-2812.633" width="1920" height="5337.103"/>
	</defs>
	<clipPath id="SVGID_43_">
		<use xlink:href="#SVGID_118_"  overflow="visible"/>
	</clipPath>
</g>
<g>
	<defs>
		<rect id="SVGID_136_" x="-642.426" y="-2812.633" width="1920" height="5337.103"/>
	</defs>
	<clipPath id="SVGID_45_">
		<use xlink:href="#SVGID_136_"  overflow="visible"/>
	</clipPath>
</g>
<g>
	<defs>
		<rect id="SVGID_138_" x="-642.426" y="-2812.633" width="1920" height="5337.103"/>
	</defs>
	<clipPath id="SVGID_47_">
		<use xlink:href="#SVGID_138_"  overflow="visible"/>
	</clipPath>
</g>
<g>
	<defs>
		<rect id="SVGID_146_" x="-642.426" y="-2812.633" width="1920" height="5337.103"/>
	</defs>
	<clipPath id="SVGID_49_">
		<use xlink:href="#SVGID_146_"  overflow="visible"/>
	</clipPath>
</g>
<rect x="-642.426" y="-2812.63" fill="none" width="1920" height="5337.1"/>
</svg>
