<?xml version="1.0" encoding="utf-8"?>
<!-- Generator: Adobe Illustrator 16.0.0, SVG Export Plug-In . SVG Version: 6.00 Build 0)  -->
<!DOCTYPE svg PUBLIC "-//W3C//DTD SVG 1.1//EN" "http://www.w3.org/Graphics/SVG/1.1/DTD/svg11.dtd">
<svg version="1.1" id="Capa_1" xmlns="http://www.w3.org/2000/svg" xmlns:xlink="http://www.w3.org/1999/xlink" x="0px" y="0px"
	 width="117.994px" height="117.994px" viewBox="0 0 117.994 117.994" enable-background="new 0 0 117.994 117.994"
	 xml:space="preserve">
<g>
	<defs>
		<rect id="SVGID_1_" x="-1603.006" y="-1072.004" width="1920" height="5337.1"/>
	</defs>
	<clipPath id="SVGID_2_">
		<use xlink:href="#SVGID_1_"  overflow="visible"/>
	</clipPath>
	<g clip-path="url(#SVGID_2_)">
		<defs>
			<rect id="SVGID_34_" x="-1603.006" y="-1072.007" width="1920" height="5337.103"/>
		</defs>
		<clipPath id="SVGID_4_">
			<use xlink:href="#SVGID_34_"  overflow="visible"/>
		</clipPath>
	</g>
	<g clip-path="url(#SVGID_2_)">
		<defs>
			<rect id="SVGID_38_" x="-1603.006" y="-1072.007" width="1920" height="5337.103"/>
		</defs>
		<clipPath id="SVGID_6_">
			<use xlink:href="#SVGID_38_"  overflow="visible"/>
		</clipPath>
	</g>
	<g clip-path="url(#SVGID_2_)">
		<defs>
			<rect id="SVGID_48_" x="-1603.006" y="-1072.007" width="1920" height="5337.103"/>
		</defs>
		<clipPath id="SVGID_8_">
			<use xlink:href="#SVGID_48_"  overflow="visible"/>
		</clipPath>
	</g>
	<g clip-path="url(#SVGID_2_)">
		<defs>
			<rect id="SVGID_52_" x="-1603.006" y="-1072.007" width="1920" height="5337.103"/>
		</defs>
		<clipPath id="SVGID_9_">
			<use xlink:href="#SVGID_52_"  overflow="visible"/>
		</clipPath>
	</g>
	<g clip-path="url(#SVGID_2_)">
		<defs>
			<rect id="SVGID_56_" x="-1603.006" y="-1072.007" width="1920" height="5337.103"/>
		</defs>
		<clipPath id="SVGID_10_">
			<use xlink:href="#SVGID_56_"  overflow="visible"/>
		</clipPath>
	</g>
	<g clip-path="url(#SVGID_2_)">
		<defs>
			<rect id="SVGID_58_" x="-1603.006" y="-1072.007" width="1920" height="5337.103"/>
		</defs>
		<clipPath id="SVGID_11_">
			<use xlink:href="#SVGID_58_"  overflow="visible"/>
		</clipPath>
	</g>
	<g clip-path="url(#SVGID_2_)">
		<defs>
			<rect id="SVGID_60_" x="-1603.006" y="-1072.007" width="1920" height="5337.103"/>
		</defs>
		<clipPath id="SVGID_13_">
			<use xlink:href="#SVGID_60_"  overflow="visible"/>
		</clipPath>
		<path clip-path="url(#SVGID_13_)" fill="#FFFFFF" d="M91.952,28.345c-1.271,0-2.305,1.033-2.305,2.305s1.033,2.304,2.305,2.304
			c1.272,0,2.305-1.032,2.305-2.304S93.225,28.345,91.952,28.345"/>
		<path clip-path="url(#SVGID_13_)" fill="#FFFFFF" d="M91.952,56c-1.271,0-2.305,1.032-2.305,2.305
			c0,1.272,1.033,2.304,2.305,2.304c1.272,0,2.305-1.032,2.305-2.304C94.257,57.033,93.225,56,91.952,56"/>
		<path clip-path="url(#SVGID_13_)" fill="#FFFFFF" d="M82.734,75.128c-1.272,0-2.305,1.032-2.305,2.305
			c0,1.272,1.032,2.304,2.305,2.304c1.271,0,2.305-1.032,2.305-2.304C85.039,76.161,84.006,75.128,82.734,75.128"/>
		<path clip-path="url(#SVGID_13_)" fill="#FFFFFF" d="M35.951,75.128c-1.272,0-2.305,1.032-2.305,2.305
			c0,1.272,1.032,2.304,2.305,2.304c1.271,0,2.305-1.032,2.305-2.304C38.256,76.161,37.223,75.128,35.951,75.128"/>
		<path clip-path="url(#SVGID_13_)" fill="#FFFFFF" d="M82.734,42.173h18.437c1.272,0,2.304-1.032,2.304-2.305V21.432
			c0-1.274-1.031-2.305-2.304-2.305H82.734c-1.273,0-2.305,1.031-2.305,2.305v6.913h-7.605c-1.272,0-2.305,1.032-2.305,2.305v11.523
			h-4.608v-2.305c0-1.273-1.032-2.304-2.305-2.304h-6.032c-0.639-1.593-1.477-3.061-2.506-4.388l3.002-5.199
			c0.306-0.529,0.389-1.158,0.23-1.749c-0.158-0.591-0.544-1.094-1.074-1.4l-7.982-4.609c-1.104-0.637-2.512-0.259-3.148,0.844
			l-2.99,5.179c-1.756-0.27-3.334-0.27-5.09,0l-2.991-5.179c-0.636-1.103-2.046-1.48-3.148-0.844l-7.982,4.609
			c-0.529,0.306-0.916,0.809-1.074,1.4c-0.158,0.591-0.075,1.22,0.23,1.749l3.003,5.199c-1.029,1.327-1.867,2.795-2.507,4.388
			h-6.723c-1.272,0-2.305,1.031-2.305,2.304v9.218c0,1.274,1.032,2.305,2.305,2.305h6.724c0.639,1.593,1.477,3.06,2.506,4.388
			l-3.003,5.199c-0.306,0.529-0.389,1.158-0.229,1.749c0.157,0.591,0.544,1.094,1.073,1.399l7.983,4.61
			c1.102,0.636,2.512,0.258,3.147-0.844l2.991-5.179c1.756,0.27,3.334,0.27,5.09,0l2.99,5.179c0.427,0.739,1.202,1.152,1.998,1.152
			c0.392,0,0.787-0.099,1.15-0.308l7.983-4.61c0.529-0.305,0.915-0.808,1.073-1.399c0.158-0.591,0.075-1.22-0.23-1.749l-3.002-5.199
			c1.029-1.328,1.867-2.795,2.506-4.388h6.032c1.272,0,2.305-1.031,2.305-2.305v-2.304h4.608v11.523
			c0,1.272,1.032,2.305,2.305,2.305h7.605v6.913c0,1.273,1.031,2.304,2.305,2.304h18.437c1.272,0,2.304-1.031,2.304-2.304V49.086
			c0-1.272-1.031-2.304-2.304-2.304H82.734c-1.273,0-2.305,1.032-2.305,2.304V56h-5.301V44.478V32.954h5.301v6.914
			C80.43,41.141,81.461,42.173,82.734,42.173 M85.039,23.737h13.827v13.827H85.039V23.737z M61.302,46.782h-5.36
			c-1.018,0-1.914,0.667-2.207,1.64c-0.639,2.121-1.699,3.978-3.152,5.517c-0.699,0.741-0.829,1.852-0.318,2.734l2.663,4.614
			l-3.991,2.304l-2.662-4.609c-0.418-0.724-1.186-1.153-1.995-1.153c-0.179,0-0.357,0.022-0.535,0.064
			c-1.162,0.277-2.203,0.412-3.183,0.412s-2.021-0.135-3.183-0.412c-0.991-0.236-2.021,0.207-2.53,1.089l-2.662,4.609l-3.991-2.304
			l2.664-4.614c0.509-0.882,0.379-1.993-0.32-2.734c-1.452-1.539-2.513-3.396-3.152-5.517c-0.293-0.973-1.189-1.64-2.206-1.64
			h-6.052v-4.609h6.052c1.017,0,1.913-0.667,2.206-1.64c0.64-2.122,1.7-3.978,3.152-5.517c0.699-0.741,0.829-1.853,0.32-2.734
			l-2.664-4.614l3.991-2.304l2.662,4.609c0.51,0.882,1.538,1.325,2.53,1.089c1.162-0.278,2.203-0.412,3.183-0.412
			s2.021,0.134,3.183,0.412c0.991,0.237,2.021-0.207,2.53-1.089l2.662-4.609l3.991,2.304l-2.663,4.614
			c-0.511,0.881-0.381,1.993,0.318,2.734c1.453,1.539,2.514,3.395,3.152,5.517c0.293,0.973,1.189,1.64,2.207,1.64h5.36V46.782z
			 M85.039,51.391h13.827v13.828H85.039V51.391z"/>
		<path clip-path="url(#SVGID_13_)" fill="#FFFFFF" d="M40.561,35.26c-5.083,0-9.219,4.136-9.219,9.219s4.136,9.217,9.219,9.217
			s9.218-4.134,9.218-9.217S45.644,35.26,40.561,35.26 M40.561,49.086c-2.542,0-4.609-2.067-4.609-4.608
			c0-2.542,2.067-4.61,4.609-4.61c2.541,0,4.609,2.068,4.609,4.61C45.17,47.02,43.102,49.086,40.561,49.086"/>
		<path clip-path="url(#SVGID_13_)" fill="#FFFFFF" d="M72.824,75.128H45.17c-1.273,0-2.305,1.032-2.305,2.305
			c0,1.272,1.031,2.304,2.305,2.304h27.654c1.273,0,2.305-1.032,2.305-2.304C75.129,76.161,74.098,75.128,72.824,75.128"/>
		<path clip-path="url(#SVGID_13_)" fill="#FFFFFF" d="M113.385,85.435v-72c0.961-0.339,1.842-0.891,2.584-1.633
			c1.305-1.307,2.025-3.042,2.025-4.889c0-3.811-3.102-6.913-6.914-6.913H6.913C5.066,0,3.331,0.719,2.025,2.025
			C0.719,3.331,0,5.067,0,6.913c0,3.005,1.927,5.566,4.607,6.518v72.001c-0.959,0.338-1.841,0.89-2.582,1.632
			C0.719,88.37,0,90.106,0,91.952c0,3.813,3.102,6.914,6.913,6.914h49.778v5.697c-2.682,0.952-4.608,3.513-4.608,6.517
			c0,3.813,3.102,6.914,6.914,6.914s6.914-3.101,6.914-6.914c0-3.004-1.929-5.565-4.609-6.517v-5.697h49.778
			c1.847,0,3.582-0.72,4.889-2.025c1.305-1.307,2.025-3.042,2.025-4.889C117.994,88.948,116.066,86.387,113.385,85.435 M5.284,5.284
			C5.72,4.849,6.299,4.608,6.913,4.608H111.08c1.271,0,2.305,1.035,2.305,2.305c0,0.615-0.239,1.194-0.675,1.63
			c-0.437,0.435-1.015,0.675-1.63,0.675H6.913c-1.271,0-2.306-1.033-2.306-2.305C4.607,6.299,4.849,5.72,5.284,5.284
			 M108.775,85.039H9.217V13.827h99.559V85.039z M58.997,113.385c-1.271,0-2.306-1.033-2.306-2.305c0-1.27,1.035-2.305,2.306-2.305
			s2.305,1.035,2.305,2.305C61.302,112.352,60.268,113.385,58.997,113.385 M112.71,93.581c-0.437,0.436-1.015,0.676-1.63,0.676
			H6.913c-1.271,0-2.306-1.034-2.306-2.305c0-0.614,0.241-1.193,0.677-1.629c0.436-0.435,1.015-0.676,1.629-0.676H111.08
			c1.271,0,2.305,1.035,2.305,2.305C113.385,92.567,113.146,93.145,112.71,93.581"/>
		<path clip-path="url(#SVGID_13_)" fill="#FFFFFF" d="M91.952,28.345c-1.271,0-2.305,1.033-2.305,2.305s1.033,2.304,2.305,2.304
			c1.272,0,2.305-1.032,2.305-2.304S93.225,28.345,91.952,28.345"/>
		<path clip-path="url(#SVGID_13_)" fill="#FFFFFF" d="M91.952,56c-1.271,0-2.305,1.032-2.305,2.305
			c0,1.272,1.033,2.304,2.305,2.304c1.272,0,2.305-1.032,2.305-2.304C94.257,57.033,93.225,56,91.952,56"/>
		<path clip-path="url(#SVGID_13_)" fill="#FFFFFF" d="M82.734,75.128c-1.272,0-2.305,1.032-2.305,2.305
			c0,1.272,1.032,2.304,2.305,2.304c1.271,0,2.305-1.032,2.305-2.304C85.039,76.161,84.006,75.128,82.734,75.128"/>
		<path clip-path="url(#SVGID_13_)" fill="#FFFFFF" d="M35.951,75.128c-1.272,0-2.305,1.032-2.305,2.305
			c0,1.272,1.032,2.304,2.305,2.304c1.271,0,2.305-1.032,2.305-2.304C38.256,76.161,37.223,75.128,35.951,75.128"/>
		<path clip-path="url(#SVGID_13_)" fill="#FFFFFF" d="M82.734,42.173h18.437c1.272,0,2.304-1.032,2.304-2.305V21.432
			c0-1.274-1.031-2.305-2.304-2.305H82.734c-1.273,0-2.305,1.031-2.305,2.305v6.913h-7.605c-1.272,0-2.305,1.032-2.305,2.305v11.523
			h-4.608v-2.305c0-1.273-1.032-2.304-2.305-2.304h-6.032c-0.639-1.593-1.477-3.061-2.506-4.388l3.002-5.199
			c0.306-0.529,0.389-1.158,0.23-1.749c-0.158-0.591-0.544-1.094-1.074-1.4l-7.982-4.609c-1.104-0.637-2.512-0.259-3.148,0.844
			l-2.99,5.179c-1.756-0.27-3.334-0.27-5.09,0l-2.991-5.179c-0.636-1.103-2.046-1.48-3.148-0.844l-7.982,4.609
			c-0.529,0.306-0.916,0.809-1.074,1.4c-0.158,0.591-0.075,1.22,0.23,1.749l3.003,5.199c-1.029,1.327-1.867,2.795-2.507,4.388
			h-6.723c-1.272,0-2.305,1.031-2.305,2.304v9.218c0,1.274,1.032,2.305,2.305,2.305h6.724c0.639,1.593,1.477,3.06,2.506,4.388
			l-3.003,5.199c-0.306,0.529-0.389,1.158-0.229,1.749c0.157,0.591,0.544,1.094,1.073,1.399l7.983,4.61
			c1.102,0.636,2.512,0.258,3.147-0.844l2.991-5.179c1.756,0.27,3.334,0.27,5.09,0l2.99,5.179c0.427,0.739,1.202,1.152,1.998,1.152
			c0.392,0,0.787-0.099,1.15-0.308l7.983-4.61c0.529-0.305,0.915-0.808,1.073-1.399c0.158-0.591,0.075-1.22-0.23-1.749l-3.002-5.199
			c1.029-1.328,1.867-2.795,2.506-4.388h6.032c1.272,0,2.305-1.031,2.305-2.305v-2.304h4.608v11.523
			c0,1.272,1.032,2.305,2.305,2.305h7.605v6.913c0,1.273,1.031,2.304,2.305,2.304h18.437c1.272,0,2.304-1.031,2.304-2.304V49.086
			c0-1.272-1.031-2.304-2.304-2.304H82.734c-1.273,0-2.305,1.032-2.305,2.304V56h-5.301V44.478V32.954h5.301v6.914
			C80.43,41.141,81.461,42.173,82.734,42.173 M85.039,23.737h13.827v13.827H85.039V23.737z M61.302,46.782h-5.36
			c-1.018,0-1.914,0.667-2.207,1.64c-0.639,2.121-1.699,3.978-3.152,5.517c-0.699,0.741-0.829,1.852-0.318,2.734l2.663,4.614
			l-3.991,2.304l-2.662-4.609c-0.418-0.724-1.186-1.153-1.995-1.153c-0.179,0-0.357,0.022-0.535,0.064
			c-1.162,0.277-2.203,0.412-3.183,0.412s-2.021-0.135-3.183-0.412c-0.991-0.236-2.021,0.207-2.53,1.089l-2.662,4.609l-3.991-2.304
			l2.664-4.614c0.509-0.882,0.379-1.993-0.32-2.734c-1.452-1.539-2.513-3.396-3.152-5.517c-0.293-0.973-1.189-1.64-2.206-1.64
			h-6.052v-4.609h6.052c1.017,0,1.913-0.667,2.206-1.64c0.64-2.122,1.7-3.978,3.152-5.517c0.699-0.741,0.829-1.853,0.32-2.734
			l-2.664-4.614l3.991-2.304l2.662,4.609c0.51,0.882,1.538,1.325,2.53,1.089c1.162-0.278,2.203-0.412,3.183-0.412
			s2.021,0.134,3.183,0.412c0.991,0.237,2.021-0.207,2.53-1.089l2.662-4.609l3.991,2.304l-2.663,4.614
			c-0.511,0.881-0.381,1.993,0.318,2.734c1.453,1.539,2.514,3.395,3.152,5.517c0.293,0.973,1.189,1.64,2.207,1.64h5.36V46.782z
			 M85.039,51.391h13.827v13.828H85.039V51.391z"/>
		<path clip-path="url(#SVGID_13_)" fill="#FFFFFF" d="M40.561,35.26c-5.083,0-9.219,4.136-9.219,9.219s4.136,9.217,9.219,9.217
			s9.218-4.134,9.218-9.217S45.644,35.26,40.561,35.26 M40.561,49.086c-2.542,0-4.609-2.067-4.609-4.608
			c0-2.542,2.067-4.61,4.609-4.61c2.541,0,4.609,2.068,4.609,4.61C45.17,47.02,43.102,49.086,40.561,49.086"/>
		<path clip-path="url(#SVGID_13_)" fill="#FFFFFF" d="M72.824,75.128H45.17c-1.273,0-2.305,1.032-2.305,2.305
			c0,1.272,1.031,2.304,2.305,2.304h27.654c1.273,0,2.305-1.032,2.305-2.304C75.129,76.161,74.098,75.128,72.824,75.128"/>
		<path clip-path="url(#SVGID_13_)" fill="#FFFFFF" d="M113.385,85.435v-72c0.961-0.339,1.842-0.891,2.584-1.633
			c1.305-1.307,2.025-3.042,2.025-4.889c0-3.811-3.102-6.913-6.914-6.913H6.913C5.066,0,3.331,0.719,2.025,2.025
			C0.719,3.331,0,5.067,0,6.913c0,3.005,1.927,5.566,4.607,6.518v72.001c-0.959,0.338-1.841,0.89-2.582,1.632
			C0.719,88.37,0,90.106,0,91.952c0,3.813,3.102,6.914,6.913,6.914h49.778v5.697c-2.682,0.952-4.608,3.513-4.608,6.517
			c0,3.813,3.102,6.914,6.914,6.914s6.914-3.101,6.914-6.914c0-3.004-1.929-5.565-4.609-6.517v-5.697h49.778
			c1.847,0,3.582-0.72,4.889-2.025c1.305-1.307,2.025-3.042,2.025-4.889C117.994,88.948,116.066,86.387,113.385,85.435 M5.284,5.284
			C5.72,4.849,6.299,4.608,6.913,4.608H111.08c1.271,0,2.305,1.035,2.305,2.305c0,0.615-0.239,1.194-0.675,1.63
			c-0.437,0.435-1.015,0.675-1.63,0.675H6.913c-1.271,0-2.306-1.033-2.306-2.305C4.607,6.299,4.849,5.72,5.284,5.284
			 M108.775,85.039H9.217V13.827h99.559V85.039z M58.997,113.385c-1.271,0-2.306-1.033-2.306-2.305c0-1.27,1.035-2.305,2.306-2.305
			s2.305,1.035,2.305,2.305C61.302,112.352,60.268,113.385,58.997,113.385 M112.71,93.581c-0.437,0.436-1.015,0.676-1.63,0.676
			H6.913c-1.271,0-2.306-1.034-2.306-2.305c0-0.614,0.241-1.193,0.677-1.629c0.436-0.435,1.015-0.676,1.629-0.676H111.08
			c1.271,0,2.305,1.035,2.305,2.305C113.385,92.567,113.146,93.145,112.71,93.581"/>
	</g>
	<g clip-path="url(#SVGID_2_)">
		<defs>
			<rect id="SVGID_62_" x="-1603.006" y="-1072.007" width="1920" height="5337.103"/>
		</defs>
		<clipPath id="SVGID_15_">
			<use xlink:href="#SVGID_62_"  overflow="visible"/>
		</clipPath>
	</g>
	<g clip-path="url(#SVGID_2_)">
		<defs>
			<rect id="SVGID_64_" x="-1603.006" y="-1072.007" width="1920" height="5337.103"/>
		</defs>
		<clipPath id="SVGID_17_">
			<use xlink:href="#SVGID_64_"  overflow="visible"/>
		</clipPath>
	</g>
	<g clip-path="url(#SVGID_2_)">
		<defs>
			<rect id="SVGID_68_" x="-1603.006" y="-1072.007" width="1920" height="5337.103"/>
		</defs>
		<clipPath id="SVGID_18_">
			<use xlink:href="#SVGID_68_"  overflow="visible"/>
		</clipPath>
	</g>
	<g clip-path="url(#SVGID_2_)">
		<defs>
			<rect id="SVGID_72_" x="-1603.006" y="-1072.007" width="1920" height="5337.103"/>
		</defs>
		<clipPath id="SVGID_19_">
			<use xlink:href="#SVGID_72_"  overflow="visible"/>
		</clipPath>
	</g>
	<g clip-path="url(#SVGID_2_)">
		<defs>
			<rect id="SVGID_76_" x="-1603.006" y="-1072.007" width="1920" height="5337.103"/>
		</defs>
		<clipPath id="SVGID_20_">
			<use xlink:href="#SVGID_76_"  overflow="visible"/>
		</clipPath>
	</g>
	<g clip-path="url(#SVGID_2_)">
		<defs>
			<rect id="SVGID_78_" x="-1603.006" y="-1072.007" width="1920" height="5337.103"/>
		</defs>
		<clipPath id="SVGID_22_">
			<use xlink:href="#SVGID_78_"  overflow="visible"/>
		</clipPath>
	</g>
	<g clip-path="url(#SVGID_2_)">
		<defs>
			<rect id="SVGID_80_" x="-1603.006" y="-1072.007" width="1920" height="5337.103"/>
		</defs>
		<clipPath id="SVGID_24_">
			<use xlink:href="#SVGID_80_"  overflow="visible"/>
		</clipPath>
	</g>
	<g clip-path="url(#SVGID_2_)">
		<defs>
			<rect id="SVGID_86_" x="-1603.006" y="-1072.007" width="1920" height="5337.103"/>
		</defs>
		<clipPath id="SVGID_26_">
			<use xlink:href="#SVGID_86_"  overflow="visible"/>
		</clipPath>
	</g>
	<g clip-path="url(#SVGID_2_)">
		<defs>
			<rect id="SVGID_92_" x="-1603.006" y="-1072.007" width="1920" height="5337.103"/>
		</defs>
		<clipPath id="SVGID_27_">
			<use xlink:href="#SVGID_92_"  overflow="visible"/>
		</clipPath>
	</g>
	<g clip-path="url(#SVGID_2_)">
		<defs>
			<rect id="SVGID_94_" x="-1603.006" y="-1072.007" width="1920" height="5337.103"/>
		</defs>
		<clipPath id="SVGID_28_">
			<use xlink:href="#SVGID_94_"  overflow="visible"/>
		</clipPath>
	</g>
	<g clip-path="url(#SVGID_2_)">
		<defs>
			<rect id="SVGID_108_" x="-1603.006" y="-1072.007" width="1920" height="5337.103"/>
		</defs>
		<clipPath id="SVGID_29_">
			<use xlink:href="#SVGID_108_"  overflow="visible"/>
		</clipPath>
	</g>
	<g clip-path="url(#SVGID_2_)">
		<defs>
			<rect id="SVGID_110_" x="-1603.006" y="-1072.007" width="1920" height="5337.103"/>
		</defs>
		<clipPath id="SVGID_31_">
			<use xlink:href="#SVGID_110_"  overflow="visible"/>
		</clipPath>
	</g>
	<g clip-path="url(#SVGID_2_)">
		<defs>
			<rect id="SVGID_112_" x="-1603.006" y="-1072.007" width="1920" height="5337.103"/>
		</defs>
		<clipPath id="SVGID_33_">
			<use xlink:href="#SVGID_112_"  overflow="visible"/>
		</clipPath>
	</g>
	<g clip-path="url(#SVGID_2_)">
		<defs>
			<rect id="SVGID_122_" x="-1603.006" y="-1072.007" width="1920" height="5337.103"/>
		</defs>
		<clipPath id="SVGID_35_">
			<use xlink:href="#SVGID_122_"  overflow="visible"/>
		</clipPath>
	</g>
	<g clip-path="url(#SVGID_2_)">
		<defs>
			<rect id="SVGID_124_" x="-1603.006" y="-1072.007" width="1920" height="5337.103"/>
		</defs>
		<clipPath id="SVGID_37_">
			<use xlink:href="#SVGID_124_"  overflow="visible"/>
		</clipPath>
	</g>
	<g clip-path="url(#SVGID_2_)">
		<defs>
			<rect id="SVGID_126_" x="-1603.006" y="-1072.007" width="1920" height="5337.103"/>
		</defs>
		<clipPath id="SVGID_39_">
			<use xlink:href="#SVGID_126_"  overflow="visible"/>
		</clipPath>
	</g>
	<g clip-path="url(#SVGID_2_)">
		<defs>
			<rect id="SVGID_128_" x="-1603.006" y="-1072.007" width="1920" height="5337.103"/>
		</defs>
		<clipPath id="SVGID_41_">
			<use xlink:href="#SVGID_128_"  overflow="visible"/>
		</clipPath>
	</g>
	<g clip-path="url(#SVGID_2_)">
		<defs>
			<rect id="SVGID_130_" x="-1603.006" y="-1072.007" width="1920" height="5337.103"/>
		</defs>
		<clipPath id="SVGID_43_">
			<use xlink:href="#SVGID_130_"  overflow="visible"/>
		</clipPath>
	</g>
	<g clip-path="url(#SVGID_2_)">
		<defs>
			<rect id="SVGID_132_" x="-1603.006" y="-1072.007" width="1920" height="5337.103"/>
		</defs>
		<clipPath id="SVGID_45_">
			<use xlink:href="#SVGID_132_"  overflow="visible"/>
		</clipPath>
	</g>
	<g clip-path="url(#SVGID_2_)">
		<defs>
			<rect id="SVGID_150_" x="-1603.006" y="-1072.007" width="1920" height="5337.103"/>
		</defs>
		<clipPath id="SVGID_47_">
			<use xlink:href="#SVGID_150_"  overflow="visible"/>
		</clipPath>
	</g>
	<g clip-path="url(#SVGID_2_)">
		<defs>
			<rect id="SVGID_152_" x="-1603.006" y="-1072.007" width="1920" height="5337.103"/>
		</defs>
		<clipPath id="SVGID_49_">
			<use xlink:href="#SVGID_152_"  overflow="visible"/>
		</clipPath>
	</g>
	<g clip-path="url(#SVGID_2_)">
		<defs>
			<rect id="SVGID_160_" x="-1603.006" y="-1072.007" width="1920" height="5337.103"/>
		</defs>
		<clipPath id="SVGID_51_">
			<use xlink:href="#SVGID_160_"  overflow="visible"/>
		</clipPath>
	</g>
</g>
</svg>
