<?xml version="1.0" encoding="utf-8"?>
<!-- Generator: Adobe Illustrator 16.0.0, SVG Export Plug-In . SVG Version: 6.00 Build 0)  -->
<!DOCTYPE svg PUBLIC "-//W3C//DTD SVG 1.1//EN" "http://www.w3.org/Graphics/SVG/1.1/DTD/svg11.dtd">
<svg version="1.1" id="Capa_1" xmlns="http://www.w3.org/2000/svg" xmlns:xlink="http://www.w3.org/1999/xlink" x="0px" y="0px"
	 width="38.687px" height="38.687px" viewBox="0 0 38.687 38.687" enable-background="new 0 0 38.687 38.687" xml:space="preserve">
<g>
	<defs>
		<rect id="SVGID_32_" x="-1510.212" y="-5195.837" width="1920" height="5337.103"/>
	</defs>
	<clipPath id="SVGID_2_">
		<use xlink:href="#SVGID_32_"  overflow="visible"/>
	</clipPath>
</g>
<g>
	<defs>
		<rect id="SVGID_36_" x="-1510.212" y="-5195.837" width="1920" height="5337.103"/>
	</defs>
	<clipPath id="SVGID_4_">
		<use xlink:href="#SVGID_36_"  overflow="visible"/>
	</clipPath>
</g>
<g>
	<defs>
		<rect id="SVGID_46_" x="-1510.212" y="-5195.837" width="1920" height="5337.103"/>
	</defs>
	<clipPath id="SVGID_6_">
		<use xlink:href="#SVGID_46_"  overflow="visible"/>
	</clipPath>
</g>
<g>
	<defs>
		<rect id="SVGID_50_" x="-1510.212" y="-5195.837" width="1920" height="5337.103"/>
	</defs>
	<clipPath id="SVGID_7_">
		<use xlink:href="#SVGID_50_"  overflow="visible"/>
	</clipPath>
</g>
<g>
	<defs>
		<rect id="SVGID_54_" x="-1510.212" y="-5195.837" width="1920" height="5337.103"/>
	</defs>
	<clipPath id="SVGID_8_">
		<use xlink:href="#SVGID_54_"  overflow="visible"/>
	</clipPath>
</g>
<g>
	<defs>
		<rect id="SVGID_56_" x="-1510.212" y="-5195.837" width="1920" height="5337.103"/>
	</defs>
	<clipPath id="SVGID_9_">
		<use xlink:href="#SVGID_56_"  overflow="visible"/>
	</clipPath>
</g>
<g>
	<defs>
		<rect id="SVGID_58_" x="-1510.212" y="-5195.837" width="1920" height="5337.103"/>
	</defs>
	<clipPath id="SVGID_11_">
		<use xlink:href="#SVGID_58_"  overflow="visible"/>
	</clipPath>
</g>
<g>
	<defs>
		<rect id="SVGID_60_" x="-1510.212" y="-5195.837" width="1920" height="5337.103"/>
	</defs>
	<clipPath id="SVGID_13_">
		<use xlink:href="#SVGID_60_"  overflow="visible"/>
	</clipPath>
</g>
<rect x="-1510.212" y="-5195.837" fill="none" width="1920" height="5337.103"/>
<g>
	<defs>
		<rect id="SVGID_64_" x="-1510.212" y="-5195.837" width="1920" height="5337.103"/>
	</defs>
	<clipPath id="SVGID_15_">
		<use xlink:href="#SVGID_64_"  overflow="visible"/>
	</clipPath>
</g>
<g>
	<defs>
		<rect id="SVGID_68_" x="-1510.212" y="-5195.837" width="1920" height="5337.103"/>
	</defs>
	<clipPath id="SVGID_16_">
		<use xlink:href="#SVGID_68_"  overflow="visible"/>
	</clipPath>
</g>
<g>
	<defs>
		<rect id="SVGID_72_" x="-1510.212" y="-5195.837" width="1920" height="5337.103"/>
	</defs>
	<clipPath id="SVGID_17_">
		<use xlink:href="#SVGID_72_"  overflow="visible"/>
	</clipPath>
</g>
<g>
	<defs>
		<rect id="SVGID_74_" x="-1510.212" y="-5195.837" width="1920" height="5337.103"/>
	</defs>
	<clipPath id="SVGID_18_">
		<use xlink:href="#SVGID_74_"  overflow="visible"/>
	</clipPath>
	<path clip-path="url(#SVGID_18_)" fill="#F1D060" d="M28.215,0H10.473C4.698,0,0,4.696,0,10.472v17.743
		c0,5.772,4.698,10.472,10.473,10.472h17.742c5.774,0,10.472-4.699,10.472-10.472V10.472C38.687,4.696,33.989,0,28.215,0
		 M36.419,28.215c0,4.522-3.681,8.203-8.204,8.203H10.473c-4.524,0-8.204-3.681-8.204-8.203V10.472c0-4.524,3.68-8.204,8.204-8.204
		h17.742c4.523,0,8.204,3.68,8.204,8.204V28.215z"/>
	<path clip-path="url(#SVGID_18_)" fill="#F1D060" d="M19.344,8.766c-5.833,0-10.578,4.744-10.578,10.576
		c0,5.833,4.745,10.579,10.578,10.579s10.578-4.746,10.578-10.579C29.922,13.51,25.177,8.766,19.344,8.766 M19.344,27.653
		c-4.582,0-8.312-3.729-8.312-8.312c0-4.58,3.729-8.309,8.312-8.309s8.31,3.729,8.31,8.309
		C27.653,23.925,23.926,27.653,19.344,27.653"/>
	<path clip-path="url(#SVGID_18_)" fill="#F1D060" d="M30.175,5.009c-1.725,0-3.126,1.402-3.126,3.125
		c0,1.724,1.401,3.126,3.126,3.126c1.724,0,3.126-1.402,3.126-3.126S31.898,5.009,30.175,5.009 M30.175,8.992
		c-0.473,0-0.858-0.385-0.858-0.858c0-0.473,0.386-0.857,0.858-0.857s0.857,0.385,0.857,0.857
		C31.032,8.607,30.647,8.992,30.175,8.992"/>
</g>
<g>
	<defs>
		<rect id="SVGID_76_" x="-1510.212" y="-5195.837" width="1920" height="5337.103"/>
	</defs>
	<clipPath id="SVGID_20_">
		<use xlink:href="#SVGID_76_"  overflow="visible"/>
	</clipPath>
</g>
<g>
	<defs>
		<rect id="SVGID_82_" x="-1510.212" y="-5195.837" width="1920" height="5337.103"/>
	</defs>
	<clipPath id="SVGID_22_">
		<use xlink:href="#SVGID_82_"  overflow="visible"/>
	</clipPath>
</g>
<g>
	<defs>
		<rect id="SVGID_88_" x="-1510.212" y="-5195.837" width="1920" height="5337.103"/>
	</defs>
	<clipPath id="SVGID_24_">
		<use xlink:href="#SVGID_88_"  overflow="visible"/>
	</clipPath>
</g>
<g>
	<defs>
		<rect id="SVGID_90_" x="-1510.212" y="-5195.837" width="1920" height="5337.103"/>
	</defs>
	<clipPath id="SVGID_25_">
		<use xlink:href="#SVGID_90_"  overflow="visible"/>
	</clipPath>
</g>
<g>
	<defs>
		<rect id="SVGID_104_" x="-1510.212" y="-5195.837" width="1920" height="5337.103"/>
	</defs>
	<clipPath id="SVGID_26_">
		<use xlink:href="#SVGID_104_"  overflow="visible"/>
	</clipPath>
</g>
<g>
	<defs>
		<rect id="SVGID_106_" x="-1510.212" y="-5195.837" width="1920" height="5337.103"/>
	</defs>
	<clipPath id="SVGID_27_">
		<use xlink:href="#SVGID_106_"  overflow="visible"/>
	</clipPath>
</g>
<g>
	<defs>
		<rect id="SVGID_108_" x="-1510.212" y="-5195.837" width="1920" height="5337.103"/>
	</defs>
	<clipPath id="SVGID_29_">
		<use xlink:href="#SVGID_108_"  overflow="visible"/>
	</clipPath>
</g>
<g>
	<defs>
		<rect id="SVGID_118_" x="-1510.212" y="-5195.837" width="1920" height="5337.103"/>
	</defs>
	<clipPath id="SVGID_31_">
		<use xlink:href="#SVGID_118_"  overflow="visible"/>
	</clipPath>
</g>
<g>
	<defs>
		<rect id="SVGID_120_" x="-1510.212" y="-5195.837" width="1920" height="5337.103"/>
	</defs>
	<clipPath id="SVGID_33_">
		<use xlink:href="#SVGID_120_"  overflow="visible"/>
	</clipPath>
</g>
<g>
	<defs>
		<rect id="SVGID_122_" x="-1510.212" y="-5195.837" width="1920" height="5337.103"/>
	</defs>
	<clipPath id="SVGID_35_">
		<use xlink:href="#SVGID_122_"  overflow="visible"/>
	</clipPath>
</g>
<g>
	<defs>
		<rect id="SVGID_124_" x="-1510.212" y="-5195.837" width="1920" height="5337.103"/>
	</defs>
	<clipPath id="SVGID_37_">
		<use xlink:href="#SVGID_124_"  overflow="visible"/>
	</clipPath>
</g>
<g>
	<defs>
		<rect id="SVGID_126_" x="-1510.212" y="-5195.837" width="1920" height="5337.103"/>
	</defs>
	<clipPath id="SVGID_39_">
		<use xlink:href="#SVGID_126_"  overflow="visible"/>
	</clipPath>
</g>
<g>
	<defs>
		<rect id="SVGID_128_" x="-1510.212" y="-5195.837" width="1920" height="5337.103"/>
	</defs>
	<clipPath id="SVGID_41_">
		<use xlink:href="#SVGID_128_"  overflow="visible"/>
	</clipPath>
</g>
<g>
	<defs>
		<rect id="SVGID_146_" x="-1510.212" y="-5195.837" width="1920" height="5337.103"/>
	</defs>
	<clipPath id="SVGID_43_">
		<use xlink:href="#SVGID_146_"  overflow="visible"/>
	</clipPath>
</g>
<g>
	<defs>
		<rect id="SVGID_148_" x="-1510.212" y="-5195.837" width="1920" height="5337.103"/>
	</defs>
	<clipPath id="SVGID_45_">
		<use xlink:href="#SVGID_148_"  overflow="visible"/>
	</clipPath>
</g>
<g>
	<defs>
		<rect id="SVGID_156_" x="-1510.212" y="-5195.837" width="1920" height="5337.103"/>
	</defs>
	<clipPath id="SVGID_47_">
		<use xlink:href="#SVGID_156_"  overflow="visible"/>
	</clipPath>
</g>
<rect x="-1510.212" y="-5195.834" fill="none" width="1920" height="5337.1"/>
</svg>
